<svg xmlns="http://www.w3.org/2000/svg" xmlns:xlink="http://www.w3.org/1999/xlink" width="12" height="12" viewBox="0 0 12 12">
  <defs>
    <path id="cart12px-a" d="M9.14405,8.4177375 C9.92613261,8.4177375 10.5603,9.05178537 10.5603,9.8337375 C10.5603,10.6159723 9.926225,11.2499875 9.14405,11.2499875 C8.361875,11.2499875 7.7278,10.6159723 7.7278,9.8337375 C7.7278,9.05178537 8.36196739,8.4177375 9.14405,8.4177375 Z M4.9499625,8.4177375 C5.73204511,8.4177375 6.3662125,9.05178537 6.3662125,9.8337375 C6.3662125,10.6159723 5.7321375,11.2499875 4.9499625,11.2499875 C4.16797224,11.2499875 3.5337125,10.615907 3.5337125,9.8337375 C3.5337125,9.05185058 4.16806464,8.4177375 4.9499625,8.4177375 Z M9.14405,9.4177375 C8.91420995,9.4177375 8.7278,9.60411231 8.7278,9.8337375 C8.7278,10.0636664 8.91413865,10.2499875 9.14405,10.2499875 C9.37396135,10.2499875 9.5603,10.0636664 9.5603,9.8337375 C9.5603,9.60411231 9.37389005,9.4177375 9.14405,9.4177375 Z M4.9499625,9.4177375 C4.72026503,9.4177375 4.5337125,9.60421972 4.5337125,9.8337375 C4.5337125,10.063559 4.72019372,10.2499875 4.9499625,10.2499875 C5.17987385,10.2499875 5.3662125,10.0636664 5.3662125,9.8337375 C5.3662125,9.60411231 5.17980255,9.4177375 4.9499625,9.4177375 Z M1.95207832,0.750112067 C2.21424666,0.749636395 2.45596206,0.91230633 2.56064526,1.14834336 L2.59325038,1.24012098 L2.972,2.64 L11.3749875,2.6409875 C11.7422626,2.6409875 12.0096904,2.95341242 11.9672177,3.30389549 L11.9500217,3.39215036 L10.75685,7.80386053 C10.6886156,8.05675719 10.4685286,8.24751813 10.213523,8.28678727 L10.1164875,8.2942375 L3.9741125,8.2942375 C3.7123999,8.2942375 3.47103637,8.13183417 3.36634864,7.89595444 L3.33372462,7.80422902 L1.695,1.75 L0.500288675,1.75098741 L0.499686325,0.750987591 L1.95207832,0.750112067 Z M10.846,3.64 L3.242,3.64 L4.231,7.294 L9.858,7.294 L10.846,3.64 Z"/>
  </defs>
  <g fill="none" fill-rule="evenodd">
    <mask id="cart12px-b" fill="#fff">
      <use xlink:href="#cart12px-a"/>
    </mask>
    <use fill="#000" fill-rule="nonzero" xlink:href="#cart12px-a"/>
    <g fill="#000" mask="url(#cart12px-b)">
      <rect width="12" height="12"/>
    </g>
  </g>
</svg>
