<?xml version="1.0" encoding="UTF-8"?>
<svg width="12px" height="12px" viewBox="0 0 12 12" version="1.1" xmlns="http://www.w3.org/2000/svg" xmlns:xlink="http://www.w3.org/1999/xlink">
    <title>9A3EF44D-226C-46DD-9094-DAA99FE43FF5@1x</title>
    <g id="Page-1" stroke="none" stroke-width="1" fill="none" fill-rule="evenodd">
        <g id="Icons---Samsung.com" transform="translate(-1197.000000, -658.000000)" fill="#000000" fill-rule="nonzero">
            <g id="Kebab12px" transform="translate(1197.000000, 658.000000)">
                <g id="Icon-Kebab12px" transform="translate(5.000000, 2.000000)">
                    <path id="delete12px-a" d="M1,2 C1.55,2 2,1.55 2,1 C2,0.45 1.55,0 1,0 C0.45,0 0,0.45 0,1 C0,1.55 0.45,2 1,2 Z M1,3 C0.45,3 0,3.45 0,4 C0,4.55 0.45,5 1,5 C1.55,5 2,4.55 2,4 C2,3.45 1.55,3 1,3 Z M1,6 C0.45,6 0,6.45 0,7 C0,7.55 0.45,8 1,8 C1.55,8 2,7.55 2,7 C2,6.45 1.55,6 1,6 Z"></path>
                </g>
            </g>
        </g>
    </g>
</svg>