<?xml version="1.0" encoding="UTF-8"?>
<svg width="12px" height="12px" viewBox="0 0 12 12" version="1.1" xmlns="http://www.w3.org/2000/svg" xmlns:xlink="http://www.w3.org/1999/xlink">
    <title>Notification/Notification12px</title>
    <defs>
        <path d="M10.875,0.5 C11.2201424,0.5 11.5,0.779857625 11.5,1.125 L11.5,1.125 L11.5,8.375 C11.5,8.72014237 11.2201424,9 10.875,9 L10.875,9 L5.066,9 L2.97982255,11.1022797 C2.68632763,11.3978931 2.19604447,11.2236143 2.13197781,10.8361887 L2.13197781,10.8361887 L2.125,10.75 L2.125,9 L1.125,9 C0.811234205,9 0.551422748,8.76871271 0.506777407,8.4673499 L0.506777407,8.4673499 L0.5,8.375 L0.5,1.125 C0.5,0.779857625 0.779857625,0.5 1.125,0.5 L1.125,0.5 Z M10.5,1.5 L1.5,1.5 L1.5,8 L2.625,8 C2.87045989,8 3.07460837,8.17687516 3.11694433,8.41012437 L3.11694433,8.41012437 L3.125,8.5 L3.125,9.536 L4.50405245,8.14772034 C4.57914801,8.07208271 4.67590898,8.02292427 4.77982405,8.0062864 L4.77982405,8.0062864 L4.858875,8 L10.5,8 L10.5,1.5 Z M6,5.8 C6.3315,5.8 6.6,6.0688 6.6,6.4 C6.6,6.73165 6.3315,7 6,7 C5.66865,7 5.4,6.73165 5.4,6.4 C5.4,6.0688 5.66865,5.8 6,5.8 Z M6.5,2.5 L6.5,5 L5.5,5 L5.5,2.5 L6.5,2.5 Z" id="path-1"></path>
    </defs>
    <g id="Notification/Notification12px" stroke="none" stroke-width="1" fill="none" fill-rule="evenodd">
        <mask id="mask-2" fill="white">
            <use xlink:href="#path-1"></use>
        </mask>
        <use id="Combined-Shape" fill="#000000" fill-rule="nonzero" xlink:href="#path-1"></use>
        <g id="Group" mask="url(#mask-2)" fill="#000000">
            <g id="color">
                <rect id="colors/main/black" x="0" y="0" width="12" height="12"></rect>
            </g>
        </g>
    </g>
</svg>