<?xml version="1.0" encoding="UTF-8"?>
<svg width="12px" height="12px" viewBox="0 0 12 12" version="1.1" xmlns="http://www.w3.org/2000/svg" xmlns:xlink="http://www.w3.org/1999/xlink">
    <title>Settings/Settings12px</title>
    <defs>
        <path d="M7.10305,0.1249375 C7.40007538,0.1249375 7.66949697,0.333992004 7.74351985,0.621438522 L7.74351985,0.621438522 L8.1077796,2.0369375 L8.3647796,2.1869375 L9.7669471,1.79661124 C10.0215551,1.72551317 10.2996638,1.81977992 10.4623165,2.02264664 L10.4623165,2.02264664 L10.5176278,2.10370141 L11.6212361,4.02301481 C11.7685094,4.27939926 11.7228427,4.61576623 11.5121581,4.82429434 L11.5121581,4.82429434 L10.4687796,5.8529375 L10.4687796,6.1469375 L11.512321,7.17599136 C11.6965277,7.35784252 11.7545642,7.63833833 11.6674196,7.8775767 L11.6674196,7.8775767 L11.6211278,7.97717359 L10.5177361,9.89611019 C10.3696232,10.1539563 10.0535069,10.2835342 9.76723886,10.2035951 L9.76723886,10.2035951 L8.3647796,9.8119375 L8.1077796,9.9609375 L7.74350253,11.3786288 C7.67771168,11.6341086 7.4575033,11.8275472 7.20088366,11.8673795 L7.20088366,11.8673795 L7.103175,11.8749375 L4.8968,11.8749375 C4.59993657,11.8749375 4.33048718,11.6660435 4.25645765,11.3785712 L4.25645765,11.3785712 L3.8917796,9.9619375 L3.6347796,9.8129375 L2.23326367,10.2034479 C1.97852094,10.274718 1.70037607,10.1801777 1.53777308,9.97734567 L1.53777308,9.97734567 L1.48248435,9.89631981 L0.378738876,7.97698519 C0.23129098,7.7202967 0.277205838,7.38334089 0.48794186,7.17583066 L0.48794186,7.17583066 L1.5297796,6.1469375 L1.5297796,5.8519375 L0.487773122,4.82412784 C0.303526881,4.64223168 0.24538978,4.36174632 0.332552195,4.12243758 L0.332552195,4.12243758 L0.378859354,4.02280519 L1.48236388,2.10388981 C1.63053919,1.84593497 1.94680422,1.71653347 2.23274658,1.79653277 L2.23274658,1.79653277 L3.6337796,2.1869375 L3.8917796,2.0379375 L4.25659747,0.621371247 C4.32236371,0.365987002 4.54250316,0.172375244 4.79918607,0.132503301 L4.79918607,0.132503301 L4.896925,0.1249375 Z M6.8407796,1.1249375 L5.1587796,1.1249375 L4.83750253,2.37587875 C4.79381117,2.54554158 4.67851983,2.71019294 4.54462305,2.81055977 L4.54462305,2.81055977 L4.46247627,2.86259154 L4.08653323,3.08025415 C3.90853591,3.19481831 3.65960894,3.23229527 3.45610342,3.17546723 L3.45610342,3.17546723 L2.2177796,2.8299375 L1.3757796,4.2949375 L2.295071,5.20211636 C2.41695175,5.32243853 2.50176413,5.50056903 2.5245334,5.67035007 L2.5245334,5.67035007 L2.53055,5.7706875 L2.53046768,6.22023958 C2.53419894,6.42583212 2.44146204,6.6531158 2.29490814,6.79816934 L2.29490814,6.79816934 L1.3757796,7.7049375 L2.2177796,9.1689375 L3.4559471,8.82473624 C3.62576947,8.77731414 3.82693914,8.79543613 3.98100279,8.86219004 L3.98100279,8.86219004 L4.06716063,8.90794292 L4.44298727,9.12679089 C4.62959308,9.22430008 4.78516747,9.4206359 4.83751735,9.62430381 L4.83751735,9.62430381 L5.1587796,10.8739375 L6.8407796,10.8739375 L7.16241601,9.62446568 C7.20605496,9.45468788 7.32136843,9.29012689 7.4553174,9.18965495 L7.4553174,9.18965495 L7.53749873,9.13753346 L7.913028,8.92013745 C8.09102939,8.8053227 8.34014521,8.76780296 8.54373614,8.82465486 L8.54373614,8.82465486 L9.7807796,9.1689375 L10.6237796,7.7039375 L9.70502312,6.79800284 C9.58318509,6.67771886 9.49851743,6.49993197 9.47558194,6.32988786 L9.47558194,6.32988786 L9.469425,6.2293125 L9.46949193,5.77886822 C9.46613049,5.57344679 9.55895119,5.34595771 9.70519186,5.20195566 L9.70519186,5.20195566 L10.6237796,4.2949375 L9.7807796,2.8299375 L8.5441529,3.17538876 C8.37425066,3.22283316 8.17293652,3.20468518 8.01913272,3.13797113 L8.01913272,3.13797113 L7.93318306,3.09225099 L7.55661448,2.87313887 C7.37041497,2.77564221 7.21487717,2.57937732 7.16245515,2.37581148 L7.16245515,2.37581148 L6.8407796,1.1249375 Z M5.9999125,3.25 C7.51875763,3.25 8.7499125,4.48106038 8.7499125,6 C8.7499125,7.51893962 7.51875763,8.75 5.9999125,8.75 C4.48106737,8.75 3.2499125,7.51893962 3.2499125,6 C3.2499125,4.48106038 4.48106737,3.25 5.9999125,3.25 Z M5.9999125,4.25 C5.03333494,4.25 4.2499125,5.03336231 4.2499125,6 C4.2499125,6.96663769 5.03333494,7.75 5.9999125,7.75 C6.96649006,7.75 7.7499125,6.96663769 7.7499125,6 C7.7499125,5.03336231 6.96649006,4.25 5.9999125,4.25 Z" id="path-1"></path>
    </defs>
    <g id="Settings/Settings12px" stroke="none" stroke-width="1" fill="none" fill-rule="evenodd">
        <mask id="mask-2" fill="white">
            <use xlink:href="#path-1"></use>
        </mask>
        <use id="Combined-Shape" fill="#000000" fill-rule="nonzero" xlink:href="#path-1"></use>
        <g id="Group" mask="url(#mask-2)" fill="#000000">
            <g id="color">
                <rect id="colors/main/black" x="0" y="0" width="12" height="12"></rect>
            </g>
        </g>
    </g>
</svg>