<?xml version="1.0" encoding="UTF-8"?>
<svg xmlns="http://www.w3.org/2000/svg" xmlns:xlink="http://www.w3.org/1999/xlink" version="1.2" >
<font id="SamsungOneLatinCompact-800">
<font-face  font-family="SamsungOneLatinCompact" units-per-em="1024" ascent="794" descent="-230" font-style="normal" font-weight="800" font-stretch="normal" cap-height="724" x-height="546" underline-position="-123" underline-thickness="41" />
<missing-glyph  horiz-adv-x="694" d="M616 0 L503 0 L140 0 L78 0 L78 724 L191 724 L616 724 L616 0 Z M503 622 L239 622 L503 187 L503 622 Z M191 102 L455 102 L191 537 L191 102 Z " />
<glyph glyph-name="nonmarkingreturn" unicode="&#xd;" d="" />
<glyph glyph-name="space" unicode="&#x20;" horiz-adv-x="204" d="" />
<glyph glyph-name="A" unicode="A" horiz-adv-x="670" d="M463 156 L205 156 L159 0 L15 0 L260 724 L410 724 L655 0 L510 0 L463 156 Z M428 276 L334 591 L241 276 L428 276 Z " />
<glyph glyph-name="Aacute" unicode="&#xc1;" horiz-adv-x="670" d="M363 781 L249 781 L249 793 L394 926 L545 926 L545 914 L363 781 Z M463 156 L205 156 L159 0 L15 0 L260 724 L410 724 L655 0 L510 0 L463 156 Z M428 276 L334 591 L241 276 L428 276 Z " />
<glyph glyph-name="Abreve" unicode="&#x102;" horiz-adv-x="670" d="M335 780 Q260 780 218 823.5 Q176 867 173 950 L251 950 Q261 877 336 877 Q412 877 422 950 L497 950 Q494 867 452 823.5 Q410 780 335 780 Z M463 156 L205 156 L159 0 L15 0 L260 724 L410 724 L655 0 L510 0 L463 156 Z M428 276 L334 591 L241 276 L428 276 Z " />
<glyph glyph-name="uni1EAE" unicode="&#x1eae;" horiz-adv-x="670" d="M376 900 L286 900 L286 910 L359 1037 L478 1037 L478 1027 L376 900 Z M335 760 Q262 760 220.5 796.5 Q179 833 175 900 L241 900 Q251 836 336 836 Q422 836 432 900 L495 900 Q491 833 449.5 796.5 Q408 760 335 760 Z M463 156 L205 156 L159 0 L15 0 L260 724 L410 724 L655 0 L510 0 L463 156 Z M428 276 L334 591 L241 276 L428 276 Z " />
<glyph glyph-name="uni1EB6" unicode="&#x1eb6;" horiz-adv-x="670" d="M335 780 Q260 780 218 823.5 Q176 867 173 950 L251 950 Q261 877 336 877 Q412 877 422 950 L497 950 Q494 867 452 823.5 Q410 780 335 780 Z M510 0 L463 156 L205 156 L159 0 L15 0 L260 724 L410 724 L655 0 L510 0 Z M428 276 L334 591 L241 276 L428 276 Z M336 -73 Q374 -73 395.5 -93.5 Q417 -114 417 -150 Q417 -187 395.5 -207.5 Q374 -228 336 -228 Q298 -228 276.5 -207.5 Q255 -187 255 -151 Q255 -114 276.5 -93.5 Q298 -73 336 -73 Z " />
<glyph glyph-name="uni1EB0" unicode="&#x1eb0;" horiz-adv-x="670" d="M294 900 L198 1027 L198 1037 L317 1037 L384 910 L384 900 L294 900 Z M335 760 Q262 760 220.5 796.5 Q179 833 175 900 L241 900 Q251 836 336 836 Q422 836 432 900 L495 900 Q491 833 449.5 796.5 Q408 760 335 760 Z M463 156 L205 156 L159 0 L15 0 L260 724 L410 724 L655 0 L510 0 L463 156 Z M428 276 L334 591 L241 276 L428 276 Z " />
<glyph glyph-name="uni1EB2" unicode="&#x1eb2;" horiz-adv-x="670" d="M318 980 Q298 980 268 965 L243 1020 Q263 1032 289.5 1039 Q316 1046 343 1046 Q387 1046 411 1027.5 Q435 1009 435 976 Q435 952 424.5 941 Q414 930 396 923 Q385 918 379.5 913.5 Q374 909 374 902 Q374 895 375 890 L295 890 Q293 900 293 905 Q293 923 300.5 931.5 Q308 940 322 948 Q330 953 334.5 957 Q339 961 339 967 Q339 980 318 980 Z M335 760 Q262 760 220.5 796.5 Q179 833 175 900 L241 900 Q251 836 336 836 Q422 836 432 900 L495 900 Q491 833 449.5 796.5 Q408 760 335 760 Z M463 156 L205 156 L159 0 L15 0 L260 724 L410 724 L655 0 L510 0 L463 156 Z M428 276 L334 591 L241 276 L428 276 Z " />
<glyph glyph-name="uni1EB4" unicode="&#x1eb4;" horiz-adv-x="670" d="M271 968 Q234 968 229 923 L166 923 Q166 982 194 1014 Q222 1046 274 1046 Q301 1046 317.5 1038.5 Q334 1031 353 1018 Q366 1008 376 1003.5 Q386 999 399 999 Q437 999 441 1044 L504 1044 Q504 985 476 953 Q448 921 396 921 Q369 921 352.5 928.5 Q336 936 317 949 Q304 959 294 963.5 Q284 968 271 968 Z M336 836 Q422 836 432 900 L495 900 Q491 833 449.5 796.5 Q408 760 335 760 Q262 760 220.5 796.5 Q179 833 175 900 L241 900 Q251 836 336 836 Z M463 156 L205 156 L159 0 L15 0 L260 724 L410 724 L655 0 L510 0 L463 156 Z M428 276 L334 591 L241 276 L428 276 Z " />
<glyph glyph-name="uni01CD" unicode="&#x1cd;" horiz-adv-x="670" d="M270 781 L153 914 L153 926 L254 926 L337 850 L419 926 L517 926 L517 914 L400 781 L270 781 Z M463 156 L205 156 L159 0 L15 0 L260 724 L410 724 L655 0 L510 0 L463 156 Z M428 276 L334 591 L241 276 L428 276 Z " />
<glyph glyph-name="Acircumflex" unicode="&#xc2;" horiz-adv-x="670" d="M251 781 L153 781 L153 793 L270 926 L400 926 L517 793 L517 781 L416 781 L333 857 L251 781 Z M463 156 L205 156 L159 0 L15 0 L260 724 L410 724 L655 0 L510 0 L463 156 Z M428 276 L334 591 L241 276 L428 276 Z " />
<glyph glyph-name="uni1EA4" unicode="&#x1ea4;" horiz-adv-x="670" d="M550 896 L460 896 L460 906 L533 1033 L652 1033 L652 1023 L550 896 Z M261 785 L169 785 L169 795 L273 934 L397 934 L501 795 L501 785 L406 785 L333 862 L261 785 Z M463 156 L205 156 L159 0 L15 0 L260 724 L410 724 L655 0 L510 0 L463 156 Z M428 276 L334 591 L241 276 L428 276 Z " />
<glyph glyph-name="uni1EAC" unicode="&#x1eac;" horiz-adv-x="670" d="M251 781 L153 781 L153 793 L270 926 L400 926 L517 793 L517 781 L416 781 L333 857 L251 781 Z M510 0 L463 156 L205 156 L159 0 L15 0 L260 724 L410 724 L655 0 L510 0 Z M428 276 L334 591 L241 276 L428 276 Z M336 -73 Q374 -73 395.5 -93.5 Q417 -114 417 -150 Q417 -187 395.5 -207.5 Q374 -228 336 -228 Q298 -228 276.5 -207.5 Q255 -187 255 -151 Q255 -114 276.5 -93.5 Q298 -73 336 -73 Z " />
<glyph glyph-name="uni1EA6" unicode="&#x1ea6;" horiz-adv-x="670" d="M120 896 L24 1023 L24 1033 L143 1033 L210 906 L210 896 L120 896 Z M169 795 L273 934 L397 934 L501 795 L501 785 L406 785 L333 862 L261 785 L169 785 L169 795 Z M463 156 L205 156 L159 0 L15 0 L260 724 L410 724 L655 0 L510 0 L463 156 Z M428 276 L334 591 L241 276 L428 276 Z " />
<glyph glyph-name="uni1EA8" unicode="&#x1ea8;" horiz-adv-x="670" d="M492 976 Q472 976 442 961 L417 1016 Q437 1028 463.5 1035 Q490 1042 517 1042 Q561 1042 585 1023.5 Q609 1005 609 972 Q609 948 598.5 937 Q588 926 570 919 Q559 914 553.5 909.5 Q548 905 548 898 Q548 891 549 886 L469 886 Q467 896 467 901 Q467 919 474.5 927.5 Q482 936 496 944 Q504 949 508.5 953 Q513 957 513 963 Q513 976 492 976 Z M261 785 L169 785 L169 795 L273 934 L397 934 L501 795 L501 785 L406 785 L333 862 L261 785 Z M463 156 L205 156 L159 0 L15 0 L260 724 L410 724 L655 0 L510 0 L463 156 Z M428 276 L334 591 L241 276 L428 276 Z " />
<glyph glyph-name="uni1EAA" unicode="&#x1eaa;" horiz-adv-x="670" d="M271 968 Q234 968 229 923 L166 923 Q166 982 194 1014 Q222 1046 274 1046 Q301 1046 317.5 1038.5 Q334 1031 353 1018 Q366 1008 376 1003.5 Q386 999 399 999 Q437 999 441 1044 L504 1044 Q504 985 476 953 Q448 921 396 921 Q369 921 352.5 928.5 Q336 936 317 949 Q304 959 294 963.5 Q284 968 271 968 Z M395 896 L501 775 L501 765 L412 765 L334 833 L255 765 L169 765 L169 775 L275 896 L395 896 Z M463 156 L205 156 L159 0 L15 0 L260 724 L410 724 L655 0 L510 0 L463 156 Z M428 276 L334 591 L241 276 L428 276 Z " />
<glyph glyph-name="Adieresis" unicode="&#xc4;" horiz-adv-x="670" d="M231 772 Q197 772 178 791 Q159 810 159 842 Q159 876 178 895 Q197 914 231 914 Q265 914 284.5 895 Q304 876 304 843 Q304 809 285 790.5 Q266 772 231 772 Z M438 772 Q404 772 385 791 Q366 810 366 842 Q366 876 385 895 Q404 914 438 914 Q472 914 491.5 895 Q511 876 511 843 Q511 809 492 790.5 Q473 772 438 772 Z M463 156 L205 156 L159 0 L15 0 L260 724 L410 724 L655 0 L510 0 L463 156 Z M428 276 L334 591 L241 276 L428 276 Z " />
<glyph glyph-name="uni1EA0" unicode="&#x1ea0;" horiz-adv-x="670" d="M463 156 L205 156 L159 0 L15 0 L260 724 L410 724 L655 0 L510 0 L463 156 Z M428 276 L334 591 L241 276 L428 276 Z M336 -228 Q298 -228 276.5 -207.5 Q255 -187 255 -151 Q255 -114 276.5 -93.5 Q298 -73 336 -73 Q374 -73 395.5 -93.5 Q417 -114 417 -150 Q417 -187 395.5 -207.5 Q374 -228 336 -228 Z " />
<glyph glyph-name="Agrave" unicode="&#xc0;" horiz-adv-x="670" d="M306 781 L133 914 L133 926 L284 926 L420 793 L420 781 L306 781 Z M463 156 L205 156 L159 0 L15 0 L260 724 L410 724 L655 0 L510 0 L463 156 Z M428 276 L334 591 L241 276 L428 276 Z " />
<glyph glyph-name="uni1EA2" unicode="&#x1ea2;" horiz-adv-x="670" d="M319 881 Q291 881 251 861 L221 925 Q246 941 279 950 Q312 959 347 959 Q399 959 427.5 939 Q456 919 456 883 Q456 855 442.5 842 Q429 829 406 821 Q392 815 386 810.5 Q380 806 380 798 L382 781 L288 781 Q286 793 286 803 Q286 822 295.5 831.5 Q305 841 322 850 Q332 854 337 858.5 Q342 863 342 869 Q342 881 319 881 Z M463 156 L205 156 L159 0 L15 0 L260 724 L410 724 L655 0 L510 0 L463 156 Z M428 276 L334 591 L241 276 L428 276 Z " />
<glyph glyph-name="Amacron" unicode="&#x100;" horiz-adv-x="670" d="M499 806 L171 806 L171 898 L499 898 L499 806 Z M463 156 L205 156 L159 0 L15 0 L260 724 L410 724 L655 0 L510 0 L463 156 Z M428 276 L334 591 L241 276 L428 276 Z " />
<glyph glyph-name="Aogonek" unicode="&#x104;" horiz-adv-x="670" d="M706 -199 Q682 -214 651 -222 Q620 -230 588 -230 Q529 -230 496 -203 Q463 -176 463 -127 Q463 -87 485.5 -54 Q508 -21 549 0 L510 0 L463 156 L205 156 L159 0 L15 0 L260 724 L410 724 L655 0 Q574 -48 574 -102 Q574 -142 620 -142 Q647 -142 676 -129 L706 -199 Z M428 276 L334 591 L241 276 L428 276 Z " />
<glyph glyph-name="Aring" unicode="&#xc5;" horiz-adv-x="670" d="M335 765 Q270 765 234 796.5 Q198 828 198 885 Q198 942 234 973.5 Q270 1005 335 1005 Q400 1005 436 973.5 Q472 942 472 885 Q472 828 436 796.5 Q400 765 335 765 Z M335 939 Q282 939 282 885 Q282 831 335 831 Q388 831 388 885 Q388 939 335 939 Z M463 156 L205 156 L159 0 L15 0 L260 724 L410 724 L655 0 L510 0 L463 156 Z M428 276 L334 591 L241 276 L428 276 Z " />
<glyph glyph-name="Atilde" unicode="&#xc3;" horiz-adv-x="670" d="M264 842 Q231 842 225 787 L150 787 Q151 858 181 897.5 Q211 937 264 937 Q291 937 310.5 928 Q330 919 356 902 Q371 891 382.5 885.5 Q394 880 406 880 Q439 880 445 935 L520 935 Q519 864 489 824.5 Q459 785 406 785 Q379 785 359.5 794 Q340 803 314 820 Q299 831 287.5 836.5 Q276 842 264 842 Z M463 156 L205 156 L159 0 L15 0 L260 724 L410 724 L655 0 L510 0 L463 156 Z M428 276 L334 591 L241 276 L428 276 Z " />
<glyph glyph-name="AE" unicode="&#xc6;" horiz-adv-x="932" d="M902 123 L902 0 L450 0 L450 147 L213 147 L140 0 L-6 0 L363 724 L501 724 L888 724 L888 601 L584 601 L584 432 L804 432 L804 308 L584 308 L584 123 L902 123 Z M450 267 L450 622 L273 267 L450 267 Z " />
<glyph glyph-name="B" unicode="B" horiz-adv-x="648" d="M476 382 Q610 342 610 218 Q610 114 547.5 57 Q485 0 372 0 L153 0 L78 0 L78 724 L215 724 L339 724 Q449 724 509 670 Q569 616 569 517 Q569 417 476 382 Z M215 602 L215 429 L339 429 Q429 429 429 514 Q429 602 332 602 L215 602 Z M379 122 Q469 122 469 215 Q469 311 372 311 L215 311 L215 122 L379 122 Z " />
<glyph glyph-name="C" unicode="C" horiz-adv-x="603" d="M373 -12 Q214 -12 126 82 Q38 176 38 347 Q38 467 78 555 Q118 643 192.5 690 Q267 737 368 737 Q424 737 478 722 Q532 707 571 679 L524 574 Q446 613 366 613 Q277 613 228.5 546 Q180 479 180 357 Q180 114 379 114 Q471 114 530 149 L577 45 Q544 18 490 3 Q436 -12 373 -12 Z " />
<glyph glyph-name="Cacute" unicode="&#x106;" horiz-adv-x="603" d="M266 793 L411 926 L562 926 L562 914 L380 781 L266 781 L266 793 Z M373 -12 Q214 -12 126 82 Q38 176 38 347 Q38 467 78 555 Q118 643 192.5 690 Q267 737 368 737 Q424 737 478 722 Q532 707 571 679 L524 574 Q446 613 366 613 Q277 613 228.5 546 Q180 479 180 357 Q180 114 379 114 Q471 114 530 149 L577 45 Q544 18 490 3 Q436 -12 373 -12 Z " />
<glyph glyph-name="Ccaron" unicode="&#x10c;" horiz-adv-x="603" d="M287 781 L170 914 L170 926 L271 926 L354 850 L436 926 L534 926 L534 914 L417 781 L287 781 Z M577 45 Q544 18 490 3 Q436 -12 373 -12 Q214 -12 126 82 Q38 176 38 347 Q38 467 78 555 Q118 643 192.5 690 Q267 737 368 737 Q424 737 478 722 Q532 707 571 679 L524 574 Q446 613 366 613 Q277 613 228.5 546 Q180 479 180 357 Q180 114 379 114 Q471 114 530 149 L577 45 Z " />
<glyph glyph-name="Ccedilla" unicode="&#xc7;" horiz-adv-x="603" d="M371 -49 Q425 -49 454.5 -71.5 Q484 -94 484 -135 Q484 -185 448 -212.5 Q412 -240 346 -240 Q278 -240 224 -214 L245 -152 Q298 -169 331 -169 Q380 -169 380 -138 Q380 -109 337 -109 Q316 -109 298 -116 L268 -82 L299 -6 Q174 15 106 106.5 Q38 198 38 347 Q38 467 78 555 Q118 643 192.5 690 Q267 737 368 737 Q424 737 478 722 Q532 707 571 679 L524 574 Q446 613 366 613 Q277 613 228.5 546 Q180 479 180 357 Q180 114 379 114 Q471 114 530 149 L577 45 Q545 19 493 4 Q441 -11 379 -12 L350 -51 Q364 -49 371 -49 Z " />
<glyph glyph-name="Ccircumflex" unicode="&#x108;" horiz-adv-x="603" d="M268 781 L170 781 L170 793 L287 926 L417 926 L534 793 L534 781 L433 781 L350 857 L268 781 Z M577 45 Q544 18 490 3 Q436 -12 373 -12 Q214 -12 126 82 Q38 176 38 347 Q38 467 78 555 Q118 643 192.5 690 Q267 737 368 737 Q424 737 478 722 Q532 707 571 679 L524 574 Q446 613 366 613 Q277 613 228.5 546 Q180 479 180 357 Q180 114 379 114 Q471 114 530 149 L577 45 Z " />
<glyph glyph-name="Cdotaccent" unicode="&#x10a;" horiz-adv-x="603" d="M352 776 Q314 776 292.5 796.5 Q271 817 271 853 Q271 890 292.5 910.5 Q314 931 352 931 Q390 931 411.5 910.5 Q433 890 433 854 Q433 817 411.5 796.5 Q390 776 352 776 Z M373 -12 Q214 -12 126 82 Q38 176 38 347 Q38 467 78 555 Q118 643 192.5 690 Q267 737 368 737 Q424 737 478 722 Q532 707 571 679 L524 574 Q446 613 366 613 Q277 613 228.5 546 Q180 479 180 357 Q180 114 379 114 Q471 114 530 149 L577 45 Q544 18 490 3 Q436 -12 373 -12 Z " />
<glyph glyph-name="D" unicode="D" horiz-adv-x="693" d="M318 724 Q478 724 561.5 633 Q645 542 645 363 Q645 182 561.5 91 Q478 0 318 0 L78 0 L78 724 L318 724 Z M314 123 Q503 123 503 363 Q503 601 315 601 L216 601 L216 123 L314 123 Z " />
<glyph glyph-name="Eth" unicode="&#xd0;" horiz-adv-x="694" d="M319 724 Q479 724 562.5 633 Q646 542 646 363 Q646 182 562.5 91 Q479 0 319 0 L79 0 L79 314 L15 314 L15 419 L79 419 L79 724 L319 724 Z M315 123 Q504 123 504 363 Q504 601 316 601 L217 601 L217 419 L370 419 L370 314 L217 314 L217 123 L315 123 Z " />
<glyph glyph-name="Dcaron" unicode="&#x10e;" horiz-adv-x="693" d="M275 781 L158 914 L158 926 L259 926 L342 850 L424 926 L522 926 L522 914 L405 781 L275 781 Z M318 724 Q478 724 561.5 633 Q645 542 645 363 Q645 182 561.5 91 Q478 0 318 0 L78 0 L78 724 L318 724 Z M314 123 Q503 123 503 363 Q503 601 315 601 L216 601 L216 123 L314 123 Z " />
<glyph glyph-name="Dcroat" unicode="&#x110;" horiz-adv-x="694" d="M319 724 Q479 724 562.5 633 Q646 542 646 363 Q646 182 562.5 91 Q479 0 319 0 L79 0 L79 314 L15 314 L15 419 L79 419 L79 724 L319 724 Z M315 123 Q504 123 504 363 Q504 601 316 601 L217 601 L217 419 L370 419 L370 314 L217 314 L217 123 L315 123 Z " />
<glyph glyph-name="uni1E0C" unicode="&#x1e0c;" horiz-adv-x="693" d="M318 724 Q478 724 561.5 633 Q645 542 645 363 Q645 182 561.5 91 Q478 0 318 0 L78 0 L78 724 L318 724 Z M314 123 Q503 123 503 363 Q503 601 315 601 L216 601 L216 123 L314 123 Z M336 -228 Q298 -228 276.5 -207.5 Q255 -187 255 -151 Q255 -114 276.5 -93.5 Q298 -73 336 -73 Q374 -73 395.5 -93.5 Q417 -114 417 -150 Q417 -187 395.5 -207.5 Q374 -228 336 -228 Z " />
<glyph glyph-name="uni1E0E" unicode="&#x1e0e;" horiz-adv-x="693" d="M318 724 Q478 724 561.5 633 Q645 542 645 363 Q645 182 561.5 91 Q478 0 318 0 L78 0 L78 724 L318 724 Z M314 123 Q503 123 503 363 Q503 601 315 601 L216 601 L216 123 L314 123 Z M172 -96 L500 -96 L500 -188 L172 -188 L172 -96 Z " />
<glyph glyph-name="E" unicode="E" horiz-adv-x="578" d="M548 123 L548 0 L78 0 L78 724 L534 724 L534 601 L216 601 L216 432 L450 432 L450 308 L216 308 L216 123 L548 123 Z " />
<glyph glyph-name="Eacute" unicode="&#xc9;" horiz-adv-x="578" d="M333 781 L219 781 L219 793 L364 926 L515 926 L515 914 L333 781 Z M548 123 L548 0 L78 0 L78 724 L534 724 L534 601 L216 601 L216 432 L450 432 L450 308 L216 308 L216 123 L548 123 Z " />
<glyph glyph-name="Ebreve" unicode="&#x114;" horiz-adv-x="578" d="M305 780 Q230 780 188 823.5 Q146 867 143 950 L221 950 Q231 877 306 877 Q382 877 392 950 L467 950 Q464 867 422 823.5 Q380 780 305 780 Z M548 123 L548 0 L78 0 L78 724 L534 724 L534 601 L216 601 L216 432 L450 432 L450 308 L216 308 L216 123 L548 123 Z " />
<glyph glyph-name="Ecaron" unicode="&#x11a;" horiz-adv-x="578" d="M240 781 L123 914 L123 926 L224 926 L307 850 L389 926 L487 926 L487 914 L370 781 L240 781 Z M548 123 L548 0 L78 0 L78 724 L534 724 L534 601 L216 601 L216 432 L450 432 L450 308 L216 308 L216 123 L548 123 Z " />
<glyph glyph-name="Ecircumflex" unicode="&#xca;" horiz-adv-x="578" d="M221 781 L123 781 L123 793 L240 926 L370 926 L487 793 L487 781 L386 781 L303 857 L221 781 Z M548 123 L548 0 L78 0 L78 724 L534 724 L534 601 L216 601 L216 432 L450 432 L450 308 L216 308 L216 123 L548 123 Z " />
<glyph glyph-name="uni1EBE" unicode="&#x1ebe;" horiz-adv-x="578" d="M622 1033 L622 1023 L520 896 L430 896 L430 906 L503 1033 L622 1033 Z M231 785 L139 785 L139 795 L243 934 L367 934 L471 795 L471 785 L376 785 L303 862 L231 785 Z M216 123 L548 123 L548 0 L78 0 L78 724 L534 724 L534 601 L216 601 L216 432 L450 432 L450 308 L216 308 L216 123 Z " />
<glyph glyph-name="uni1EC6" unicode="&#x1ec6;" horiz-adv-x="578" d="M221 781 L123 781 L123 793 L240 926 L370 926 L487 793 L487 781 L386 781 L303 857 L221 781 Z M548 123 L548 0 L78 0 L78 724 L534 724 L534 601 L216 601 L216 432 L450 432 L450 308 L216 308 L216 123 L548 123 Z M316 -73 Q354 -73 375.5 -93.5 Q397 -114 397 -150 Q397 -187 375.5 -207.5 Q354 -228 316 -228 Q278 -228 256.5 -207.5 Q235 -187 235 -151 Q235 -114 256.5 -93.5 Q278 -73 316 -73 Z " />
<glyph glyph-name="uni1EC0" unicode="&#x1ec0;" horiz-adv-x="578" d="M90 896 L-6 1023 L-6 1033 L113 1033 L180 906 L180 896 L90 896 Z M139 795 L243 934 L367 934 L471 795 L471 785 L376 785 L303 862 L231 785 L139 785 L139 795 Z M548 123 L548 0 L78 0 L78 724 L534 724 L534 601 L216 601 L216 432 L450 432 L450 308 L216 308 L216 123 L548 123 Z " />
<glyph glyph-name="uni1EC2" unicode="&#x1ec2;" horiz-adv-x="578" d="M487 1042 Q531 1042 555 1023.5 Q579 1005 579 972 Q579 948 568.5 937 Q558 926 540 919 Q529 914 523.5 909.5 Q518 905 518 898 Q518 891 519 886 L439 886 Q437 896 437 901 Q437 919 444.5 927.5 Q452 936 466 944 Q474 949 478.5 953 Q483 957 483 963 Q483 976 462 976 Q442 976 412 961 L387 1016 Q407 1028 433.5 1035 Q460 1042 487 1042 Z M231 785 L139 785 L139 795 L243 934 L367 934 L471 795 L471 785 L376 785 L303 862 L231 785 Z M216 123 L548 123 L548 0 L78 0 L78 724 L534 724 L534 601 L216 601 L216 432 L450 432 L450 308 L216 308 L216 123 Z " />
<glyph glyph-name="uni1EC4" unicode="&#x1ec4;" horiz-adv-x="578" d="M241 968 Q204 968 199 923 L136 923 Q136 982 164 1014 Q192 1046 244 1046 Q271 1046 287.5 1038.5 Q304 1031 323 1018 Q336 1008 346 1003.5 Q356 999 369 999 Q407 999 411 1044 L474 1044 Q474 985 446 953 Q418 921 366 921 Q339 921 322.5 928.5 Q306 936 287 949 Q274 959 264 963.5 Q254 968 241 968 Z M365 896 L471 775 L471 765 L382 765 L304 833 L225 765 L139 765 L139 775 L245 896 L365 896 Z M548 123 L548 0 L78 0 L78 724 L534 724 L534 601 L216 601 L216 432 L450 432 L450 308 L216 308 L216 123 L548 123 Z " />
<glyph glyph-name="Edieresis" unicode="&#xcb;" horiz-adv-x="578" d="M201 772 Q167 772 148 791 Q129 810 129 842 Q129 876 148 895 Q167 914 201 914 Q235 914 254.5 895 Q274 876 274 843 Q274 809 255 790.5 Q236 772 201 772 Z M408 772 Q374 772 355 791 Q336 810 336 842 Q336 876 355 895 Q374 914 408 914 Q442 914 461.5 895 Q481 876 481 843 Q481 809 462 790.5 Q443 772 408 772 Z M548 123 L548 0 L78 0 L78 724 L534 724 L534 601 L216 601 L216 432 L450 432 L450 308 L216 308 L216 123 L548 123 Z " />
<glyph glyph-name="Edotaccent" unicode="&#x116;" horiz-adv-x="578" d="M305 776 Q267 776 245.5 796.5 Q224 817 224 853 Q224 890 245.5 910.5 Q267 931 305 931 Q343 931 364.5 910.5 Q386 890 386 854 Q386 817 364.5 796.5 Q343 776 305 776 Z M548 123 L548 0 L78 0 L78 724 L534 724 L534 601 L216 601 L216 432 L450 432 L450 308 L216 308 L216 123 L548 123 Z " />
<glyph glyph-name="uni1EB8" unicode="&#x1eb8;" horiz-adv-x="578" d="M548 123 L548 0 L78 0 L78 724 L534 724 L534 601 L216 601 L216 432 L450 432 L450 308 L216 308 L216 123 L548 123 Z M316 -228 Q278 -228 256.5 -207.5 Q235 -187 235 -151 Q235 -114 256.5 -93.5 Q278 -73 316 -73 Q354 -73 375.5 -93.5 Q397 -114 397 -150 Q397 -187 375.5 -207.5 Q354 -228 316 -228 Z " />
<glyph glyph-name="Egrave" unicode="&#xc8;" horiz-adv-x="578" d="M276 781 L103 914 L103 926 L254 926 L390 793 L390 781 L276 781 Z M548 123 L548 0 L78 0 L78 724 L534 724 L534 601 L216 601 L216 432 L450 432 L450 308 L216 308 L216 123 L548 123 Z " />
<glyph glyph-name="uni1EBA" unicode="&#x1eba;" horiz-adv-x="578" d="M289 881 Q261 881 221 861 L191 925 Q216 941 249 950 Q282 959 317 959 Q369 959 397.5 939 Q426 919 426 883 Q426 855 412.5 842 Q399 829 376 821 Q362 815 356 810.5 Q350 806 350 798 L352 781 L258 781 Q256 793 256 803 Q256 822 265.5 832 Q275 842 292 850 Q302 854 307 858.5 Q312 863 312 869 Q312 881 289 881 Z M548 123 L548 0 L78 0 L78 724 L534 724 L534 601 L216 601 L216 432 L450 432 L450 308 L216 308 L216 123 L548 123 Z " />
<glyph glyph-name="Emacron" unicode="&#x112;" horiz-adv-x="578" d="M469 806 L141 806 L141 898 L469 898 L469 806 Z M548 123 L548 0 L78 0 L78 724 L534 724 L534 601 L216 601 L216 432 L450 432 L450 308 L216 308 L216 123 L548 123 Z " />
<glyph glyph-name="Eogonek" unicode="&#x118;" horiz-adv-x="578" d="M599 -199 Q575 -214 544 -222 Q513 -230 481 -230 Q422 -230 389 -203 Q356 -176 356 -127 Q356 -87 378.5 -54 Q401 -21 442 0 L78 0 L78 724 L534 724 L534 601 L216 601 L216 432 L450 432 L450 308 L216 308 L216 123 L548 123 L548 0 Q467 -48 467 -102 Q467 -142 513 -142 Q540 -142 569 -129 L599 -199 Z " />
<glyph glyph-name="uni1EBC" unicode="&#x1ebc;" horiz-adv-x="578" d="M234 842 Q201 842 195 787 L120 787 Q121 858 151 897.5 Q181 937 234 937 Q261 937 280.5 928 Q300 919 326 902 Q341 891 352.5 885.5 Q364 880 376 880 Q409 880 415 935 L490 935 Q489 864 459 824.5 Q429 785 376 785 Q349 785 329.5 794 Q310 803 284 820 Q269 831 257.5 836.5 Q246 842 234 842 Z M548 123 L548 0 L78 0 L78 724 L534 724 L534 601 L216 601 L216 432 L450 432 L450 308 L216 308 L216 123 L548 123 Z " />
<glyph glyph-name="F" unicode="F" horiz-adv-x="540" d="M216 601 L216 412 L468 412 L468 288 L216 288 L216 0 L78 0 L78 724 L526 724 L526 601 L216 601 Z " />
<glyph glyph-name="G" unicode="G" horiz-adv-x="668" d="M610 415 L610 45 Q569 17 510.5 2 Q452 -13 389 -13 Q226 -13 137 85 Q48 183 48 362 Q48 541 137 639 Q226 737 389 737 Q453 737 509 722 Q565 707 603 680 L563 570 Q469 614 387 614 Q190 614 190 362 Q190 110 389 110 Q429 110 472 120 L472 293 L353 293 L353 415 L610 415 Z " />
<glyph glyph-name="Gbreve" unicode="&#x11e;" horiz-adv-x="668" d="M361 780 Q286 780 244 823.5 Q202 867 199 950 L277 950 Q287 877 362 877 Q438 877 448 950 L523 950 Q520 867 478 823.5 Q436 780 361 780 Z M610 415 L610 45 Q569 17 510.5 2 Q452 -13 389 -13 Q226 -13 137 85 Q48 183 48 362 Q48 541 137 639 Q226 737 389 737 Q453 737 509 722 Q565 707 603 680 L563 570 Q469 614 387 614 Q190 614 190 362 Q190 110 389 110 Q429 110 472 120 L472 293 L353 293 L353 415 L610 415 Z " />
<glyph glyph-name="Gcaron" unicode="&#x1e6;" horiz-adv-x="668" d="M296 781 L179 914 L179 926 L280 926 L363 850 L445 926 L543 926 L543 914 L426 781 L296 781 Z M610 415 L610 45 Q569 17 510.5 2 Q452 -13 389 -13 Q226 -13 137 85 Q48 183 48 362 Q48 541 137 639 Q226 737 389 737 Q453 737 509 722 Q565 707 603 680 L563 570 Q469 614 387 614 Q190 614 190 362 Q190 110 389 110 Q429 110 472 120 L472 293 L353 293 L353 415 L610 415 Z " />
<glyph glyph-name="Gcircumflex" unicode="&#x11c;" horiz-adv-x="668" d="M277 781 L179 781 L179 793 L296 926 L426 926 L543 793 L543 781 L442 781 L359 857 L277 781 Z M610 415 L610 45 Q569 17 510.5 2 Q452 -13 389 -13 Q226 -13 137 85 Q48 183 48 362 Q48 541 137 639 Q226 737 389 737 Q453 737 509 722 Q565 707 603 680 L563 570 Q469 614 387 614 Q190 614 190 362 Q190 110 389 110 Q429 110 472 120 L472 293 L353 293 L353 415 L610 415 Z " />
<glyph glyph-name="Gcommaaccent" unicode="&#x122;" horiz-adv-x="668" d="M610 415 L610 45 Q569 17 510.5 2 Q452 -13 389 -13 Q226 -13 137 85 Q48 183 48 362 Q48 541 137 639 Q226 737 389 737 Q453 737 509 722 Q565 707 603 680 L563 570 Q469 614 387 614 Q190 614 190 362 Q190 110 389 110 Q429 110 472 120 L472 293 L353 293 L353 415 L610 415 Z M256 -238 Q281 -211 291 -183.5 Q301 -156 301 -116 Q301 -92 297 -66 L421 -66 Q425 -92 425 -115 Q425 -163 396.5 -205 Q368 -247 305 -291 L256 -238 Z " />
<glyph glyph-name="Gdotaccent" unicode="&#x120;" horiz-adv-x="668" d="M361 776 Q323 776 301.5 796.5 Q280 817 280 853 Q280 890 301.5 910.5 Q323 931 361 931 Q399 931 420.5 910.5 Q442 890 442 854 Q442 817 420.5 796.5 Q399 776 361 776 Z M610 415 L610 45 Q569 17 510.5 2 Q452 -13 389 -13 Q226 -13 137 85 Q48 183 48 362 Q48 541 137 639 Q226 737 389 737 Q453 737 509 722 Q565 707 603 680 L563 570 Q469 614 387 614 Q190 614 190 362 Q190 110 389 110 Q429 110 472 120 L472 293 L353 293 L353 415 L610 415 Z " />
<glyph glyph-name="uni1E20" unicode="&#x1e20;" horiz-adv-x="668" d="M525 806 L197 806 L197 898 L525 898 L525 806 Z M610 415 L610 45 Q569 17 510.5 2 Q452 -13 389 -13 Q226 -13 137 85 Q48 183 48 362 Q48 541 137 639 Q226 737 389 737 Q453 737 509 722 Q565 707 603 680 L563 570 Q469 614 387 614 Q190 614 190 362 Q190 110 389 110 Q429 110 472 120 L472 293 L353 293 L353 415 L610 415 Z " />
<glyph glyph-name="H" unicode="H" horiz-adv-x="704" d="M626 724 L626 0 L488 0 L488 306 L216 306 L216 0 L78 0 L78 724 L216 724 L216 429 L488 429 L488 724 L626 724 Z " />
<glyph glyph-name="Hbar" unicode="&#x126;" horiz-adv-x="704" d="M689 520 L626 520 L626 0 L488 0 L488 306 L216 306 L216 0 L78 0 L78 520 L15 520 L15 622 L78 622 L78 724 L216 724 L216 622 L488 622 L488 724 L626 724 L626 622 L689 622 L689 520 Z M488 520 L216 520 L216 429 L488 429 L488 520 Z " />
<glyph glyph-name="uni1E2A" unicode="&#x1e2a;" horiz-adv-x="704" d="M626 724 L626 0 L488 0 L488 306 L216 306 L216 0 L78 0 L78 724 L216 724 L216 429 L488 429 L488 724 L626 724 Z M352 -227 Q277 -227 235 -183.5 Q193 -140 190 -57 L268 -57 Q278 -130 353 -130 Q429 -130 439 -57 L514 -57 Q511 -140 469 -183.5 Q427 -227 352 -227 Z " />
<glyph glyph-name="Hcircumflex" unicode="&#x124;" horiz-adv-x="704" d="M268 781 L170 781 L170 793 L287 926 L417 926 L534 793 L534 781 L433 781 L350 857 L268 781 Z M626 724 L626 0 L488 0 L488 306 L216 306 L216 0 L78 0 L78 724 L216 724 L216 429 L488 429 L488 724 L626 724 Z " />
<glyph glyph-name="uni1E24" unicode="&#x1e24;" horiz-adv-x="704" d="M626 724 L626 0 L488 0 L488 306 L216 306 L216 0 L78 0 L78 724 L216 724 L216 429 L488 429 L488 724 L626 724 Z M352 -228 Q314 -228 292.5 -207.5 Q271 -187 271 -151 Q271 -114 292.5 -93.5 Q314 -73 352 -73 Q390 -73 411.5 -93.5 Q433 -114 433 -150 Q433 -187 411.5 -207.5 Q390 -228 352 -228 Z " />
<glyph glyph-name="I" unicode="I" horiz-adv-x="298" d="M80 724 L218 724 L218 0 L80 0 L80 724 Z " />
<glyph glyph-name="IJ" unicode="&#x132;" horiz-adv-x="691" d="M78 724 L216 724 L216 0 L78 0 L78 724 Z M428 -13 Q389 -13 351 -4 Q313 5 283 21 L326 135 Q383 111 421 111 Q493 111 493 197 L493 724 L631 724 L631 187 Q631 92 578 39.5 Q525 -13 428 -13 Z " />
<glyph glyph-name="Iacute" unicode="&#xcd;" horiz-adv-x="298" d="M63 793 L208 926 L359 926 L359 914 L177 781 L63 781 L63 793 Z M80 724 L218 724 L218 0 L80 0 L80 724 Z " />
<glyph glyph-name="uni01CF" unicode="&#x1cf;" horiz-adv-x="298" d="M331 926 L331 914 L214 781 L84 781 L-33 914 L-33 926 L68 926 L151 850 L233 926 L331 926 Z M80 724 L218 724 L218 0 L80 0 L80 724 Z " />
<glyph glyph-name="Icircumflex" unicode="&#xce;" horiz-adv-x="298" d="M331 793 L331 781 L230 781 L147 857 L65 781 L-33 781 L-33 793 L84 926 L214 926 L331 793 Z M80 724 L218 724 L218 0 L80 0 L80 724 Z " />
<glyph glyph-name="Idieresis" unicode="&#xcf;" horiz-adv-x="298" d="M45 772 Q11 772 -8 791 Q-27 810 -27 842 Q-27 876 -8 895 Q11 914 45 914 Q79 914 98.5 895 Q118 876 118 843 Q118 809 99 790.5 Q80 772 45 772 Z M252 772 Q218 772 199 791 Q180 810 180 842 Q180 876 199 895 Q218 914 252 914 Q286 914 305.5 895 Q325 876 325 843 Q325 809 306 790.5 Q287 772 252 772 Z M80 724 L218 724 L218 0 L80 0 L80 724 Z " />
<glyph glyph-name="Idot" unicode="&#x130;" horiz-adv-x="298" d="M149 776 Q111 776 89.5 796.5 Q68 817 68 853 Q68 890 89.5 910.5 Q111 931 149 931 Q187 931 208.5 910.5 Q230 890 230 854 Q230 817 208.5 796.5 Q187 776 149 776 Z M80 724 L218 724 L218 0 L80 0 L80 724 Z " />
<glyph glyph-name="uni1ECA" unicode="&#x1eca;" horiz-adv-x="298" d="M80 724 L218 724 L218 0 L80 0 L80 724 Z M149 -228 Q111 -228 89.5 -207.5 Q68 -187 68 -151 Q68 -114 89.5 -93.5 Q111 -73 149 -73 Q187 -73 208.5 -93.5 Q230 -114 230 -150 Q230 -187 208.5 -207.5 Q187 -228 149 -228 Z " />
<glyph glyph-name="Igrave" unicode="&#xcc;" horiz-adv-x="298" d="M-53 914 L-53 926 L98 926 L234 793 L234 781 L120 781 L-53 914 Z M80 724 L218 724 L218 0 L80 0 L80 724 Z " />
<glyph glyph-name="uni1EC8" unicode="&#x1ec8;" horiz-adv-x="298" d="M102 781 Q100 793 100 803 Q100 822 109.5 832 Q119 842 136 850 Q146 854 151 858.5 Q156 863 156 869 Q156 881 133 881 Q105 881 65 861 L35 925 Q60 941 93 950 Q126 959 161 959 Q213 959 241.5 939 Q270 919 270 883 Q270 855 256.5 842 Q243 829 220 821 Q206 815 200 810.5 Q194 806 194 798 L196 781 L102 781 Z M80 724 L218 724 L218 0 L80 0 L80 724 Z " />
<glyph glyph-name="Imacron" unicode="&#x12a;" horiz-adv-x="298" d="M-15 898 L313 898 L313 806 L-15 806 L-15 898 Z M80 724 L218 724 L218 0 L80 0 L80 724 Z " />
<glyph glyph-name="Iogonek" unicode="&#x12e;" horiz-adv-x="298" d="M282 -199 Q258 -214 227 -222 Q196 -230 164 -230 Q105 -230 72 -203 Q39 -176 39 -127 Q39 -89 59 -56 Q79 -23 116 0 L80 0 L80 724 L218 724 L218 0 Q150 -50 150 -102 Q150 -142 196 -142 Q223 -142 252 -129 L282 -199 Z " />
<glyph glyph-name="Itilde" unicode="&#x128;" horiz-adv-x="298" d="M207 785 Q179 785 162.5 794.5 Q146 804 130 821 Q120 832 111.5 837.5 Q103 843 92 843 Q57 843 51 787 L-23 787 Q-23 858 7 897.5 Q37 937 91 937 Q119 937 135.5 927.5 Q152 918 168 901 Q178 890 186.5 884.5 Q195 879 206 879 Q241 879 247 935 L321 935 Q321 864 291 824.5 Q261 785 207 785 Z M80 724 L218 724 L218 0 L80 0 L80 724 Z " />
<glyph glyph-name="J" unicode="J" horiz-adv-x="472" d="M180 -13 Q126 -13 79 1.5 Q32 16 0 43 L49 148 Q117 111 173 111 Q261 111 261 197 L261 724 L399 724 L399 187 Q399 92 341.5 39.5 Q284 -13 180 -13 Z " />
<glyph glyph-name="Jcircumflex" unicode="&#x134;" horiz-adv-x="472" d="M512 793 L512 781 L411 781 L328 857 L246 781 L148 781 L148 793 L265 926 L395 926 L512 793 Z M261 724 L399 724 L399 187 Q399 92 341.5 39.5 Q284 -13 180 -13 Q126 -13 79 1.5 Q32 16 0 43 L49 148 Q117 111 173 111 Q261 111 261 197 L261 724 Z " />
<glyph glyph-name="K" unicode="K" horiz-adv-x="636" d="M293 301 L216 205 L216 0 L78 0 L78 724 L216 724 L216 383 L471 724 L634 724 L380 409 L650 0 L487 0 L293 301 Z " />
<glyph glyph-name="Kcommaaccent" unicode="&#x136;" horiz-adv-x="636" d="M293 301 L216 205 L216 0 L78 0 L78 724 L216 724 L216 383 L471 724 L634 724 L380 409 L650 0 L487 0 L293 301 Z M241 -238 Q266 -211 276 -183.5 Q286 -156 286 -116 Q286 -92 282 -66 L406 -66 Q410 -92 410 -115 Q410 -163 381.5 -205 Q353 -247 290 -291 L241 -238 Z " />
<glyph glyph-name="L" unicode="L" horiz-adv-x="531" d="M507 124 L507 0 L78 0 L78 724 L216 724 L216 124 L507 124 Z " />
<glyph glyph-name="Lacute" unicode="&#x139;" horiz-adv-x="531" d="M205 781 L91 781 L91 793 L236 926 L387 926 L387 914 L205 781 Z M507 124 L507 0 L78 0 L78 724 L216 724 L216 124 L507 124 Z " />
<glyph glyph-name="Lcaron" unicode="&#x13d;" horiz-adv-x="531" d="M399 540 L321 540 L321 770 L433 770 L433 760 L399 540 Z M507 124 L507 0 L78 0 L78 724 L216 724 L216 124 L507 124 Z " />
<glyph glyph-name="Lcommaaccent" unicode="&#x13b;" horiz-adv-x="531" d="M507 124 L507 0 L78 0 L78 724 L216 724 L216 124 L507 124 Z M196 -238 Q221 -211 231 -183.5 Q241 -156 241 -116 Q241 -92 237 -66 L361 -66 Q365 -92 365 -115 Q365 -163 336.5 -205 Q308 -247 245 -291 L196 -238 Z " />
<glyph glyph-name="Ldot" unicode="&#x13f;" horiz-adv-x="531" d="M507 124 L507 0 L78 0 L78 724 L216 724 L216 124 L507 124 Z M406 335 Q368 335 346.5 355.5 Q325 376 325 412 Q325 449 346.5 469.5 Q368 490 406 490 Q444 490 465.5 469.5 Q487 449 487 413 Q487 376 465.5 355.5 Q444 335 406 335 Z " />
<glyph glyph-name="uni1E36" unicode="&#x1e36;" horiz-adv-x="531" d="M507 124 L507 0 L78 0 L78 724 L216 724 L216 124 L507 124 Z M301 -228 Q263 -228 241.5 -207.5 Q220 -187 220 -151 Q220 -114 241.5 -93.5 Q263 -73 301 -73 Q339 -73 360.5 -93.5 Q382 -114 382 -150 Q382 -187 360.5 -207.5 Q339 -228 301 -228 Z " />
<glyph glyph-name="uni1E38" unicode="&#x1e38;" horiz-adv-x="531" d="M341 806 L13 806 L13 898 L341 898 L341 806 Z M507 124 L507 0 L78 0 L78 724 L216 724 L216 124 L507 124 Z M301 -73 Q339 -73 360.5 -93.5 Q382 -114 382 -150 Q382 -187 360.5 -207.5 Q339 -228 301 -228 Q263 -228 241.5 -207.5 Q220 -187 220 -151 Q220 -114 241.5 -93.5 Q263 -73 301 -73 Z " />
<glyph glyph-name="uni1E3A" unicode="&#x1e3a;" horiz-adv-x="531" d="M507 124 L507 0 L78 0 L78 724 L216 724 L216 124 L507 124 Z M137 -96 L465 -96 L465 -188 L137 -188 L137 -96 Z " />
<glyph glyph-name="Lslash" unicode="&#x141;" horiz-adv-x="535" d="M511 124 L511 0 L82 0 L82 232 L34 203 L24 203 L24 311 L82 343 L82 724 L220 724 L220 420 L402 526 L412 526 L412 418 L220 311 L220 124 L511 124 Z " />
<glyph glyph-name="M" unicode="M" horiz-adv-x="855" d="M777 724 L777 0 L643 0 L643 503 L499 141 L355 141 L210 503 L210 0 L78 0 L78 724 L244 724 L428 268 L609 724 L777 724 Z " />
<glyph glyph-name="uni1E42" unicode="&#x1e42;" horiz-adv-x="855" d="M777 724 L777 0 L643 0 L643 503 L499 141 L355 141 L210 503 L210 0 L78 0 L78 724 L244 724 L428 268 L609 724 L777 724 Z M425 -228 Q387 -228 365.5 -207.5 Q344 -187 344 -151 Q344 -114 365.5 -93.5 Q387 -73 425 -73 Q463 -73 484.5 -93.5 Q506 -114 506 -150 Q506 -187 484.5 -207.5 Q463 -228 425 -228 Z " />
<glyph glyph-name="N" unicode="N" horiz-adv-x="726" d="M648 724 L648 0 L515 0 L214 491 L214 0 L78 0 L78 724 L211 724 L512 235 L512 724 L648 724 Z " />
<glyph glyph-name="Nacute" unicode="&#x143;" horiz-adv-x="726" d="M391 781 L277 781 L277 793 L422 926 L573 926 L573 914 L391 781 Z M648 724 L648 0 L515 0 L214 491 L214 0 L78 0 L78 724 L211 724 L512 235 L512 724 L648 724 Z " />
<glyph glyph-name="Ncaron" unicode="&#x147;" horiz-adv-x="726" d="M298 781 L181 914 L181 926 L282 926 L365 850 L447 926 L545 926 L545 914 L428 781 L298 781 Z M648 724 L648 0 L515 0 L214 491 L214 0 L78 0 L78 724 L211 724 L512 235 L512 724 L648 724 Z " />
<glyph glyph-name="Ncommaaccent" unicode="&#x145;" horiz-adv-x="726" d="M648 724 L648 0 L515 0 L214 491 L214 0 L78 0 L78 724 L211 724 L512 235 L512 724 L648 724 Z M258 -238 Q283 -211 293 -183.5 Q303 -156 303 -116 Q303 -92 299 -66 L423 -66 Q427 -92 427 -115 Q427 -163 398.5 -205 Q370 -247 307 -291 L258 -238 Z " />
<glyph glyph-name="uni1E44" unicode="&#x1e44;" horiz-adv-x="726" d="M363 776 Q325 776 303.5 796.5 Q282 817 282 853 Q282 890 303.5 910.5 Q325 931 363 931 Q401 931 422.5 910.5 Q444 890 444 854 Q444 817 422.5 796.5 Q401 776 363 776 Z M648 724 L648 0 L515 0 L214 491 L214 0 L78 0 L78 724 L211 724 L512 235 L512 724 L648 724 Z " />
<glyph glyph-name="uni1E46" unicode="&#x1e46;" horiz-adv-x="726" d="M648 724 L648 0 L515 0 L214 491 L214 0 L78 0 L78 724 L211 724 L512 235 L512 724 L648 724 Z M363 -228 Q325 -228 303.5 -207.5 Q282 -187 282 -151 Q282 -114 303.5 -93.5 Q325 -73 363 -73 Q401 -73 422.5 -93.5 Q444 -114 444 -150 Q444 -187 422.5 -207.5 Q401 -228 363 -228 Z " />
<glyph glyph-name="uni1E48" unicode="&#x1e48;" horiz-adv-x="726" d="M648 724 L648 0 L515 0 L214 491 L214 0 L78 0 L78 724 L211 724 L512 235 L512 724 L648 724 Z M199 -96 L527 -96 L527 -188 L199 -188 L199 -96 Z " />
<glyph glyph-name="Ntilde" unicode="&#xd1;" horiz-adv-x="726" d="M292 842 Q259 842 253 787 L178 787 Q179 858 209 897.5 Q239 937 292 937 Q319 937 338.5 928 Q358 919 384 902 Q399 891 410.5 885.5 Q422 880 434 880 Q467 880 473 935 L548 935 Q547 864 517 824.5 Q487 785 434 785 Q407 785 387.5 794 Q368 803 342 820 Q327 831 315.5 836.5 Q304 842 292 842 Z M648 724 L648 0 L515 0 L214 491 L214 0 L78 0 L78 724 L211 724 L512 235 L512 724 L648 724 Z " />
<glyph glyph-name="O" unicode="O" horiz-adv-x="716" d="M358 -13 Q207 -13 127.5 81.5 Q48 176 48 362 Q48 548 127.5 642.5 Q207 737 358 737 Q509 737 588.5 642.5 Q668 548 668 362 Q668 176 588.5 81.5 Q509 -13 358 -13 Z M358 110 Q526 110 526 362 Q526 614 358 614 Q190 614 190 362 Q190 110 358 110 Z " />
<glyph glyph-name="Oacute" unicode="&#xd3;" horiz-adv-x="716" d="M272 793 L417 926 L568 926 L568 914 L386 781 L272 781 L272 793 Z M358 -13 Q207 -13 127.5 81.5 Q48 176 48 362 Q48 548 127.5 642.5 Q207 737 358 737 Q509 737 588.5 642.5 Q668 548 668 362 Q668 176 588.5 81.5 Q509 -13 358 -13 Z M358 110 Q526 110 526 362 Q526 614 358 614 Q190 614 190 362 Q190 110 358 110 Z " />
<glyph glyph-name="uni01D1" unicode="&#x1d1;" horiz-adv-x="716" d="M293 781 L176 914 L176 926 L277 926 L360 850 L442 926 L540 926 L540 914 L423 781 L293 781 Z M358 737 Q509 737 588.5 642.5 Q668 548 668 362 Q668 176 588.5 81.5 Q509 -13 358 -13 Q207 -13 127.5 81.5 Q48 176 48 362 Q48 548 127.5 642.5 Q207 737 358 737 Z M358 110 Q526 110 526 362 Q526 614 358 614 Q190 614 190 362 Q190 110 358 110 Z " />
<glyph glyph-name="Ocircumflex" unicode="&#xd4;" horiz-adv-x="716" d="M274 781 L176 781 L176 793 L293 926 L423 926 L540 793 L540 781 L439 781 L356 857 L274 781 Z M358 737 Q509 737 588.5 642.5 Q668 548 668 362 Q668 176 588.5 81.5 Q509 -13 358 -13 Q207 -13 127.5 81.5 Q48 176 48 362 Q48 548 127.5 642.5 Q207 737 358 737 Z M358 110 Q526 110 526 362 Q526 614 358 614 Q190 614 190 362 Q190 110 358 110 Z " />
<glyph glyph-name="uni1ED0" unicode="&#x1ed0;" horiz-adv-x="716" d="M675 1033 L675 1023 L573 896 L483 896 L483 906 L556 1033 L675 1033 Z M284 785 L192 785 L192 795 L296 934 L420 934 L524 795 L524 785 L429 785 L356 862 L284 785 Z M358 737 Q509 737 588.5 642.5 Q668 548 668 362 Q668 176 588.5 81.5 Q509 -13 358 -13 Q207 -13 127.5 81.5 Q48 176 48 362 Q48 548 127.5 642.5 Q207 737 358 737 Z M358 110 Q526 110 526 362 Q526 614 358 614 Q190 614 190 362 Q190 110 358 110 Z " />
<glyph glyph-name="uni1ED8" unicode="&#x1ed8;" horiz-adv-x="716" d="M274 781 L176 781 L176 793 L293 926 L423 926 L540 793 L540 781 L439 781 L356 857 L274 781 Z M358 737 Q509 737 588.5 642.5 Q668 548 668 362 Q668 176 588.5 81.5 Q509 -13 358 -13 Q207 -13 127.5 81.5 Q48 176 48 362 Q48 548 127.5 642.5 Q207 737 358 737 Z M358 110 Q526 110 526 362 Q526 614 358 614 Q190 614 190 362 Q190 110 358 110 Z M358 -73 Q396 -73 417.5 -93.5 Q439 -114 439 -150 Q439 -187 417.5 -207.5 Q396 -228 358 -228 Q320 -228 298.5 -207.5 Q277 -187 277 -151 Q277 -114 298.5 -93.5 Q320 -73 358 -73 Z " />
<glyph glyph-name="uni1ED2" unicode="&#x1ed2;" horiz-adv-x="716" d="M143 896 L47 1023 L47 1033 L166 1033 L233 906 L233 896 L143 896 Z M192 795 L296 934 L420 934 L524 795 L524 785 L429 785 L356 862 L284 785 L192 785 L192 795 Z M358 737 Q509 737 588.5 642.5 Q668 548 668 362 Q668 176 588.5 81.5 Q509 -13 358 -13 Q207 -13 127.5 81.5 Q48 176 48 362 Q48 548 127.5 642.5 Q207 737 358 737 Z M358 110 Q526 110 526 362 Q526 614 358 614 Q190 614 190 362 Q190 110 358 110 Z " />
<glyph glyph-name="uni1ED4" unicode="&#x1ed4;" horiz-adv-x="716" d="M515 976 Q495 976 465 961 L440 1016 Q460 1028 486.5 1035 Q513 1042 540 1042 Q584 1042 608 1023.5 Q632 1005 632 972 Q632 948 621.5 937 Q611 926 593 919 Q582 914 576.5 909.5 Q571 905 571 898 Q571 891 572 886 L492 886 Q490 896 490 901 Q490 919 497.5 927.5 Q505 936 519 944 Q527 949 531.5 953 Q536 957 536 963 Q536 976 515 976 Z M284 785 L192 785 L192 795 L296 934 L420 934 L524 795 L524 785 L429 785 L356 862 L284 785 Z M358 737 Q509 737 588.5 642.5 Q668 548 668 362 Q668 176 588.5 81.5 Q509 -13 358 -13 Q207 -13 127.5 81.5 Q48 176 48 362 Q48 548 127.5 642.5 Q207 737 358 737 Z M358 110 Q526 110 526 362 Q526 614 358 614 Q190 614 190 362 Q190 110 358 110 Z " />
<glyph glyph-name="uni1ED6" unicode="&#x1ed6;" horiz-adv-x="716" d="M294 968 Q257 968 252 923 L189 923 Q189 982 217 1014 Q245 1046 297 1046 Q324 1046 340.5 1038.5 Q357 1031 376 1018 Q389 1008 399 1003.5 Q409 999 422 999 Q460 999 464 1044 L527 1044 Q527 985 499 953 Q471 921 419 921 Q392 921 375.5 928.5 Q359 936 340 949 Q327 959 317 963.5 Q307 968 294 968 Z M418 896 L524 775 L524 765 L435 765 L357 833 L278 765 L192 765 L192 775 L298 896 L418 896 Z M358 737 Q509 737 588.5 642.5 Q668 548 668 362 Q668 176 588.5 81.5 Q509 -13 358 -13 Q207 -13 127.5 81.5 Q48 176 48 362 Q48 548 127.5 642.5 Q207 737 358 737 Z M358 110 Q526 110 526 362 Q526 614 358 614 Q190 614 190 362 Q190 110 358 110 Z " />
<glyph glyph-name="Odieresis" unicode="&#xd6;" horiz-adv-x="716" d="M254 772 Q220 772 201 791 Q182 810 182 842 Q182 876 201 895 Q220 914 254 914 Q288 914 307.5 895 Q327 876 327 843 Q327 809 308 790.5 Q289 772 254 772 Z M461 772 Q427 772 408 791 Q389 810 389 842 Q389 876 408 895 Q427 914 461 914 Q495 914 514.5 895 Q534 876 534 843 Q534 809 515 790.5 Q496 772 461 772 Z M358 -13 Q207 -13 127.5 81.5 Q48 176 48 362 Q48 548 127.5 642.5 Q207 737 358 737 Q509 737 588.5 642.5 Q668 548 668 362 Q668 176 588.5 81.5 Q509 -13 358 -13 Z M358 110 Q526 110 526 362 Q526 614 358 614 Q190 614 190 362 Q190 110 358 110 Z " />
<glyph glyph-name="uni1ECC" unicode="&#x1ecc;" horiz-adv-x="716" d="M358 -13 Q207 -13 127.5 81.5 Q48 176 48 362 Q48 548 127.5 642.5 Q207 737 358 737 Q509 737 588.5 642.5 Q668 548 668 362 Q668 176 588.5 81.5 Q509 -13 358 -13 Z M358 110 Q526 110 526 362 Q526 614 358 614 Q190 614 190 362 Q190 110 358 110 Z M358 -228 Q320 -228 298.5 -207.5 Q277 -187 277 -151 Q277 -114 298.5 -93.5 Q320 -73 358 -73 Q396 -73 417.5 -93.5 Q439 -114 439 -150 Q439 -187 417.5 -207.5 Q396 -228 358 -228 Z " />
<glyph glyph-name="Ograve" unicode="&#xd2;" horiz-adv-x="716" d="M156 914 L156 926 L307 926 L443 793 L443 781 L329 781 L156 914 Z M358 -13 Q207 -13 127.5 81.5 Q48 176 48 362 Q48 548 127.5 642.5 Q207 737 358 737 Q509 737 588.5 642.5 Q668 548 668 362 Q668 176 588.5 81.5 Q509 -13 358 -13 Z M358 110 Q526 110 526 362 Q526 614 358 614 Q190 614 190 362 Q190 110 358 110 Z " />
<glyph glyph-name="uni1ECE" unicode="&#x1ece;" horiz-adv-x="716" d="M311 781 Q309 793 309 803 Q309 822 318.5 832 Q328 842 345 850 Q355 854 360 858.5 Q365 863 365 869 Q365 881 342 881 Q314 881 274 861 L244 925 Q269 941 302 950 Q335 959 370 959 Q422 959 450.5 939 Q479 919 479 883 Q479 855 465.5 842 Q452 829 429 821 Q415 815 409 810.5 Q403 806 403 798 L405 781 L311 781 Z M358 -13 Q207 -13 127.5 81.5 Q48 176 48 362 Q48 548 127.5 642.5 Q207 737 358 737 Q509 737 588.5 642.5 Q668 548 668 362 Q668 176 588.5 81.5 Q509 -13 358 -13 Z M358 110 Q526 110 526 362 Q526 614 358 614 Q190 614 190 362 Q190 110 358 110 Z " />
<glyph glyph-name="Ohorn" unicode="&#x1a0;" horiz-adv-x="716" d="M714 804 Q714 729 685 691.5 Q656 654 588 644 Q668 547 668 362 Q668 176 588.5 81.5 Q509 -13 358 -13 Q207 -13 127.5 81.5 Q48 176 48 362 Q48 548 127.5 642.5 Q207 737 358 737 Q413 737 463 723 Q497 714 520 714 Q564 714 580.5 732.5 Q597 751 597 802 Q597 827 592 863 L709 863 Q714 833 714 804 Z M358 110 Q526 110 526 362 Q526 614 358 614 Q190 614 190 362 Q190 110 358 110 Z " />
<glyph glyph-name="uni1EDA" unicode="&#x1eda;" horiz-adv-x="716" d="M391 781 L277 781 L277 793 L422 926 L573 926 L573 914 L391 781 Z M714 804 Q714 729 685 691.5 Q656 654 588 644 Q668 547 668 362 Q668 176 588.5 81.5 Q509 -13 358 -13 Q207 -13 127.5 81.5 Q48 176 48 362 Q48 548 127.5 642.5 Q207 737 358 737 Q413 737 463 723 Q497 714 520 714 Q564 714 580.5 732.5 Q597 751 597 802 Q597 827 592 863 L709 863 Q714 833 714 804 Z M358 110 Q526 110 526 362 Q526 614 358 614 Q190 614 190 362 Q190 110 358 110 Z " />
<glyph glyph-name="uni1EE2" unicode="&#x1ee2;" horiz-adv-x="716" d="M714 804 Q714 729 685 691.5 Q656 654 588 644 Q668 547 668 362 Q668 176 588.5 81.5 Q509 -13 358 -13 Q207 -13 127.5 81.5 Q48 176 48 362 Q48 548 127.5 642.5 Q207 737 358 737 Q413 737 463 723 Q497 714 520 714 Q564 714 580.5 732.5 Q597 751 597 802 Q597 827 592 863 L709 863 Q714 833 714 804 Z M358 110 Q526 110 526 362 Q526 614 358 614 Q190 614 190 362 Q190 110 358 110 Z M363 -228 Q325 -228 303.5 -207.5 Q282 -187 282 -151 Q282 -114 303.5 -93.5 Q325 -73 363 -73 Q401 -73 422.5 -93.5 Q444 -114 444 -150 Q444 -187 422.5 -207.5 Q401 -228 363 -228 Z " />
<glyph glyph-name="uni1EDC" unicode="&#x1edc;" horiz-adv-x="716" d="M334 781 L161 914 L161 926 L312 926 L448 793 L448 781 L334 781 Z M714 804 Q714 729 685 691.5 Q656 654 588 644 Q668 547 668 362 Q668 176 588.5 81.5 Q509 -13 358 -13 Q207 -13 127.5 81.5 Q48 176 48 362 Q48 548 127.5 642.5 Q207 737 358 737 Q413 737 463 723 Q497 714 520 714 Q564 714 580.5 732.5 Q597 751 597 802 Q597 827 592 863 L709 863 Q714 833 714 804 Z M358 110 Q526 110 526 362 Q526 614 358 614 Q190 614 190 362 Q190 110 358 110 Z " />
<glyph glyph-name="uni1EDE" unicode="&#x1ede;" horiz-adv-x="716" d="M347 881 Q319 881 279 861 L249 925 Q274 941 307 950 Q340 959 375 959 Q427 959 455.5 939 Q484 919 484 883 Q484 855 470.5 842 Q457 829 434 821 Q420 815 414 810.5 Q408 806 408 798 L410 781 L316 781 Q314 793 314 803 Q314 822 323.5 831.5 Q333 841 350 850 Q360 854 365 858.5 Q370 863 370 869 Q370 881 347 881 Z M714 804 Q714 729 685 691.5 Q656 654 588 644 Q668 547 668 362 Q668 176 588.5 81.5 Q509 -13 358 -13 Q207 -13 127.5 81.5 Q48 176 48 362 Q48 548 127.5 642.5 Q207 737 358 737 Q413 737 463 723 Q497 714 520 714 Q564 714 580.5 732.5 Q597 751 597 802 Q597 827 592 863 L709 863 Q714 833 714 804 Z M358 110 Q526 110 526 362 Q526 614 358 614 Q190 614 190 362 Q190 110 358 110 Z " />
<glyph glyph-name="uni1EE0" unicode="&#x1ee0;" horiz-adv-x="716" d="M292 842 Q259 842 253 787 L178 787 Q179 858 209 897.5 Q239 937 292 937 Q319 937 338.5 928 Q358 919 384 902 Q399 891 410.5 885.5 Q422 880 434 880 Q467 880 473 935 L548 935 Q547 864 517 824.5 Q487 785 434 785 Q407 785 387.5 794 Q368 803 342 820 Q327 831 315.5 836.5 Q304 842 292 842 Z M714 804 Q714 729 685 691.5 Q656 654 588 644 Q668 547 668 362 Q668 176 588.5 81.5 Q509 -13 358 -13 Q207 -13 127.5 81.5 Q48 176 48 362 Q48 548 127.5 642.5 Q207 737 358 737 Q413 737 463 723 Q497 714 520 714 Q564 714 580.5 732.5 Q597 751 597 802 Q597 827 592 863 L709 863 Q714 833 714 804 Z M358 110 Q526 110 526 362 Q526 614 358 614 Q190 614 190 362 Q190 110 358 110 Z " />
<glyph glyph-name="Ohungarumlaut" unicode="&#x150;" horiz-adv-x="716" d="M206 793 L299 926 L424 926 L424 914 L296 781 L206 781 L206 793 Z M376 793 L470 926 L597 926 L597 914 L468 781 L376 781 L376 793 Z M358 -13 Q207 -13 127.5 81.5 Q48 176 48 362 Q48 548 127.5 642.5 Q207 737 358 737 Q509 737 588.5 642.5 Q668 548 668 362 Q668 176 588.5 81.5 Q509 -13 358 -13 Z M358 110 Q526 110 526 362 Q526 614 358 614 Q190 614 190 362 Q190 110 358 110 Z " />
<glyph glyph-name="Omacron" unicode="&#x14c;" horiz-adv-x="716" d="M194 898 L522 898 L522 806 L194 806 L194 898 Z M358 -13 Q207 -13 127.5 81.5 Q48 176 48 362 Q48 548 127.5 642.5 Q207 737 358 737 Q509 737 588.5 642.5 Q668 548 668 362 Q668 176 588.5 81.5 Q509 -13 358 -13 Z M358 110 Q526 110 526 362 Q526 614 358 614 Q190 614 190 362 Q190 110 358 110 Z " />
<glyph glyph-name="Oslash" unicode="&#xd8;" horiz-adv-x="716" d="M698 724 L607 611 Q668 516 668 362 Q668 176 588.5 81.5 Q509 -13 358 -13 Q245 -13 168 47 L126 -10 L18 -10 L18 0 L109 113 Q48 208 48 362 Q48 548 127.5 642.5 Q207 737 358 737 Q471 737 548 677 L590 734 L698 734 L698 724 Z M358 618 Q186 618 186 362 Q186 279 200 229 L472 578 Q432 618 358 618 Z M358 106 Q530 106 530 362 Q530 445 516 495 L244 146 Q284 106 358 106 Z " />
<glyph glyph-name="Otilde" unicode="&#xd5;" horiz-adv-x="716" d="M429 785 Q402 785 382.5 794 Q363 803 337 820 Q322 831 310.5 836.5 Q299 842 287 842 Q254 842 248 787 L173 787 Q174 858 204 897.5 Q234 937 287 937 Q314 937 333.5 928 Q353 919 379 902 Q394 891 405.5 885.5 Q417 880 429 880 Q462 880 468 935 L543 935 Q542 864 512 824.5 Q482 785 429 785 Z M358 -13 Q207 -13 127.5 81.5 Q48 176 48 362 Q48 548 127.5 642.5 Q207 737 358 737 Q509 737 588.5 642.5 Q668 548 668 362 Q668 176 588.5 81.5 Q509 -13 358 -13 Z M358 110 Q526 110 526 362 Q526 614 358 614 Q190 614 190 362 Q190 110 358 110 Z " />
<glyph glyph-name="OE" unicode="&#x152;" horiz-adv-x="964" d="M934 123 L934 0 L482 0 L358 0 Q207 0 127.5 91 Q48 182 48 362 Q48 542 127.5 633 Q207 724 358 724 L521 724 L920 724 L920 601 L616 601 L616 432 L836 432 L836 308 L616 308 L616 123 L934 123 Z M482 123 L482 601 L358 601 Q190 601 190 362 Q190 123 358 123 L482 123 Z " />
<glyph glyph-name="P" unicode="P" horiz-adv-x="599" d="M347 724 Q463 724 526 659 Q589 594 589 476 Q589 357 524 291.5 Q459 226 340 226 L216 226 L216 0 L78 0 L78 724 L216 724 L347 724 Z M347 349 Q447 349 447 473 Q447 601 340 601 L216 601 L216 349 L347 349 Z " />
<glyph glyph-name="Thorn" unicode="&#xde;" horiz-adv-x="617" d="M342 615 Q457 615 520.5 551 Q584 487 584 371 Q584 253 518.5 188.5 Q453 124 335 125 L216 125 L216 0 L78 0 L78 724 L216 724 L216 615 L342 615 Z M342 248 Q442 248 442 368 Q442 492 335 492 L216 492 L216 248 L342 248 Z " />
<glyph glyph-name="Q" unicode="Q" horiz-adv-x="716" d="M594 -165 L454 -2 Q408 -13 358 -13 Q207 -13 127.5 81.5 Q48 176 48 362 Q48 548 127.5 642.5 Q207 737 358 737 Q509 737 588.5 642.5 Q668 548 668 362 Q668 144 560 53 L682 -77 L594 -165 Z M190 362 Q190 110 358 110 Q526 110 526 362 Q526 614 358 614 Q190 614 190 362 Z " />
<glyph glyph-name="R" unicode="R" horiz-adv-x="635" d="M303 250 L216 250 L216 0 L78 0 L78 724 L216 724 L338 724 Q453 724 515.5 662.5 Q578 601 578 488 Q578 405 543.5 349 Q509 293 444 268 L623 0 L458 0 L303 250 Z M216 368 L338 368 Q436 368 436 485 Q436 603 334 603 L216 603 L216 368 Z " />
<glyph glyph-name="Racute" unicode="&#x154;" horiz-adv-x="635" d="M346 781 L232 781 L232 793 L377 926 L528 926 L528 914 L346 781 Z M303 250 L216 250 L216 0 L78 0 L78 724 L216 724 L338 724 Q453 724 515.5 662.5 Q578 601 578 488 Q578 405 543.5 349 Q509 293 444 268 L623 0 L458 0 L303 250 Z M216 368 L338 368 Q436 368 436 485 Q436 603 334 603 L216 603 L216 368 Z " />
<glyph glyph-name="Rcaron" unicode="&#x158;" horiz-adv-x="635" d="M253 781 L136 914 L136 926 L237 926 L320 850 L402 926 L500 926 L500 914 L383 781 L253 781 Z M303 250 L216 250 L216 0 L78 0 L78 724 L216 724 L338 724 Q453 724 515.5 662.5 Q578 601 578 488 Q578 405 543.5 349 Q509 293 444 268 L623 0 L458 0 L303 250 Z M216 368 L338 368 Q436 368 436 485 Q436 603 334 603 L216 603 L216 368 Z " />
<glyph glyph-name="Rcommaaccent" unicode="&#x156;" horiz-adv-x="635" d="M303 250 L216 250 L216 0 L78 0 L78 724 L216 724 L338 724 Q453 724 515.5 662.5 Q578 601 578 488 Q578 405 543.5 349 Q509 293 444 268 L623 0 L458 0 L303 250 Z M216 368 L338 368 Q436 368 436 485 Q436 603 334 603 L216 603 L216 368 Z M232 -238 Q257 -211 267 -183.5 Q277 -156 277 -116 Q277 -92 273 -66 L397 -66 Q401 -92 401 -115 Q401 -163 372.5 -205 Q344 -247 281 -291 L232 -238 Z " />
<glyph glyph-name="uni1E5A" unicode="&#x1e5a;" horiz-adv-x="635" d="M303 250 L216 250 L216 0 L78 0 L78 724 L216 724 L338 724 Q453 724 515.5 662.5 Q578 601 578 488 Q578 405 543.5 349 Q509 293 444 268 L623 0 L458 0 L303 250 Z M216 368 L338 368 Q436 368 436 485 Q436 603 334 603 L216 603 L216 368 Z M337 -228 Q299 -228 277.5 -207.5 Q256 -187 256 -151 Q256 -114 277.5 -93.5 Q299 -73 337 -73 Q375 -73 396.5 -93.5 Q418 -114 418 -150 Q418 -187 396.5 -207.5 Q375 -228 337 -228 Z " />
<glyph glyph-name="uni1E5C" unicode="&#x1e5c;" horiz-adv-x="635" d="M482 806 L154 806 L154 898 L482 898 L482 806 Z M623 0 L458 0 L303 250 L216 250 L216 0 L78 0 L78 724 L216 724 L338 724 Q453 724 515.5 662.5 Q578 601 578 488 Q578 405 543.5 349 Q509 293 444 268 L623 0 Z M216 368 L338 368 Q436 368 436 485 Q436 603 334 603 L216 603 L216 368 Z M337 -73 Q375 -73 396.5 -93.5 Q418 -114 418 -150 Q418 -187 396.5 -207.5 Q375 -228 337 -228 Q299 -228 277.5 -207.5 Q256 -187 256 -151 Q256 -114 277.5 -93.5 Q299 -73 337 -73 Z " />
<glyph glyph-name="uni1E5E" unicode="&#x1e5e;" horiz-adv-x="635" d="M303 250 L216 250 L216 0 L78 0 L78 724 L216 724 L338 724 Q453 724 515.5 662.5 Q578 601 578 488 Q578 405 543.5 349 Q509 293 444 268 L623 0 L458 0 L303 250 Z M216 368 L338 368 Q436 368 436 485 Q436 603 334 603 L216 603 L216 368 Z M173 -96 L501 -96 L501 -188 L173 -188 L173 -96 Z " />
<glyph glyph-name="S" unicode="S" horiz-adv-x="564" d="M268 -12 Q202 -12 139.5 5.5 Q77 23 29 54 L73 162 Q168 107 268 107 Q393 107 393 193 Q393 229 370 252 Q347 275 296 289 L214 312 Q121 338 79.5 386 Q38 434 38 515 Q38 620 102 678 Q166 736 281 736 Q336 736 395 723 Q454 710 507 686 L462 578 Q357 617 279 617 Q170 617 170 538 Q170 502 193 479.5 Q216 457 267 443 L349 420 Q443 394 484 346 Q525 298 525 216 Q525 107 457.5 47.5 Q390 -12 268 -12 Z " />
<glyph glyph-name="Sacute" unicode="&#x15a;" horiz-adv-x="564" d="M184 793 L329 926 L480 926 L480 914 L298 781 L184 781 L184 793 Z M268 -12 Q202 -12 139.5 5.5 Q77 23 29 54 L73 162 Q168 107 268 107 Q393 107 393 193 Q393 229 370 252 Q347 275 296 289 L214 312 Q121 338 79.5 386 Q38 434 38 515 Q38 620 102 678 Q166 736 281 736 Q336 736 395 723 Q454 710 507 686 L462 578 Q357 617 279 617 Q170 617 170 538 Q170 502 193 479.5 Q216 457 267 443 L349 420 Q443 394 484 346 Q525 298 525 216 Q525 107 457.5 47.5 Q390 -12 268 -12 Z " />
<glyph glyph-name="Scaron" unicode="&#x160;" horiz-adv-x="564" d="M205 781 L88 914 L88 926 L189 926 L272 850 L354 926 L452 926 L452 914 L335 781 L205 781 Z M349 420 Q443 394 484 346 Q525 298 525 216 Q525 107 457.5 47.5 Q390 -12 268 -12 Q202 -12 139.5 5.5 Q77 23 29 54 L73 162 Q168 107 268 107 Q393 107 393 193 Q393 229 370 252 Q347 275 296 289 L214 312 Q121 338 79.5 386 Q38 434 38 515 Q38 620 102 678 Q166 736 281 736 Q336 736 395 723 Q454 710 507 686 L462 578 Q357 617 279 617 Q170 617 170 538 Q170 502 193 479.5 Q216 457 267 443 L349 420 Z " />
<glyph glyph-name="Scedilla" unicode="&#x15e;" horiz-adv-x="564" d="M525 216 Q525 116 468 57.5 Q411 -1 306 -10 L276 -51 Q290 -49 297 -49 Q351 -49 380.5 -71.5 Q410 -94 410 -135 Q410 -185 374 -212.5 Q338 -240 272 -240 Q204 -240 150 -214 L171 -152 Q224 -169 257 -169 Q306 -169 306 -138 Q306 -109 263 -109 Q242 -109 224 -116 L194 -82 L224 -10 Q109 1 29 54 L73 162 Q168 107 268 107 Q393 107 393 193 Q393 229 370 252 Q347 275 296 289 L214 312 Q121 338 79.5 386 Q38 434 38 515 Q38 620 102 678 Q166 736 281 736 Q336 736 395 723 Q454 710 507 686 L462 578 Q357 617 279 617 Q170 617 170 538 Q170 502 193 479.5 Q216 457 267 443 L349 420 Q443 394 484 346 Q525 298 525 216 Z " />
<glyph glyph-name="Scircumflex" unicode="&#x15c;" horiz-adv-x="564" d="M186 781 L88 781 L88 793 L205 926 L335 926 L452 793 L452 781 L351 781 L268 857 L186 781 Z M349 420 Q443 394 484 346 Q525 298 525 216 Q525 107 457.5 47.5 Q390 -12 268 -12 Q202 -12 139.5 5.5 Q77 23 29 54 L73 162 Q168 107 268 107 Q393 107 393 193 Q393 229 370 252 Q347 275 296 289 L214 312 Q121 338 79.5 386 Q38 434 38 515 Q38 620 102 678 Q166 736 281 736 Q336 736 395 723 Q454 710 507 686 L462 578 Q357 617 279 617 Q170 617 170 538 Q170 502 193 479.5 Q216 457 267 443 L349 420 Z " />
<glyph glyph-name="Scommaaccent" unicode="&#x218;" horiz-adv-x="564" d="M268 -12 Q202 -12 139.5 5.5 Q77 23 29 54 L73 162 Q168 107 268 107 Q393 107 393 193 Q393 229 370 252 Q347 275 296 289 L214 312 Q121 338 79.5 386 Q38 434 38 515 Q38 620 102 678 Q166 736 281 736 Q336 736 395 723 Q454 710 507 686 L462 578 Q357 617 279 617 Q170 617 170 538 Q170 502 193 479.5 Q216 457 267 443 L349 420 Q443 394 484 346 Q525 298 525 216 Q525 107 457.5 47.5 Q390 -12 268 -12 Z M173 -238 Q198 -211 208 -183.5 Q218 -156 218 -116 Q218 -92 214 -66 L338 -66 Q342 -92 342 -115 Q342 -163 313.5 -205 Q285 -247 222 -291 L173 -238 Z " />
<glyph glyph-name="uni1E60" unicode="&#x1e60;" horiz-adv-x="564" d="M270 776 Q232 776 210.5 796.5 Q189 817 189 853 Q189 890 210.5 910.5 Q232 931 270 931 Q308 931 329.5 910.5 Q351 890 351 854 Q351 817 329.5 796.5 Q308 776 270 776 Z M268 -12 Q202 -12 139.5 5.5 Q77 23 29 54 L73 162 Q168 107 268 107 Q393 107 393 193 Q393 229 370 252 Q347 275 296 289 L214 312 Q121 338 79.5 386 Q38 434 38 515 Q38 620 102 678 Q166 736 281 736 Q336 736 395 723 Q454 710 507 686 L462 578 Q357 617 279 617 Q170 617 170 538 Q170 502 193 479.5 Q216 457 267 443 L349 420 Q443 394 484 346 Q525 298 525 216 Q525 107 457.5 47.5 Q390 -12 268 -12 Z " />
<glyph glyph-name="uni1E62" unicode="&#x1e62;" horiz-adv-x="564" d="M268 -12 Q202 -12 139.5 5.5 Q77 23 29 54 L73 162 Q168 107 268 107 Q393 107 393 193 Q393 229 370 252 Q347 275 296 289 L214 312 Q121 338 79.5 386 Q38 434 38 515 Q38 620 102 678 Q166 736 281 736 Q336 736 395 723 Q454 710 507 686 L462 578 Q357 617 279 617 Q170 617 170 538 Q170 502 193 479.5 Q216 457 267 443 L349 420 Q443 394 484 346 Q525 298 525 216 Q525 107 457.5 47.5 Q390 -12 268 -12 Z M278 -228 Q240 -228 218.5 -207.5 Q197 -187 197 -151 Q197 -114 218.5 -93.5 Q240 -73 278 -73 Q316 -73 337.5 -93.5 Q359 -114 359 -150 Q359 -187 337.5 -207.5 Q316 -228 278 -228 Z " />
<glyph glyph-name="uni1E9E" unicode="&#x1e9e;" horiz-adv-x="675" d="M461 404 Q647 373 647 207 Q647 105 579.5 49 Q512 -7 390 -7 Q312 -7 257 13 L278 124 Q342 108 395 108 Q516 108 516 194 Q516 307 300 317 L300 421 Q362 447 390 477.5 Q418 508 418 549 Q418 626 325 626 Q208 626 208 510 L208 0 L70 0 L70 510 Q70 623 136.5 685 Q203 747 324 747 Q430 747 488 699 Q546 651 546 564 Q546 459 461 404 Z " />
<glyph glyph-name="uni018F" unicode="&#x18f;" horiz-adv-x="689" d="M311 736 Q472 736 556.5 642 Q641 548 641 361 Q641 176 563.5 82 Q486 -12 338 -12 Q193 -12 113 80 Q33 172 33 339 Q33 388 40 416 L500 416 Q489 508 439.5 557 Q390 606 309 606 Q222 606 120 563 L69 672 Q117 703 180 719.5 Q243 736 311 736 Z M340 114 Q481 114 500 296 L174 296 Q182 208 224.5 161 Q267 114 340 114 Z " />
<glyph glyph-name="T" unicode="T" horiz-adv-x="530" d="M514 600 L334 600 L334 0 L196 0 L196 600 L16 600 L16 724 L334 724 L514 724 L514 600 Z " />
<glyph glyph-name="Tcaron" unicode="&#x164;" horiz-adv-x="530" d="M200 781 L83 914 L83 926 L184 926 L267 850 L349 926 L447 926 L447 914 L330 781 L200 781 Z M514 600 L334 600 L334 0 L196 0 L196 600 L16 600 L16 724 L334 724 L514 724 L514 600 Z " />
<glyph glyph-name="uni0162" unicode="&#x162;" horiz-adv-x="530" d="M301 0 L263 -51 Q277 -49 284 -49 Q338 -49 367.5 -71.5 Q397 -94 397 -135 Q397 -185 361 -212.5 Q325 -240 259 -240 Q191 -240 137 -214 L158 -152 Q211 -169 244 -169 Q293 -169 293 -138 Q293 -109 250 -109 Q229 -109 211 -116 L181 -82 L215 0 L196 0 L196 600 L16 600 L16 724 L334 724 L514 724 L514 600 L334 600 L334 0 L301 0 Z " />
<glyph glyph-name="uni021A" unicode="&#x21a;" horiz-adv-x="530" d="M514 600 L334 600 L334 0 L196 0 L196 600 L16 600 L16 724 L334 724 L514 724 L514 600 Z M160 -238 Q185 -211 195 -183.5 Q205 -156 205 -116 Q205 -92 201 -66 L325 -66 Q329 -92 329 -115 Q329 -163 300.5 -205 Q272 -247 209 -291 L160 -238 Z " />
<glyph glyph-name="uni1E6C" unicode="&#x1e6c;" horiz-adv-x="530" d="M514 600 L334 600 L334 0 L196 0 L196 600 L16 600 L16 724 L334 724 L514 724 L514 600 Z M265 -228 Q227 -228 205.5 -207.5 Q184 -187 184 -151 Q184 -114 205.5 -93.5 Q227 -73 265 -73 Q303 -73 324.5 -93.5 Q346 -114 346 -150 Q346 -187 324.5 -207.5 Q303 -228 265 -228 Z " />
<glyph glyph-name="uni1E6E" unicode="&#x1e6e;" horiz-adv-x="530" d="M514 600 L334 600 L334 0 L196 0 L196 600 L16 600 L16 724 L334 724 L514 724 L514 600 Z M101 -96 L429 -96 L429 -188 L101 -188 L101 -96 Z " />
<glyph glyph-name="U" unicode="U" horiz-adv-x="688" d="M343 -13 Q214 -13 143.5 55.5 Q73 124 73 249 L73 724 L211 724 L211 259 Q211 110 343 110 Q477 110 477 259 L477 724 L615 724 L615 249 Q615 124 544 55.5 Q473 -13 343 -13 Z " />
<glyph glyph-name="Uacute" unicode="&#xda;" horiz-adv-x="688" d="M258 793 L403 926 L554 926 L554 914 L372 781 L258 781 L258 793 Z M343 -13 Q214 -13 143.5 55.5 Q73 124 73 249 L73 724 L211 724 L211 259 Q211 110 343 110 Q477 110 477 259 L477 724 L615 724 L615 249 Q615 124 544 55.5 Q473 -13 343 -13 Z " />
<glyph glyph-name="Ubreve" unicode="&#x16c;" horiz-adv-x="688" d="M344 780 Q269 780 227 823.5 Q185 867 182 950 L260 950 Q270 877 345 877 Q421 877 431 950 L506 950 Q503 867 461 823.5 Q419 780 344 780 Z M343 -13 Q214 -13 143.5 55.5 Q73 124 73 249 L73 724 L211 724 L211 259 Q211 110 343 110 Q477 110 477 259 L477 724 L615 724 L615 249 Q615 124 544 55.5 Q473 -13 343 -13 Z " />
<glyph glyph-name="uni01D3" unicode="&#x1d3;" horiz-adv-x="688" d="M279 781 L162 914 L162 926 L263 926 L346 850 L428 926 L526 926 L526 914 L409 781 L279 781 Z M615 724 L615 249 Q615 124 544 55.5 Q473 -13 343 -13 Q214 -13 143.5 55.5 Q73 124 73 249 L73 724 L211 724 L211 259 Q211 110 343 110 Q477 110 477 259 L477 724 L615 724 Z " />
<glyph glyph-name="Ucircumflex" unicode="&#xdb;" horiz-adv-x="688" d="M260 781 L162 781 L162 793 L279 926 L409 926 L526 793 L526 781 L425 781 L342 857 L260 781 Z M615 724 L615 249 Q615 124 544 55.5 Q473 -13 343 -13 Q214 -13 143.5 55.5 Q73 124 73 249 L73 724 L211 724 L211 259 Q211 110 343 110 Q477 110 477 259 L477 724 L615 724 Z " />
<glyph glyph-name="Udieresis" unicode="&#xdc;" horiz-adv-x="688" d="M240 772 Q206 772 187 791 Q168 810 168 842 Q168 876 187 895 Q206 914 240 914 Q274 914 293.5 895 Q313 876 313 843 Q313 809 294 790.5 Q275 772 240 772 Z M447 772 Q413 772 394 791 Q375 810 375 842 Q375 876 394 895 Q413 914 447 914 Q481 914 500.5 895 Q520 876 520 843 Q520 809 501 790.5 Q482 772 447 772 Z M343 -13 Q214 -13 143.5 55.5 Q73 124 73 249 L73 724 L211 724 L211 259 Q211 110 343 110 Q477 110 477 259 L477 724 L615 724 L615 249 Q615 124 544 55.5 Q473 -13 343 -13 Z " />
<glyph glyph-name="uni01D7" unicode="&#x1d7;" horiz-adv-x="688" d="M296 919 L369 1046 L488 1046 L488 1036 L386 909 L296 909 L296 919 Z M249 756 Q216 756 197.5 774.5 Q179 793 179 825 Q179 858 197.5 876 Q216 894 249 894 Q282 894 300.5 876 Q319 858 319 826 Q319 792 300.5 774 Q282 756 249 756 Z M439 756 Q406 756 387.5 774.5 Q369 793 369 825 Q369 858 387.5 876 Q406 894 439 894 Q472 894 490.5 876 Q509 858 509 826 Q509 792 490.5 774 Q472 756 439 756 Z M343 -13 Q214 -13 143.5 55.5 Q73 124 73 249 L73 724 L211 724 L211 259 Q211 110 343 110 Q477 110 477 259 L477 724 L615 724 L615 249 Q615 124 544 55.5 Q473 -13 343 -13 Z " />
<glyph glyph-name="uni01D9" unicode="&#x1d9;" horiz-adv-x="688" d="M285 915 L179 1036 L179 1046 L268 1046 L347 978 L425 1046 L511 1046 L511 1036 L405 915 L285 915 Z M249 756 Q216 756 197.5 774.5 Q179 793 179 825 Q179 858 197.5 876 Q216 894 249 894 Q282 894 300.5 876 Q319 858 319 826 Q319 792 300.5 774 Q282 756 249 756 Z M369 825 Q369 858 387.5 876 Q406 894 439 894 Q472 894 490.5 876 Q509 858 509 826 Q509 792 490.5 774 Q472 756 439 756 Q406 756 387.5 774.5 Q369 793 369 825 Z M615 724 L615 249 Q615 124 544 55.5 Q473 -13 343 -13 Q214 -13 143.5 55.5 Q73 124 73 249 L73 724 L211 724 L211 259 Q211 110 343 110 Q477 110 477 259 L477 724 L615 724 Z " />
<glyph glyph-name="uni01DB" unicode="&#x1db;" horiz-adv-x="688" d="M208 1036 L208 1046 L327 1046 L394 919 L394 909 L304 909 L208 1036 Z M249 756 Q216 756 197.5 774.5 Q179 793 179 825 Q179 858 197.5 876 Q216 894 249 894 Q282 894 300.5 876 Q319 858 319 826 Q319 792 300.5 774 Q282 756 249 756 Z M439 756 Q406 756 387.5 774.5 Q369 793 369 825 Q369 858 387.5 876 Q406 894 439 894 Q472 894 490.5 876 Q509 858 509 826 Q509 792 490.5 774 Q472 756 439 756 Z M343 -13 Q214 -13 143.5 55.5 Q73 124 73 249 L73 724 L211 724 L211 259 Q211 110 343 110 Q477 110 477 259 L477 724 L615 724 L615 249 Q615 124 544 55.5 Q473 -13 343 -13 Z " />
<glyph glyph-name="uni01D5" unicode="&#x1d5;" horiz-adv-x="688" d="M181 1010 L509 1010 L509 919 L181 919 L181 1010 Z M249 756 Q216 756 197.5 774.5 Q179 793 179 825 Q179 858 197.5 876 Q216 894 249 894 Q282 894 300.5 876 Q319 858 319 826 Q319 792 300.5 774 Q282 756 249 756 Z M439 756 Q406 756 387.5 774.5 Q369 793 369 825 Q369 858 387.5 876 Q406 894 439 894 Q472 894 490.5 876 Q509 858 509 826 Q509 792 490.5 774 Q472 756 439 756 Z M343 -13 Q214 -13 143.5 55.5 Q73 124 73 249 L73 724 L211 724 L211 259 Q211 110 343 110 Q477 110 477 259 L477 724 L615 724 L615 249 Q615 124 544 55.5 Q473 -13 343 -13 Z " />
<glyph glyph-name="uni1EE4" unicode="&#x1ee4;" horiz-adv-x="688" d="M343 -13 Q214 -13 143.5 55.5 Q73 124 73 249 L73 724 L211 724 L211 259 Q211 110 343 110 Q477 110 477 259 L477 724 L615 724 L615 249 Q615 124 544 55.5 Q473 -13 343 -13 Z M344 -228 Q306 -228 284.5 -207.5 Q263 -187 263 -151 Q263 -114 284.5 -93.5 Q306 -73 344 -73 Q382 -73 403.5 -93.5 Q425 -114 425 -150 Q425 -187 403.5 -207.5 Q382 -228 344 -228 Z " />
<glyph glyph-name="Ugrave" unicode="&#xd9;" horiz-adv-x="688" d="M142 914 L142 926 L293 926 L429 793 L429 781 L315 781 L142 914 Z M343 -13 Q214 -13 143.5 55.5 Q73 124 73 249 L73 724 L211 724 L211 259 Q211 110 343 110 Q477 110 477 259 L477 724 L615 724 L615 249 Q615 124 544 55.5 Q473 -13 343 -13 Z " />
<glyph glyph-name="uni1EE6" unicode="&#x1ee6;" horiz-adv-x="688" d="M297 781 Q295 793 295 803 Q295 822 304.5 832 Q314 842 331 850 Q341 854 346 858.5 Q351 863 351 869 Q351 881 328 881 Q300 881 260 861 L230 925 Q255 941 288 950 Q321 959 356 959 Q408 959 436.5 939 Q465 919 465 883 Q465 855 451.5 842 Q438 829 415 821 Q401 815 395 810.5 Q389 806 389 798 L391 781 L297 781 Z M343 -13 Q214 -13 143.5 55.5 Q73 124 73 249 L73 724 L211 724 L211 259 Q211 110 343 110 Q477 110 477 259 L477 724 L615 724 L615 249 Q615 124 544 55.5 Q473 -13 343 -13 Z " />
<glyph glyph-name="Uhorn" unicode="&#x1af;" horiz-adv-x="688" d="M736 804 Q736 734 708 698 Q680 662 615 652 L615 249 Q615 124 544 55.5 Q473 -13 343 -13 Q214 -13 143.5 55.5 Q73 124 73 249 L73 724 L211 724 L211 259 Q211 110 343 110 Q477 110 477 259 L477 724 L542 724 Q586 724 602.5 740.5 Q619 757 619 802 Q619 827 614 863 L731 863 Q736 833 736 804 Z " />
<glyph glyph-name="uni1EE8" unicode="&#x1ee8;" horiz-adv-x="688" d="M372 781 L258 781 L258 793 L403 926 L554 926 L554 914 L372 781 Z M736 804 Q736 734 708 698 Q680 662 615 652 L615 249 Q615 124 544 55.5 Q473 -13 343 -13 Q214 -13 143.5 55.5 Q73 124 73 249 L73 724 L211 724 L211 259 Q211 110 343 110 Q477 110 477 259 L477 724 L542 724 Q586 724 602.5 740.5 Q619 757 619 802 Q619 827 614 863 L731 863 Q736 833 736 804 Z " />
<glyph glyph-name="uni1EF0" unicode="&#x1ef0;" horiz-adv-x="688" d="M736 804 Q736 734 708 698 Q680 662 615 652 L615 249 Q615 124 544 55.5 Q473 -13 343 -13 Q214 -13 143.5 55.5 Q73 124 73 249 L73 724 L211 724 L211 259 Q211 110 343 110 Q477 110 477 259 L477 724 L542 724 Q586 724 602.5 740.5 Q619 757 619 802 Q619 827 614 863 L731 863 Q736 833 736 804 Z M344 -228 Q306 -228 284.5 -207.5 Q263 -187 263 -151 Q263 -114 284.5 -93.5 Q306 -73 344 -73 Q382 -73 403.5 -93.5 Q425 -114 425 -150 Q425 -187 403.5 -207.5 Q382 -228 344 -228 Z " />
<glyph glyph-name="uni1EEA" unicode="&#x1eea;" horiz-adv-x="688" d="M315 781 L142 914 L142 926 L293 926 L429 793 L429 781 L315 781 Z M736 804 Q736 734 708 698 Q680 662 615 652 L615 249 Q615 124 544 55.5 Q473 -13 343 -13 Q214 -13 143.5 55.5 Q73 124 73 249 L73 724 L211 724 L211 259 Q211 110 343 110 Q477 110 477 259 L477 724 L542 724 Q586 724 602.5 740.5 Q619 757 619 802 Q619 827 614 863 L731 863 Q736 833 736 804 Z " />
<glyph glyph-name="uni1EEC" unicode="&#x1eec;" horiz-adv-x="688" d="M328 881 Q300 881 260 861 L230 925 Q255 941 288 950 Q321 959 356 959 Q408 959 436.5 939 Q465 919 465 883 Q465 855 451.5 842 Q438 829 415 821 Q401 815 395 810.5 Q389 806 389 798 L391 781 L297 781 Q295 793 295 803 Q295 822 304.5 832 Q314 842 331 850 Q341 854 346 858.5 Q351 863 351 869 Q351 881 328 881 Z M736 804 Q736 734 708 698 Q680 662 615 652 L615 249 Q615 124 544 55.5 Q473 -13 343 -13 Q214 -13 143.5 55.5 Q73 124 73 249 L73 724 L211 724 L211 259 Q211 110 343 110 Q477 110 477 259 L477 724 L542 724 Q586 724 602.5 740.5 Q619 757 619 802 Q619 827 614 863 L731 863 Q736 833 736 804 Z " />
<glyph glyph-name="uni1EEE" unicode="&#x1eee;" horiz-adv-x="688" d="M273 842 Q240 842 234 787 L159 787 Q160 858 190 897.5 Q220 937 273 937 Q300 937 319.5 928 Q339 919 365 902 Q380 891 391.5 885.5 Q403 880 415 880 Q448 880 454 935 L529 935 Q528 864 498 824.5 Q468 785 415 785 Q388 785 368.5 794 Q349 803 323 820 Q308 831 296.5 836.5 Q285 842 273 842 Z M736 804 Q736 734 708 698 Q680 662 615 652 L615 249 Q615 124 544 55.5 Q473 -13 343 -13 Q214 -13 143.5 55.5 Q73 124 73 249 L73 724 L211 724 L211 259 Q211 110 343 110 Q477 110 477 259 L477 724 L542 724 Q586 724 602.5 740.5 Q619 757 619 802 Q619 827 614 863 L731 863 Q736 833 736 804 Z " />
<glyph glyph-name="Uhungarumlaut" unicode="&#x170;" horiz-adv-x="688" d="M192 793 L285 926 L410 926 L410 914 L282 781 L192 781 L192 793 Z M362 793 L456 926 L583 926 L583 914 L454 781 L362 781 L362 793 Z M343 -13 Q214 -13 143.5 55.5 Q73 124 73 249 L73 724 L211 724 L211 259 Q211 110 343 110 Q477 110 477 259 L477 724 L615 724 L615 249 Q615 124 544 55.5 Q473 -13 343 -13 Z " />
<glyph glyph-name="Umacron" unicode="&#x16a;" horiz-adv-x="688" d="M180 898 L508 898 L508 806 L180 806 L180 898 Z M343 -13 Q214 -13 143.5 55.5 Q73 124 73 249 L73 724 L211 724 L211 259 Q211 110 343 110 Q477 110 477 259 L477 724 L615 724 L615 249 Q615 124 544 55.5 Q473 -13 343 -13 Z " />
<glyph glyph-name="Uogonek" unicode="&#x172;" horiz-adv-x="688" d="M486 12 Q453 -15 434.5 -45 Q416 -75 416 -102 Q416 -142 462 -142 Q489 -142 518 -129 L548 -199 Q524 -214 493 -222 Q462 -230 430 -230 Q371 -230 338 -203 Q305 -176 305 -127 Q305 -64 358 -13 L343 -13 Q214 -13 143.5 55.5 Q73 124 73 249 L73 724 L211 724 L211 259 Q211 110 343 110 Q477 110 477 259 L477 724 L615 724 L615 249 Q615 175 592 127 Q569 79 513 34 L486 12 Z " />
<glyph glyph-name="Uring" unicode="&#x16e;" horiz-adv-x="688" d="M344 765 Q279 765 243 796.5 Q207 828 207 885 Q207 942 243 973.5 Q279 1005 344 1005 Q409 1005 445 973.5 Q481 942 481 885 Q481 828 445 796.5 Q409 765 344 765 Z M344 831 Q397 831 397 885 Q397 939 344 939 Q291 939 291 885 Q291 831 344 831 Z M343 -13 Q214 -13 143.5 55.5 Q73 124 73 249 L73 724 L211 724 L211 259 Q211 110 343 110 Q477 110 477 259 L477 724 L615 724 L615 249 Q615 124 544 55.5 Q473 -13 343 -13 Z " />
<glyph glyph-name="Utilde" unicode="&#x168;" horiz-adv-x="688" d="M415 785 Q388 785 368.5 794 Q349 803 323 820 Q308 831 296.5 836.5 Q285 842 273 842 Q240 842 234 787 L159 787 Q160 858 190 897.5 Q220 937 273 937 Q300 937 319.5 928 Q339 919 365 902 Q380 891 391.5 885.5 Q403 880 415 880 Q448 880 454 935 L529 935 Q528 864 498 824.5 Q468 785 415 785 Z M343 -13 Q214 -13 143.5 55.5 Q73 124 73 249 L73 724 L211 724 L211 259 Q211 110 343 110 Q477 110 477 259 L477 724 L615 724 L615 249 Q615 124 544 55.5 Q473 -13 343 -13 Z " />
<glyph glyph-name="V" unicode="V" horiz-adv-x="634" d="M615 724 L392 0 L242 0 L19 724 L164 724 L318 145 L471 724 L615 724 Z " />
<glyph glyph-name="W" unicode="W" horiz-adv-x="898" d="M877 724 L705 0 L555 0 L448 536 L342 0 L192 0 L21 724 L163 724 L269 163 L375 723 L523 723 L631 162 L736 724 L877 724 Z " />
<glyph glyph-name="Wacute" unicode="&#x1e82;" horiz-adv-x="898" d="M475 781 L361 781 L361 793 L506 926 L657 926 L657 914 L475 781 Z M877 724 L705 0 L555 0 L448 536 L342 0 L192 0 L21 724 L163 724 L269 163 L375 723 L523 723 L631 162 L736 724 L877 724 Z " />
<glyph glyph-name="Wcircumflex" unicode="&#x174;" horiz-adv-x="898" d="M363 781 L265 781 L265 793 L382 926 L512 926 L629 793 L629 781 L528 781 L445 857 L363 781 Z M877 724 L705 0 L555 0 L448 536 L342 0 L192 0 L21 724 L163 724 L269 163 L375 723 L523 723 L631 162 L736 724 L877 724 Z " />
<glyph glyph-name="Wdieresis" unicode="&#x1e84;" horiz-adv-x="898" d="M343 772 Q309 772 290 791 Q271 810 271 842 Q271 876 290 895 Q309 914 343 914 Q377 914 396.5 895 Q416 876 416 843 Q416 809 397 790.5 Q378 772 343 772 Z M550 772 Q516 772 497 791 Q478 810 478 842 Q478 876 497 895 Q516 914 550 914 Q584 914 603.5 895 Q623 876 623 843 Q623 809 604 790.5 Q585 772 550 772 Z M877 724 L705 0 L555 0 L448 536 L342 0 L192 0 L21 724 L163 724 L269 163 L375 723 L523 723 L631 162 L736 724 L877 724 Z " />
<glyph glyph-name="Wgrave" unicode="&#x1e80;" horiz-adv-x="898" d="M418 781 L245 914 L245 926 L396 926 L532 793 L532 781 L418 781 Z M877 724 L705 0 L555 0 L448 536 L342 0 L192 0 L21 724 L163 724 L269 163 L375 723 L523 723 L631 162 L736 724 L877 724 Z " />
<glyph glyph-name="X" unicode="X" horiz-adv-x="610" d="M440 0 L303 252 L168 0 L16 0 L229 367 L24 724 L178 724 L308 482 L440 724 L592 724 L381 367 L594 0 L440 0 Z " />
<glyph glyph-name="Y" unicode="Y" horiz-adv-x="590" d="M579 724 L363 239 L363 0 L225 0 L225 239 L11 724 L158 724 L296 389 L433 724 L579 724 Z " />
<glyph glyph-name="Yacute" unicode="&#xdd;" horiz-adv-x="590" d="M322 781 L208 781 L208 793 L353 926 L504 926 L504 914 L322 781 Z M579 724 L363 239 L363 0 L225 0 L225 239 L11 724 L158 724 L296 389 L433 724 L579 724 Z " />
<glyph glyph-name="Ycircumflex" unicode="&#x176;" horiz-adv-x="590" d="M210 781 L112 781 L112 793 L229 926 L359 926 L476 793 L476 781 L375 781 L292 857 L210 781 Z M579 724 L363 239 L363 0 L225 0 L225 239 L11 724 L158 724 L296 389 L433 724 L579 724 Z " />
<glyph glyph-name="Ydieresis" unicode="&#x178;" horiz-adv-x="590" d="M190 772 Q156 772 137 791 Q118 810 118 842 Q118 876 137 895 Q156 914 190 914 Q224 914 243.5 895 Q263 876 263 843 Q263 809 244 790.5 Q225 772 190 772 Z M397 772 Q363 772 344 791 Q325 810 325 842 Q325 876 344 895 Q363 914 397 914 Q431 914 450.5 895 Q470 876 470 843 Q470 809 451 790.5 Q432 772 397 772 Z M579 724 L363 239 L363 0 L225 0 L225 239 L11 724 L158 724 L296 389 L433 724 L579 724 Z " />
<glyph glyph-name="uni1E8E" unicode="&#x1e8e;" horiz-adv-x="590" d="M294 776 Q256 776 234.5 796.5 Q213 817 213 853 Q213 890 234.5 910.5 Q256 931 294 931 Q332 931 353.5 910.5 Q375 890 375 854 Q375 817 353.5 796.5 Q332 776 294 776 Z M579 724 L363 239 L363 0 L225 0 L225 239 L11 724 L158 724 L296 389 L433 724 L579 724 Z " />
<glyph glyph-name="uni1EF4" unicode="&#x1ef4;" horiz-adv-x="590" d="M579 724 L363 239 L363 0 L225 0 L225 239 L11 724 L158 724 L296 389 L433 724 L579 724 Z M294 -228 Q256 -228 234.5 -207.5 Q213 -187 213 -151 Q213 -114 234.5 -93.5 Q256 -73 294 -73 Q332 -73 353.5 -93.5 Q375 -114 375 -150 Q375 -187 353.5 -207.5 Q332 -228 294 -228 Z " />
<glyph glyph-name="Ygrave" unicode="&#x1ef2;" horiz-adv-x="590" d="M265 781 L92 914 L92 926 L243 926 L379 793 L379 781 L265 781 Z M579 724 L363 239 L363 0 L225 0 L225 239 L11 724 L158 724 L296 389 L433 724 L579 724 Z " />
<glyph glyph-name="uni1EF6" unicode="&#x1ef6;" horiz-adv-x="590" d="M278 881 Q250 881 210 861 L180 925 Q205 941 238 950 Q271 959 306 959 Q358 959 386.5 939 Q415 919 415 883 Q415 855 401.5 842 Q388 829 365 821 Q351 815 345 810.5 Q339 806 339 798 L341 781 L247 781 Q245 793 245 803 Q245 822 254.5 832 Q264 842 281 850 Q291 854 296 858.5 Q301 863 301 869 Q301 881 278 881 Z M579 724 L363 239 L363 0 L225 0 L225 239 L11 724 L158 724 L296 389 L433 724 L579 724 Z " />
<glyph glyph-name="uni1EF8" unicode="&#x1ef8;" horiz-adv-x="590" d="M223 842 Q190 842 184 787 L109 787 Q110 858 140 897.5 Q170 937 223 937 Q250 937 269.5 928 Q289 919 315 902 Q330 891 341.5 885.5 Q353 880 365 880 Q398 880 404 935 L479 935 Q478 864 448 824.5 Q418 785 365 785 Q338 785 318.5 794 Q299 803 273 820 Q258 831 246.5 836.5 Q235 842 223 842 Z M579 724 L363 239 L363 0 L225 0 L225 239 L11 724 L158 724 L296 389 L433 724 L579 724 Z " />
<glyph glyph-name="Z" unicode="Z" horiz-adv-x="555" d="M520 121 L520 0 L33 0 L33 122 L358 603 L47 603 L47 724 L514 724 L514 603 L189 121 L520 121 Z " />
<glyph glyph-name="Zacute" unicode="&#x179;" horiz-adv-x="555" d="M304 781 L190 781 L190 793 L335 926 L486 926 L486 914 L304 781 Z M520 121 L520 0 L33 0 L33 122 L358 603 L47 603 L47 724 L514 724 L514 603 L189 121 L520 121 Z " />
<glyph glyph-name="Zcaron" unicode="&#x17d;" horiz-adv-x="555" d="M211 781 L94 914 L94 926 L195 926 L278 850 L360 926 L458 926 L458 914 L341 781 L211 781 Z M520 121 L520 0 L33 0 L33 122 L358 603 L47 603 L47 724 L514 724 L514 603 L189 121 L520 121 Z " />
<glyph glyph-name="Zdotaccent" unicode="&#x17b;" horiz-adv-x="555" d="M276 776 Q238 776 216.5 796.5 Q195 817 195 853 Q195 890 216.5 910.5 Q238 931 276 931 Q314 931 335.5 910.5 Q357 890 357 854 Q357 817 335.5 796.5 Q314 776 276 776 Z M520 121 L520 0 L33 0 L33 122 L358 603 L47 603 L47 724 L514 724 L514 603 L189 121 L520 121 Z " />
<glyph glyph-name="uni1E92" unicode="&#x1e92;" horiz-adv-x="555" d="M520 121 L520 0 L33 0 L33 122 L358 603 L47 603 L47 724 L514 724 L514 603 L189 121 L520 121 Z M280 -228 Q242 -228 220.5 -207.5 Q199 -187 199 -151 Q199 -114 220.5 -93.5 Q242 -73 280 -73 Q318 -73 339.5 -93.5 Q361 -114 361 -150 Q361 -187 339.5 -207.5 Q318 -228 280 -228 Z " />
<glyph glyph-name="a" unicode="a" horiz-adv-x="536" d="M260 559 Q361 559 416 512 Q471 465 471 380 L471 0 L350 0 L350 80 Q301 -11 189 -11 Q111 -11 68.5 32 Q26 75 26 153 Q26 251 99.5 296.5 Q173 342 337 344 L337 364 Q337 439 235 439 Q173 439 108 411 L74 515 Q167 559 260 559 Z M224 103 Q289 103 337 156 L337 254 Q241 253 198 231.5 Q155 210 155 164 Q155 103 224 103 Z " />
<glyph glyph-name="aacute" unicode="&#xe1;" horiz-adv-x="536" d="M260 559 Q361 559 416 512 Q471 465 471 380 L471 0 L350 0 L350 80 Q301 -11 189 -11 Q111 -11 68.5 32 Q26 75 26 153 Q26 251 99.5 296.5 Q173 342 337 344 L337 364 Q337 439 235 439 Q173 439 108 411 L74 515 Q167 559 260 559 Z M224 103 Q289 103 337 156 L337 254 Q241 253 198 231.5 Q155 210 155 164 Q155 103 224 103 Z M183 625 L278 784 L419 784 L419 774 L287 615 L183 615 L183 625 Z " />
<glyph glyph-name="abreve" unicode="&#x103;" horiz-adv-x="536" d="M260 559 Q361 559 416 512 Q471 465 471 380 L471 0 L350 0 L350 80 Q301 -11 189 -11 Q111 -11 68.5 32 Q26 75 26 153 Q26 251 99.5 296.5 Q173 342 337 344 L337 364 Q337 439 235 439 Q173 439 108 411 L74 515 Q167 559 260 559 Z M224 103 Q289 103 337 156 L337 254 Q241 253 198 231.5 Q155 210 155 164 Q155 103 224 103 Z M257 610 Q182 610 140 653.5 Q98 697 95 780 L173 780 Q183 707 258 707 Q334 707 344 780 L419 780 Q416 697 374 653.5 Q332 610 257 610 Z " />
<glyph glyph-name="uni1EAF" unicode="&#x1eaf;" horiz-adv-x="536" d="M298 764 L208 764 L208 774 L281 901 L400 901 L400 891 L298 764 Z M257 610 Q184 610 142 652.5 Q100 695 97 772 L171 772 Q180 700 258 700 Q337 700 346 772 L417 772 Q414 695 372 652.5 Q330 610 257 610 Z M260 559 Q361 559 416 512 Q471 465 471 380 L471 0 L350 0 L350 80 Q301 -11 189 -11 Q111 -11 68.5 32 Q26 75 26 153 Q26 251 99.5 296.5 Q173 342 337 344 L337 364 Q337 439 235 439 Q173 439 108 411 L74 515 Q167 559 260 559 Z M224 103 Q289 103 337 156 L337 254 Q241 253 198 231.5 Q155 210 155 164 Q155 103 224 103 Z " />
<glyph glyph-name="uni1EB7" unicode="&#x1eb7;" horiz-adv-x="536" d="M260 559 Q361 559 416 512 Q471 465 471 380 L471 0 L350 0 L350 80 Q301 -11 189 -11 Q111 -11 68.5 32 Q26 75 26 153 Q26 251 99.5 296.5 Q173 342 337 344 L337 364 Q337 439 235 439 Q173 439 108 411 L74 515 Q167 559 260 559 Z M224 103 Q289 103 337 156 L337 254 Q241 253 198 231.5 Q155 210 155 164 Q155 103 224 103 Z M247 -228 Q209 -228 187.5 -207.5 Q166 -187 166 -151 Q166 -114 187.5 -93.5 Q209 -73 247 -73 Q285 -73 306.5 -93.5 Q328 -114 328 -150 Q328 -187 306.5 -207.5 Q285 -228 247 -228 Z M257 610 Q182 610 140 653.5 Q98 697 95 780 L173 780 Q183 707 258 707 Q334 707 344 780 L419 780 Q416 697 374 653.5 Q332 610 257 610 Z " />
<glyph glyph-name="uni1EB1" unicode="&#x1eb1;" horiz-adv-x="536" d="M216 764 L120 891 L120 901 L239 901 L306 774 L306 764 L216 764 Z M257 610 Q184 610 142 652.5 Q100 695 97 772 L171 772 Q180 700 258 700 Q337 700 346 772 L417 772 Q414 695 372 652.5 Q330 610 257 610 Z M260 559 Q361 559 416 512 Q471 465 471 380 L471 0 L350 0 L350 80 Q301 -11 189 -11 Q111 -11 68.5 32 Q26 75 26 153 Q26 251 99.5 296.5 Q173 342 337 344 L337 364 Q337 439 235 439 Q173 439 108 411 L74 515 Q167 559 260 559 Z M224 103 Q289 103 337 156 L337 254 Q241 253 198 231.5 Q155 210 155 164 Q155 103 224 103 Z " />
<glyph glyph-name="uni1EB3" unicode="&#x1eb3;" horiz-adv-x="536" d="M238 870 Q214 870 181 854 L153 915 Q176 929 205.5 936.5 Q235 944 265 944 Q314 944 341.5 923.5 Q369 903 369 866 Q369 839 357 827 Q345 815 325 806 Q313 801 306.5 795.5 Q300 790 300 782 Q300 776 302 764 L212 764 Q210 776 210 785 Q210 805 218 815 Q226 825 242 835 Q251 840 256 844.5 Q261 849 261 856 Q261 870 238 870 Z M257 610 Q184 610 142 652.5 Q100 695 97 772 L171 772 Q180 700 258 700 Q337 700 346 772 L417 772 Q414 695 372 652.5 Q330 610 257 610 Z M260 559 Q361 559 416 512 Q471 465 471 380 L471 0 L350 0 L350 80 Q301 -11 189 -11 Q111 -11 68.5 32 Q26 75 26 153 Q26 251 99.5 296.5 Q173 342 337 344 L337 364 Q337 439 235 439 Q173 439 108 411 L74 515 Q167 559 260 559 Z M224 103 Q289 103 337 156 L337 254 Q241 253 198 231.5 Q155 210 155 164 Q155 103 224 103 Z " />
<glyph glyph-name="uni1EB5" unicode="&#x1eb5;" horiz-adv-x="536" d="M198 869 Q162 869 156 818 L88 818 Q88 883 117 919 Q146 955 199 955 Q226 955 242.5 946.5 Q259 938 274 923 Q288 911 295.5 906.5 Q303 902 316 902 Q352 902 358 953 L426 953 Q426 888 397 852 Q368 816 315 816 Q288 816 271.5 824.5 Q255 833 240 848 Q226 860 218.5 864.5 Q211 869 198 869 Z M258 700 Q337 700 346 772 L417 772 Q414 695 372 652.5 Q330 610 257 610 Q184 610 142 652.5 Q100 695 97 772 L171 772 Q180 700 258 700 Z M260 559 Q361 559 416 512 Q471 465 471 380 L471 0 L350 0 L350 80 Q301 -11 189 -11 Q111 -11 68.5 32 Q26 75 26 153 Q26 251 99.5 296.5 Q173 342 337 344 L337 364 Q337 439 235 439 Q173 439 108 411 L74 515 Q167 559 260 559 Z M224 103 Q289 103 337 156 L337 254 Q241 253 198 231.5 Q155 210 155 164 Q155 103 224 103 Z " />
<glyph glyph-name="uni01CE" unicode="&#x1ce;" horiz-adv-x="536" d="M260 559 Q361 559 416 512 Q471 465 471 380 L471 0 L350 0 L350 80 Q301 -11 189 -11 Q111 -11 68.5 32 Q26 75 26 153 Q26 251 99.5 296.5 Q173 342 337 344 L337 364 Q337 439 235 439 Q173 439 108 411 L74 515 Q167 559 260 559 Z M224 103 Q289 103 337 156 L337 254 Q241 253 198 231.5 Q155 210 155 164 Q155 103 224 103 Z M421 784 L421 774 L319 615 L195 615 L93 774 L93 784 L188 784 L258 696 L329 784 L421 784 Z " />
<glyph glyph-name="acircumflex" unicode="&#xe2;" horiz-adv-x="536" d="M260 559 Q361 559 416 512 Q471 465 471 380 L471 0 L350 0 L350 80 Q301 -11 189 -11 Q111 -11 68.5 32 Q26 75 26 153 Q26 251 99.5 296.5 Q173 342 337 344 L337 364 Q337 439 235 439 Q173 439 108 411 L74 515 Q167 559 260 559 Z M224 103 Q289 103 337 156 L337 254 Q241 253 198 231.5 Q155 210 155 164 Q155 103 224 103 Z M421 625 L421 615 L326 615 L255 703 L185 615 L93 615 L93 625 L195 784 L319 784 L421 625 Z " />
<glyph glyph-name="uni1EA5" unicode="&#x1ea5;" horiz-adv-x="536" d="M574 863 L574 853 L472 726 L382 726 L382 736 L455 863 L574 863 Z M183 615 L91 615 L91 625 L195 764 L319 764 L423 625 L423 615 L328 615 L255 692 L183 615 Z M260 559 Q361 559 416 512 Q471 465 471 380 L471 0 L350 0 L350 80 Q301 -11 189 -11 Q111 -11 68.5 32 Q26 75 26 153 Q26 251 99.5 296.5 Q173 342 337 344 L337 364 Q337 439 235 439 Q173 439 108 411 L74 515 Q167 559 260 559 Z M224 103 Q289 103 337 156 L337 254 Q241 253 198 231.5 Q155 210 155 164 Q155 103 224 103 Z " />
<glyph glyph-name="uni1EAD" unicode="&#x1ead;" horiz-adv-x="536" d="M260 559 Q361 559 416 512 Q471 465 471 380 L471 0 L350 0 L350 80 Q301 -11 189 -11 Q111 -11 68.5 32 Q26 75 26 153 Q26 251 99.5 296.5 Q173 342 337 344 L337 364 Q337 439 235 439 Q173 439 108 411 L74 515 Q167 559 260 559 Z M224 103 Q289 103 337 156 L337 254 Q241 253 198 231.5 Q155 210 155 164 Q155 103 224 103 Z M247 -228 Q209 -228 187.5 -207.5 Q166 -187 166 -151 Q166 -114 187.5 -93.5 Q209 -73 247 -73 Q285 -73 306.5 -93.5 Q328 -114 328 -150 Q328 -187 306.5 -207.5 Q285 -228 247 -228 Z M421 625 L421 615 L326 615 L255 703 L185 615 L93 615 L93 625 L195 784 L319 784 L421 625 Z " />
<glyph glyph-name="uni1EA7" unicode="&#x1ea7;" horiz-adv-x="536" d="M42 726 L-54 853 L-54 863 L65 863 L132 736 L132 726 L42 726 Z M91 625 L195 764 L319 764 L423 625 L423 615 L328 615 L255 692 L183 615 L91 615 L91 625 Z M260 559 Q361 559 416 512 Q471 465 471 380 L471 0 L350 0 L350 80 Q301 -11 189 -11 Q111 -11 68.5 32 Q26 75 26 153 Q26 251 99.5 296.5 Q173 342 337 344 L337 364 Q337 439 235 439 Q173 439 108 411 L74 515 Q167 559 260 559 Z M224 103 Q289 103 337 156 L337 254 Q241 253 198 231.5 Q155 210 155 164 Q155 103 224 103 Z " />
<glyph glyph-name="uni1EA9" unicode="&#x1ea9;" horiz-adv-x="536" d="M439 906 Q488 906 515.5 885.5 Q543 865 543 828 Q543 801 531 789 Q519 777 499 768 Q487 763 480.5 757.5 Q474 752 474 744 Q474 738 476 726 L386 726 Q384 738 384 747 Q384 767 392 777 Q400 787 416 797 Q425 802 430 806.5 Q435 811 435 818 Q435 832 412 832 Q388 832 355 816 L327 877 Q350 891 379.5 898.5 Q409 906 439 906 Z M183 615 L91 615 L91 625 L195 764 L319 764 L423 625 L423 615 L328 615 L255 692 L183 615 Z M260 559 Q361 559 416 512 Q471 465 471 380 L471 0 L350 0 L350 80 Q301 -11 189 -11 Q111 -11 68.5 32 Q26 75 26 153 Q26 251 99.5 296.5 Q173 342 337 344 L337 364 Q337 439 235 439 Q173 439 108 411 L74 515 Q167 559 260 559 Z M224 103 Q289 103 337 156 L337 254 Q241 253 198 231.5 Q155 210 155 164 Q155 103 224 103 Z " />
<glyph glyph-name="uni1EAB" unicode="&#x1eab;" horiz-adv-x="536" d="M198 851 Q162 851 156 800 L88 800 Q88 865 117 901 Q146 937 199 937 Q226 937 242.5 928.5 Q259 920 274 905 Q288 893 295.5 888.5 Q303 884 316 884 Q352 884 358 935 L426 935 Q426 870 397 834 Q368 798 315 798 Q288 798 271.5 806.5 Q255 815 240 830 Q226 842 218.5 846.5 Q211 851 198 851 Z M319 764 L423 625 L423 615 L328 615 L255 692 L183 615 L91 615 L91 625 L195 764 L319 764 Z M260 559 Q361 559 416 512 Q471 465 471 380 L471 0 L350 0 L350 80 Q301 -11 189 -11 Q111 -11 68.5 32 Q26 75 26 153 Q26 251 99.5 296.5 Q173 342 337 344 L337 364 Q337 439 235 439 Q173 439 108 411 L74 515 Q167 559 260 559 Z M224 103 Q289 103 337 156 L337 254 Q241 253 198 231.5 Q155 210 155 164 Q155 103 224 103 Z " />
<glyph glyph-name="adieresis" unicode="&#xe4;" horiz-adv-x="536" d="M260 559 Q361 559 416 512 Q471 465 471 380 L471 0 L350 0 L350 80 Q301 -11 189 -11 Q111 -11 68.5 32 Q26 75 26 153 Q26 251 99.5 296.5 Q173 342 337 344 L337 364 Q337 439 235 439 Q173 439 108 411 L74 515 Q167 559 260 559 Z M224 103 Q289 103 337 156 L337 254 Q241 253 198 231.5 Q155 210 155 164 Q155 103 224 103 Z M159 614 Q125 614 106 633 Q87 652 87 684 Q87 718 106 737 Q125 756 159 756 Q193 756 212.5 737 Q232 718 232 685 Q232 651 213 632.5 Q194 614 159 614 Z M354 614 Q320 614 301 633 Q282 652 282 684 Q282 718 301 737 Q320 756 354 756 Q388 756 407.5 737 Q427 718 427 685 Q427 651 408 632.5 Q389 614 354 614 Z " />
<glyph glyph-name="uni1EA1" unicode="&#x1ea1;" horiz-adv-x="536" d="M260 559 Q361 559 416 512 Q471 465 471 380 L471 0 L350 0 L350 80 Q301 -11 189 -11 Q111 -11 68.5 32 Q26 75 26 153 Q26 251 99.5 296.5 Q173 342 337 344 L337 364 Q337 439 235 439 Q173 439 108 411 L74 515 Q167 559 260 559 Z M224 103 Q289 103 337 156 L337 254 Q241 253 198 231.5 Q155 210 155 164 Q155 103 224 103 Z M247 -228 Q209 -228 187.5 -207.5 Q166 -187 166 -151 Q166 -114 187.5 -93.5 Q209 -73 247 -73 Q285 -73 306.5 -93.5 Q328 -114 328 -150 Q328 -187 306.5 -207.5 Q285 -228 247 -228 Z " />
<glyph glyph-name="agrave" unicode="&#xe0;" horiz-adv-x="536" d="M260 559 Q361 559 416 512 Q471 465 471 380 L471 0 L350 0 L350 80 Q301 -11 189 -11 Q111 -11 68.5 32 Q26 75 26 153 Q26 251 99.5 296.5 Q173 342 337 344 L337 364 Q337 439 235 439 Q173 439 108 411 L74 515 Q167 559 260 559 Z M224 103 Q289 103 337 156 L337 254 Q241 253 198 231.5 Q155 210 155 164 Q155 103 224 103 Z M107 774 L107 784 L248 784 L335 625 L335 615 L231 615 L107 774 Z " />
<glyph glyph-name="uni1EA3" unicode="&#x1ea3;" horiz-adv-x="536" d="M260 559 Q361 559 416 512 Q471 465 471 380 L471 0 L350 0 L350 80 Q301 -11 189 -11 Q111 -11 68.5 32 Q26 75 26 153 Q26 251 99.5 296.5 Q173 342 337 344 L337 364 Q337 439 235 439 Q173 439 108 411 L74 515 Q167 559 260 559 Z M224 103 Q289 103 337 156 L337 254 Q241 253 198 231.5 Q155 210 155 164 Q155 103 224 103 Z M211 615 Q209 627 209 638 Q209 662 218 675 Q227 688 242 699 Q260 712 260 724 Q260 740 237 740 Q212 740 178 723 L149 786 Q199 817 265 817 Q315 817 342.5 796 Q370 775 370 737 Q370 711 360 698 Q350 685 330 673 Q316 664 308.5 656 Q301 648 301 635 Q301 627 303 615 L211 615 Z " />
<glyph glyph-name="uni0251" unicode="&#x251;" horiz-adv-x="579" d="M507 546 L507 0 L384 0 L384 78 Q333 -13 234 -13 Q141 -13 90 61.5 Q39 136 39 272 Q39 409 90 484 Q141 559 235 559 Q322 559 371 499 L371 546 L507 546 Z M278 113 Q304 113 326 124 Q348 135 371 159 L371 392 Q352 414 327 425.5 Q302 437 274 437 Q178 437 178 277 Q178 113 278 113 Z " />
<glyph glyph-name="amacron" unicode="&#x101;" horiz-adv-x="536" d="M260 559 Q361 559 416 512 Q471 465 471 380 L471 0 L350 0 L350 80 Q301 -11 189 -11 Q111 -11 68.5 32 Q26 75 26 153 Q26 251 99.5 296.5 Q173 342 337 344 L337 364 Q337 439 235 439 Q173 439 108 411 L74 515 Q167 559 260 559 Z M224 103 Q289 103 337 156 L337 254 Q241 253 198 231.5 Q155 210 155 164 Q155 103 224 103 Z M93 728 L421 728 L421 636 L93 636 L93 728 Z " />
<glyph glyph-name="aogonek" unicode="&#x105;" horiz-adv-x="536" d="M522 -199 Q498 -214 467 -222 Q436 -230 404 -230 Q345 -230 312 -203 Q279 -176 279 -127 Q279 -87 301.5 -54 Q324 -21 365 0 L352 0 L352 84 Q320 34 281.5 11.5 Q243 -11 189 -11 Q111 -11 68.5 32 Q26 75 26 153 Q26 251 99.5 296.5 Q173 342 337 344 L337 364 Q337 439 235 439 Q173 439 108 411 L74 515 Q167 559 260 559 Q361 559 416 512 Q471 465 471 380 L471 0 Q390 -48 390 -102 Q390 -142 436 -142 Q463 -142 492 -129 L522 -199 Z M224 103 Q289 103 337 156 L337 254 Q242 253 198.5 231.5 Q155 210 155 164 Q155 103 224 103 Z " />
<glyph glyph-name="aring" unicode="&#xe5;" horiz-adv-x="536" d="M260 559 Q361 559 416 512 Q471 465 471 380 L471 0 L350 0 L350 80 Q301 -11 189 -11 Q111 -11 68.5 32 Q26 75 26 153 Q26 251 99.5 296.5 Q173 342 337 344 L337 364 Q337 439 235 439 Q173 439 108 411 L74 515 Q167 559 260 559 Z M224 103 Q289 103 337 156 L337 254 Q241 253 198 231.5 Q155 210 155 164 Q155 103 224 103 Z M257 600 Q192 600 156.5 631.5 Q121 663 121 720 Q121 777 156.5 808.5 Q192 840 257 840 Q322 840 357.5 808.5 Q393 777 393 720 Q393 663 357.5 631.5 Q322 600 257 600 Z M257 665 Q310 665 310 720 Q310 775 257 775 Q204 775 204 720 Q204 665 257 665 Z " />
<glyph glyph-name="atilde" unicode="&#xe3;" horiz-adv-x="536" d="M260 559 Q361 559 416 512 Q471 465 471 380 L471 0 L350 0 L350 80 Q301 -11 189 -11 Q111 -11 68.5 32 Q26 75 26 153 Q26 251 99.5 296.5 Q173 342 337 344 L337 364 Q337 439 235 439 Q173 439 108 411 L74 515 Q167 559 260 559 Z M224 103 Q289 103 337 156 L337 254 Q241 253 198 231.5 Q155 210 155 164 Q155 103 224 103 Z M328 615 Q301 615 281.5 624 Q262 633 236 650 Q221 661 209.5 666.5 Q198 672 186 672 Q153 672 147 617 L72 617 Q73 688 103 727.5 Q133 767 186 767 Q213 767 232.5 758 Q252 749 278 732 Q293 721 304.5 715.5 Q316 710 328 710 Q361 710 367 765 L442 765 Q441 694 411 654.5 Q381 615 328 615 Z " />
<glyph glyph-name="ae" unicode="&#xe6;" horiz-adv-x="828" d="M795 296 Q795 259 789 230 L463 230 Q480 110 596 110 Q658 110 725 142 L773 41 Q733 16 683 2 Q633 -12 581 -12 Q511 -12 459 14 Q407 40 375 90 Q333 37 287.5 13 Q242 -11 186 -11 Q110 -11 68 31 Q26 73 26 150 Q26 246 98.5 290.5 Q171 335 331 337 L331 364 Q331 439 232 439 Q171 439 108 411 L74 515 Q167 559 257 559 Q362 559 409 495 Q436 526 476 542.5 Q516 559 564 559 Q674 559 734.5 490 Q795 421 795 296 Z M561 440 Q475 440 462 321 L660 321 Q659 378 633 409 Q607 440 561 440 Z M221 103 Q289 103 341 168 Q331 206 330 247 Q238 246 196.5 225 Q155 204 155 160 Q155 103 221 103 Z " />
<glyph glyph-name="b" unicode="b" horiz-adv-x="581" d="M345 559 Q439 559 490.5 484.5 Q542 410 542 274 Q542 137 490 62 Q438 -13 344 -13 Q296 -13 257 6.5 Q218 26 195 63 L195 0 L72 0 L72 513 L72 770 L208 770 L208 489 Q257 559 345 559 Z M305 109 Q403 109 403 269 Q403 433 301 433 Q275 433 253 422 Q231 411 208 387 L208 154 Q227 132 252 120.5 Q277 109 305 109 Z " />
<glyph glyph-name="c" unicode="c" horiz-adv-x="483" d="M298 -12 Q173 -12 104 60.5 Q35 133 35 265 Q35 353 67 419.5 Q99 486 157.5 522.5 Q216 559 293 559 Q339 559 382.5 546 Q426 533 458 510 L410 405 Q339 436 291 436 Q235 436 204.5 393 Q174 350 174 272 Q174 112 304 112 Q361 112 418 142 L464 38 Q399 -12 298 -12 Z " />
<glyph glyph-name="cacute" unicode="&#x107;" horiz-adv-x="483" d="M298 -12 Q173 -12 104 60.5 Q35 133 35 265 Q35 353 67 419.5 Q99 486 157.5 522.5 Q216 559 293 559 Q339 559 382.5 546 Q426 533 458 510 L410 405 Q339 436 291 436 Q235 436 204.5 393 Q174 350 174 272 Q174 112 304 112 Q361 112 418 142 L464 38 Q399 -12 298 -12 Z M193 625 L288 784 L429 784 L429 774 L297 615 L193 615 L193 625 Z " />
<glyph glyph-name="ccaron" unicode="&#x10d;" horiz-adv-x="483" d="M298 -12 Q173 -12 104 60.5 Q35 133 35 265 Q35 353 67 419.5 Q99 486 157.5 522.5 Q216 559 293 559 Q339 559 382.5 546 Q426 533 458 510 L410 405 Q339 436 291 436 Q235 436 204.5 393 Q174 350 174 272 Q174 112 304 112 Q361 112 418 142 L464 38 Q399 -12 298 -12 Z M431 784 L431 774 L329 615 L205 615 L103 774 L103 784 L198 784 L268 696 L339 784 L431 784 Z " />
<glyph glyph-name="ccedilla" unicode="&#xe7;" horiz-adv-x="483" d="M287 -49 Q341 -49 370.5 -71.5 Q400 -94 400 -135 Q400 -185 364 -212.5 Q328 -240 262 -240 Q194 -240 140 -214 L161 -152 Q214 -169 247 -169 Q296 -169 296 -138 Q296 -109 253 -109 Q232 -109 214 -116 L184 -82 L217 -3 Q129 19 82 88 Q35 157 35 265 Q35 353 67 419.5 Q99 486 157.5 522.5 Q216 559 293 559 Q339 559 382.5 546 Q426 533 458 510 L410 405 Q339 436 291 436 Q235 436 204.5 393 Q174 350 174 272 Q174 112 304 112 Q361 112 418 142 L464 38 Q399 -12 298 -12 L295 -12 L266 -51 Q280 -49 287 -49 Z " />
<glyph glyph-name="ccircumflex" unicode="&#x109;" horiz-adv-x="483" d="M298 -12 Q173 -12 104 60.5 Q35 133 35 265 Q35 353 67 419.5 Q99 486 157.5 522.5 Q216 559 293 559 Q339 559 382.5 546 Q426 533 458 510 L410 405 Q339 436 291 436 Q235 436 204.5 393 Q174 350 174 272 Q174 112 304 112 Q361 112 418 142 L464 38 Q399 -12 298 -12 Z M431 625 L431 615 L336 615 L265 703 L195 615 L103 615 L103 625 L205 784 L329 784 L431 625 Z " />
<glyph glyph-name="cdotaccent" unicode="&#x10b;" horiz-adv-x="483" d="M298 -12 Q173 -12 104 60.5 Q35 133 35 265 Q35 353 67 419.5 Q99 486 157.5 522.5 Q216 559 293 559 Q339 559 382.5 546 Q426 533 458 510 L410 405 Q339 436 291 436 Q235 436 204.5 393 Q174 350 174 272 Q174 112 304 112 Q361 112 418 142 L464 38 Q399 -12 298 -12 Z M267 617 Q229 617 207.5 637.5 Q186 658 186 694 Q186 731 207.5 751.5 Q229 772 267 772 Q305 772 326.5 751.5 Q348 731 348 695 Q348 658 326.5 637.5 Q305 617 267 617 Z " />
<glyph glyph-name="d" unicode="d" horiz-adv-x="581" d="M509 770 L509 33 L509 0 L386 0 L386 78 Q335 -13 236 -13 Q142 -13 90.5 61.5 Q39 136 39 272 Q39 409 91 484 Q143 559 237 559 Q279 559 314 544 Q349 529 373 501 L373 770 L509 770 Z M280 113 Q306 113 328 124 Q350 135 373 159 L373 392 Q354 414 329 425.5 Q304 437 276 437 Q178 437 178 277 Q178 113 280 113 Z " />
<glyph glyph-name="eth" unicode="&#xf0;" horiz-adv-x="563" d="M361 675 Q445 608 484.5 515.5 Q524 423 524 296 Q524 141 463 64 Q402 -13 279 -13 Q161 -13 97.5 57 Q34 127 34 264 Q34 393 93.5 464 Q153 535 262 535 Q327 535 367 498 Q334 569 266 623 L148 552 L108 622 L197 667 Q163 684 127 697 L99 707 L129 792 L157 782 Q234 755 293 721 L397 785 L437 715 L361 675 Z M279 108 Q386 108 386 273 Q386 343 358 381.5 Q330 420 280 420 Q173 420 173 264 Q173 108 279 108 Z " />
<glyph glyph-name="dcaron" unicode="&#x10f;" horiz-adv-x="581" d="M373 770 L509 770 L509 33 L509 0 L386 0 L386 78 Q335 -13 236 -13 Q142 -13 90.5 61.5 Q39 136 39 272 Q39 409 91 484 Q143 559 237 559 Q279 559 314 544 Q349 529 373 501 L373 770 Z M671 770 L671 760 L637 540 L559 540 L559 770 L671 770 Z M280 113 Q306 113 328 124 Q350 135 373 159 L373 392 Q354 414 329 425.5 Q304 437 276 437 Q178 437 178 277 Q178 113 280 113 Z " />
<glyph glyph-name="dslash" unicode="&#x111;" horiz-adv-x="583" d="M573 607 L511 607 L511 0 L388 0 L388 78 Q337 -13 238 -13 Q143 -13 91 59.5 Q39 132 39 264 Q39 397 91.5 470 Q144 543 239 543 Q281 543 316 528 Q351 513 375 485 L375 607 L182 607 L182 692 L375 692 L375 770 L511 770 L511 692 L573 692 L573 607 Z M282 113 Q308 113 330 124 Q352 135 375 159 L375 376 Q356 398 331 409.5 Q306 421 278 421 Q178 421 178 269 Q178 113 282 113 Z " />
<glyph glyph-name="uni1E0D" unicode="&#x1e0d;" horiz-adv-x="581" d="M509 770 L509 33 L509 0 L386 0 L386 78 Q335 -13 236 -13 Q142 -13 90.5 61.5 Q39 136 39 272 Q39 409 91 484 Q143 559 237 559 Q279 559 314 544 Q349 529 373 501 L373 770 L509 770 Z M280 113 Q306 113 328 124 Q350 135 373 159 L373 392 Q354 414 329 425.5 Q304 437 276 437 Q178 437 178 277 Q178 113 280 113 Z M292 -228 Q254 -228 232.5 -207.5 Q211 -187 211 -151 Q211 -114 232.5 -93.5 Q254 -73 292 -73 Q330 -73 351.5 -93.5 Q373 -114 373 -150 Q373 -187 351.5 -207.5 Q330 -228 292 -228 Z " />
<glyph glyph-name="uni1E0F" unicode="&#x1e0f;" horiz-adv-x="581" d="M509 770 L509 33 L509 0 L386 0 L386 78 Q335 -13 236 -13 Q142 -13 90.5 61.5 Q39 136 39 272 Q39 409 91 484 Q143 559 237 559 Q279 559 314 544 Q349 529 373 501 L373 770 L509 770 Z M280 113 Q306 113 328 124 Q350 135 373 159 L373 392 Q354 414 329 425.5 Q304 437 276 437 Q178 437 178 277 Q178 113 280 113 Z M128 -96 L456 -96 L456 -188 L128 -188 L128 -96 Z " />
<glyph glyph-name="e" unicode="e" horiz-adv-x="546" d="M513 296 Q513 259 507 230 L175 230 Q192 110 311 110 Q377 110 443 142 L491 41 Q451 16 400 2 Q349 -12 296 -12 Q172 -12 104.5 62.5 Q37 137 37 273 Q37 410 100.5 484.5 Q164 559 279 559 Q391 559 452 490 Q513 421 513 296 Z M276 440 Q187 440 174 321 L378 321 Q376 378 349.5 409 Q323 440 276 440 Z " />
<glyph glyph-name="eacute" unicode="&#xe9;" horiz-adv-x="546" d="M513 296 Q513 259 507 230 L175 230 Q192 110 311 110 Q377 110 443 142 L491 41 Q451 16 400 2 Q349 -12 296 -12 Q172 -12 104.5 62.5 Q37 137 37 273 Q37 410 100.5 484.5 Q164 559 279 559 Q391 559 452 490 Q513 421 513 296 Z M276 440 Q187 440 174 321 L378 321 Q376 378 349.5 409 Q323 440 276 440 Z M204 625 L299 784 L440 784 L440 774 L308 615 L204 615 L204 625 Z " />
<glyph glyph-name="ebreve" unicode="&#x115;" horiz-adv-x="546" d="M513 296 Q513 259 507 230 L175 230 Q192 110 311 110 Q377 110 443 142 L491 41 Q451 16 400 2 Q349 -12 296 -12 Q172 -12 104.5 62.5 Q37 137 37 273 Q37 410 100.5 484.5 Q164 559 279 559 Q391 559 452 490 Q513 421 513 296 Z M276 440 Q187 440 174 321 L378 321 Q376 378 349.5 409 Q323 440 276 440 Z M278 610 Q203 610 161 653.5 Q119 697 116 780 L194 780 Q204 707 279 707 Q355 707 365 780 L440 780 Q437 697 395 653.5 Q353 610 278 610 Z " />
<glyph glyph-name="ecaron" unicode="&#x11b;" horiz-adv-x="546" d="M513 296 Q513 259 507 230 L175 230 Q192 110 311 110 Q377 110 443 142 L491 41 Q451 16 400 2 Q349 -12 296 -12 Q172 -12 104.5 62.5 Q37 137 37 273 Q37 410 100.5 484.5 Q164 559 279 559 Q391 559 452 490 Q513 421 513 296 Z M276 440 Q187 440 174 321 L378 321 Q376 378 349.5 409 Q323 440 276 440 Z M442 784 L442 774 L340 615 L216 615 L114 774 L114 784 L209 784 L279 696 L350 784 L442 784 Z " />
<glyph glyph-name="ecircumflex" unicode="&#xea;" horiz-adv-x="546" d="M513 296 Q513 259 507 230 L175 230 Q192 110 311 110 Q377 110 443 142 L491 41 Q451 16 400 2 Q349 -12 296 -12 Q172 -12 104.5 62.5 Q37 137 37 273 Q37 410 100.5 484.5 Q164 559 279 559 Q391 559 452 490 Q513 421 513 296 Z M276 440 Q187 440 174 321 L378 321 Q376 378 349.5 409 Q323 440 276 440 Z M442 625 L442 615 L347 615 L276 703 L206 615 L114 615 L114 625 L216 784 L340 784 L442 625 Z " />
<glyph glyph-name="uni1EBF" unicode="&#x1ebf;" horiz-adv-x="546" d="M595 863 L595 853 L493 726 L403 726 L403 736 L476 863 L595 863 Z M204 615 L112 615 L112 625 L216 764 L340 764 L444 625 L444 615 L349 615 L276 692 L204 615 Z M279 559 Q391 559 452 490 Q513 421 513 296 Q513 259 507 230 L175 230 Q192 110 311 110 Q377 110 443 142 L491 41 Q451 16 400 2 Q349 -12 296 -12 Q172 -12 104.5 62.5 Q37 137 37 273 Q37 410 100.5 484.5 Q164 559 279 559 Z M276 440 Q187 440 174 321 L378 321 Q376 378 349.5 409 Q323 440 276 440 Z " />
<glyph glyph-name="uni1EC7" unicode="&#x1ec7;" horiz-adv-x="546" d="M513 296 Q513 259 507 230 L175 230 Q192 110 311 110 Q377 110 443 142 L491 41 Q451 16 400 2 Q349 -12 296 -12 Q172 -12 104.5 62.5 Q37 137 37 273 Q37 410 100.5 484.5 Q164 559 279 559 Q391 559 452 490 Q513 421 513 296 Z M276 440 Q187 440 174 321 L378 321 Q376 378 349.5 409 Q323 440 276 440 Z M280 -228 Q242 -228 220.5 -207.5 Q199 -187 199 -151 Q199 -114 220.5 -93.5 Q242 -73 280 -73 Q318 -73 339.5 -93.5 Q361 -114 361 -150 Q361 -187 339.5 -207.5 Q318 -228 280 -228 Z M442 625 L442 615 L347 615 L276 703 L206 615 L114 615 L114 625 L216 784 L340 784 L442 625 Z " />
<glyph glyph-name="uni1EC1" unicode="&#x1ec1;" horiz-adv-x="546" d="M63 726 L-33 853 L-33 863 L86 863 L153 736 L153 726 L63 726 Z M112 625 L216 764 L340 764 L444 625 L444 615 L349 615 L276 692 L204 615 L112 615 L112 625 Z M513 296 Q513 259 507 230 L175 230 Q192 110 311 110 Q377 110 443 142 L491 41 Q451 16 400 2 Q349 -12 296 -12 Q172 -12 104.5 62.5 Q37 137 37 273 Q37 410 100.5 484.5 Q164 559 279 559 Q391 559 452 490 Q513 421 513 296 Z M276 440 Q187 440 174 321 L378 321 Q376 378 349.5 409 Q323 440 276 440 Z " />
<glyph glyph-name="uni1EC3" unicode="&#x1ec3;" horiz-adv-x="546" d="M460 906 Q509 906 536.5 885.5 Q564 865 564 828 Q564 801 552 789 Q540 777 520 768 Q508 763 501.5 757.5 Q495 752 495 744 Q495 738 497 726 L407 726 Q405 738 405 747 Q405 767 413 777 Q421 787 437 797 Q446 802 451 806.5 Q456 811 456 818 Q456 832 433 832 Q409 832 376 816 L348 877 Q371 891 400.5 898.5 Q430 906 460 906 Z M204 615 L112 615 L112 625 L216 764 L340 764 L444 625 L444 615 L349 615 L276 692 L204 615 Z M279 559 Q391 559 452 490 Q513 421 513 296 Q513 259 507 230 L175 230 Q192 110 311 110 Q377 110 443 142 L491 41 Q451 16 400 2 Q349 -12 296 -12 Q172 -12 104.5 62.5 Q37 137 37 273 Q37 410 100.5 484.5 Q164 559 279 559 Z M276 440 Q187 440 174 321 L378 321 Q376 378 349.5 409 Q323 440 276 440 Z " />
<glyph glyph-name="uni1EC5" unicode="&#x1ec5;" horiz-adv-x="546" d="M219 851 Q183 851 177 800 L109 800 Q109 865 138 901 Q167 937 220 937 Q247 937 263.5 928.5 Q280 920 295 905 Q309 893 316.5 888.5 Q324 884 337 884 Q373 884 379 935 L447 935 Q447 870 418 834 Q389 798 336 798 Q309 798 292.5 806.5 Q276 815 261 830 Q247 842 239.5 846.5 Q232 851 219 851 Z M340 764 L444 625 L444 615 L349 615 L276 692 L204 615 L112 615 L112 625 L216 764 L340 764 Z M513 296 Q513 259 507 230 L175 230 Q192 110 311 110 Q377 110 443 142 L491 41 Q451 16 400 2 Q349 -12 296 -12 Q172 -12 104.5 62.5 Q37 137 37 273 Q37 410 100.5 484.5 Q164 559 279 559 Q391 559 452 490 Q513 421 513 296 Z M276 440 Q187 440 174 321 L378 321 Q376 378 349.5 409 Q323 440 276 440 Z " />
<glyph glyph-name="edieresis" unicode="&#xeb;" horiz-adv-x="546" d="M180 614 Q146 614 127 633 Q108 652 108 684 Q108 718 127 737 Q146 756 180 756 Q214 756 233.5 737 Q253 718 253 685 Q253 651 234 632.5 Q215 614 180 614 Z M375 614 Q341 614 322 633 Q303 652 303 684 Q303 718 322 737 Q341 756 375 756 Q409 756 428.5 737 Q448 718 448 685 Q448 651 429 632.5 Q410 614 375 614 Z M513 296 Q513 259 507 230 L175 230 Q192 110 311 110 Q377 110 443 142 L491 41 Q451 16 400 2 Q349 -12 296 -12 Q172 -12 104.5 62.5 Q37 137 37 273 Q37 410 100.5 484.5 Q164 559 279 559 Q391 559 452 490 Q513 421 513 296 Z M276 440 Q187 440 174 321 L378 321 Q376 378 349.5 409 Q323 440 276 440 Z " />
<glyph glyph-name="edotaccent" unicode="&#x117;" horiz-adv-x="546" d="M513 296 Q513 259 507 230 L175 230 Q192 110 311 110 Q377 110 443 142 L491 41 Q451 16 400 2 Q349 -12 296 -12 Q172 -12 104.5 62.5 Q37 137 37 273 Q37 410 100.5 484.5 Q164 559 279 559 Q391 559 452 490 Q513 421 513 296 Z M276 440 Q187 440 174 321 L378 321 Q376 378 349.5 409 Q323 440 276 440 Z M278 617 Q240 617 218.5 637.5 Q197 658 197 694 Q197 731 218.5 751.5 Q240 772 278 772 Q316 772 337.5 751.5 Q359 731 359 695 Q359 658 337.5 637.5 Q316 617 278 617 Z " />
<glyph glyph-name="uni1EB9" unicode="&#x1eb9;" horiz-adv-x="546" d="M513 296 Q513 259 507 230 L175 230 Q192 110 311 110 Q377 110 443 142 L491 41 Q451 16 400 2 Q349 -12 296 -12 Q172 -12 104.5 62.5 Q37 137 37 273 Q37 410 100.5 484.5 Q164 559 279 559 Q391 559 452 490 Q513 421 513 296 Z M276 440 Q187 440 174 321 L378 321 Q376 378 349.5 409 Q323 440 276 440 Z M280 -228 Q242 -228 220.5 -207.5 Q199 -187 199 -151 Q199 -114 220.5 -93.5 Q242 -73 280 -73 Q318 -73 339.5 -93.5 Q361 -114 361 -150 Q361 -187 339.5 -207.5 Q318 -228 280 -228 Z " />
<glyph glyph-name="egrave" unicode="&#xe8;" horiz-adv-x="546" d="M513 296 Q513 259 507 230 L175 230 Q192 110 311 110 Q377 110 443 142 L491 41 Q451 16 400 2 Q349 -12 296 -12 Q172 -12 104.5 62.5 Q37 137 37 273 Q37 410 100.5 484.5 Q164 559 279 559 Q391 559 452 490 Q513 421 513 296 Z M276 440 Q187 440 174 321 L378 321 Q376 378 349.5 409 Q323 440 276 440 Z M128 774 L128 784 L269 784 L356 625 L356 615 L252 615 L128 774 Z " />
<glyph glyph-name="uni1EBB" unicode="&#x1ebb;" horiz-adv-x="546" d="M513 296 Q513 259 507 230 L175 230 Q192 110 311 110 Q377 110 443 142 L491 41 Q451 16 400 2 Q349 -12 296 -12 Q172 -12 104.5 62.5 Q37 137 37 273 Q37 410 100.5 484.5 Q164 559 279 559 Q391 559 452 490 Q513 421 513 296 Z M276 440 Q187 440 174 321 L378 321 Q376 378 349.5 409 Q323 440 276 440 Z M232 615 Q230 627 230 638 Q230 662 239 675 Q248 688 263 699 Q281 712 281 724 Q281 740 258 740 Q233 740 199 723 L170 786 Q220 817 286 817 Q336 817 363.5 796 Q391 775 391 737 Q391 711 381 698 Q371 685 351 673 Q337 664 329.5 656 Q322 648 322 635 Q322 627 324 615 L232 615 Z " />
<glyph glyph-name="emacron" unicode="&#x113;" horiz-adv-x="546" d="M513 296 Q513 259 507 230 L175 230 Q192 110 311 110 Q377 110 443 142 L491 41 Q451 16 400 2 Q349 -12 296 -12 Q172 -12 104.5 62.5 Q37 137 37 273 Q37 410 100.5 484.5 Q164 559 279 559 Q391 559 452 490 Q513 421 513 296 Z M276 440 Q187 440 174 321 L378 321 Q376 378 349.5 409 Q323 440 276 440 Z M114 728 L442 728 L442 636 L114 636 L114 728 Z " />
<glyph glyph-name="eogonek" unicode="&#x119;" horiz-adv-x="546" d="M513 296 Q513 259 507 230 L175 230 Q192 110 311 110 Q377 110 443 142 L491 41 Q466 27 455 22 Q413 2 385.5 -33.5 Q358 -69 358 -102 Q358 -142 404 -142 Q431 -142 460 -129 L490 -199 Q466 -214 435 -222 Q404 -230 372 -230 Q313 -230 280 -203 Q247 -176 247 -127 Q247 -94 263 -64.5 Q279 -35 308 -12 L296 -12 Q172 -12 104.5 62.5 Q37 137 37 273 Q37 410 100.5 484.5 Q164 559 279 559 Q391 559 452 490 Q513 421 513 296 Z M276 440 Q187 440 174 321 L378 321 Q376 378 349.5 409 Q323 440 276 440 Z " />
<glyph glyph-name="uni1EBD" unicode="&#x1ebd;" horiz-adv-x="546" d="M513 296 Q513 259 507 230 L175 230 Q192 110 311 110 Q377 110 443 142 L491 41 Q451 16 400 2 Q349 -12 296 -12 Q172 -12 104.5 62.5 Q37 137 37 273 Q37 410 100.5 484.5 Q164 559 279 559 Q391 559 452 490 Q513 421 513 296 Z M276 440 Q187 440 174 321 L378 321 Q376 378 349.5 409 Q323 440 276 440 Z M349 615 Q322 615 302.5 624 Q283 633 257 650 Q242 661 230.5 666.5 Q219 672 207 672 Q174 672 168 617 L93 617 Q94 688 124 727.5 Q154 767 207 767 Q234 767 253.5 758 Q273 749 299 732 Q314 721 325.5 715.5 Q337 710 349 710 Q382 710 388 765 L463 765 Q462 694 432 654.5 Q402 615 349 615 Z " />
<glyph glyph-name="f" unicode="f" horiz-adv-x="372" d="M88 429 L5 429 L5 546 L89 546 L89 587 Q89 682 146.5 734.5 Q204 787 310 787 Q344 787 371 782 L371 664 Q342 668 310 668 Q224 668 224 587 L224 546 L352 546 L352 429 L224 429 L224 0 L88 0 L88 429 Z " />
<glyph glyph-name="g" unicode="g" horiz-adv-x="583" d="M511 546 L511 22 Q511 -94 445.5 -157 Q380 -220 260 -220 Q211 -220 163.5 -209.5 Q116 -199 78 -179 L116 -72 Q183 -101 245 -101 Q375 -101 375 22 L375 87 Q326 17 238 17 Q143 17 91 87.5 Q39 158 39 287 Q39 417 91.5 488 Q144 559 239 559 Q287 559 326 539.5 Q365 520 388 483 L388 546 L511 546 Z M282 143 Q308 143 330 154 Q352 165 375 189 L375 392 Q356 414 331 425.5 Q306 437 278 437 Q178 437 178 292 Q178 143 282 143 Z " />
<glyph glyph-name="gbreve" unicode="&#x11f;" horiz-adv-x="583" d="M511 546 L511 22 Q511 -94 445.5 -157 Q380 -220 260 -220 Q211 -220 163.5 -209.5 Q116 -199 78 -179 L116 -72 Q183 -101 245 -101 Q375 -101 375 22 L375 87 Q326 17 238 17 Q143 17 91 87.5 Q39 158 39 287 Q39 417 91.5 488 Q144 559 239 559 Q287 559 326 539.5 Q365 520 388 483 L388 546 L511 546 Z M282 143 Q308 143 330 154 Q352 165 375 189 L375 392 Q356 414 331 425.5 Q306 437 278 437 Q178 437 178 292 Q178 143 282 143 Z M288 610 Q213 610 171 653.5 Q129 697 126 780 L204 780 Q214 707 289 707 Q365 707 375 780 L450 780 Q447 697 405 653.5 Q363 610 288 610 Z " />
<glyph glyph-name="gcaron" unicode="&#x1e7;" horiz-adv-x="583" d="M511 546 L511 22 Q511 -94 445.5 -157 Q380 -220 260 -220 Q211 -220 163.5 -209.5 Q116 -199 78 -179 L116 -72 Q183 -101 245 -101 Q375 -101 375 22 L375 87 Q326 17 238 17 Q143 17 91 87.5 Q39 158 39 287 Q39 417 91.5 488 Q144 559 239 559 Q287 559 326 539.5 Q365 520 388 483 L388 546 L511 546 Z M282 143 Q308 143 330 154 Q352 165 375 189 L375 392 Q356 414 331 425.5 Q306 437 278 437 Q178 437 178 292 Q178 143 282 143 Z M452 784 L452 774 L350 615 L226 615 L124 774 L124 784 L219 784 L289 696 L360 784 L452 784 Z " />
<glyph glyph-name="gcircumflex" unicode="&#x11d;" horiz-adv-x="583" d="M511 546 L511 22 Q511 -94 445.5 -157 Q380 -220 260 -220 Q211 -220 163.5 -209.5 Q116 -199 78 -179 L116 -72 Q183 -101 245 -101 Q375 -101 375 22 L375 87 Q326 17 238 17 Q143 17 91 87.5 Q39 158 39 287 Q39 417 91.5 488 Q144 559 239 559 Q287 559 326 539.5 Q365 520 388 483 L388 546 L511 546 Z M282 143 Q308 143 330 154 Q352 165 375 189 L375 392 Q356 414 331 425.5 Q306 437 278 437 Q178 437 178 292 Q178 143 282 143 Z M452 625 L452 615 L357 615 L286 703 L216 615 L124 615 L124 625 L226 784 L350 784 L452 625 Z " />
<glyph glyph-name="gcommaaccent" unicode="&#x123;" horiz-adv-x="583" d="M511 546 L511 22 Q511 -94 445.5 -157 Q380 -220 260 -220 Q211 -220 163.5 -209.5 Q116 -199 78 -179 L116 -72 Q183 -101 245 -101 Q375 -101 375 22 L375 87 Q326 17 238 17 Q143 17 91 87.5 Q39 158 39 287 Q39 417 91.5 488 Q144 559 239 559 Q287 559 326 539.5 Q365 520 388 483 L388 546 L511 546 Z M282 143 Q308 143 330 154 Q352 165 375 189 L375 392 Q356 414 331 425.5 Q306 437 278 437 Q178 437 178 292 Q178 143 282 143 Z M388 776 Q363 749 353 721.5 Q343 694 343 654 Q343 630 347 604 L223 604 Q219 630 219 653 Q219 701 247.5 743 Q276 785 339 829 L388 776 Z " />
<glyph glyph-name="gdotaccent" unicode="&#x121;" horiz-adv-x="583" d="M511 546 L511 22 Q511 -94 445.5 -157 Q380 -220 260 -220 Q211 -220 163.5 -209.5 Q116 -199 78 -179 L116 -72 Q183 -101 245 -101 Q375 -101 375 22 L375 87 Q326 17 238 17 Q143 17 91 87.5 Q39 158 39 287 Q39 417 91.5 488 Q144 559 239 559 Q287 559 326 539.5 Q365 520 388 483 L388 546 L511 546 Z M282 143 Q308 143 330 154 Q352 165 375 189 L375 392 Q356 414 331 425.5 Q306 437 278 437 Q178 437 178 292 Q178 143 282 143 Z M288 617 Q250 617 228.5 637.5 Q207 658 207 694 Q207 731 228.5 751.5 Q250 772 288 772 Q326 772 347.5 751.5 Q369 731 369 695 Q369 658 347.5 637.5 Q326 617 288 617 Z " />
<glyph glyph-name="uni1E21" unicode="&#x1e21;" horiz-adv-x="583" d="M511 546 L511 22 Q511 -94 445.5 -157 Q380 -220 260 -220 Q211 -220 163.5 -209.5 Q116 -199 78 -179 L116 -72 Q183 -101 245 -101 Q375 -101 375 22 L375 87 Q326 17 238 17 Q143 17 91 87.5 Q39 158 39 287 Q39 417 91.5 488 Q144 559 239 559 Q287 559 326 539.5 Q365 520 388 483 L388 546 L511 546 Z M282 143 Q308 143 330 154 Q352 165 375 189 L375 392 Q356 414 331 425.5 Q306 437 278 437 Q178 437 178 292 Q178 143 282 143 Z M124 728 L452 728 L452 636 L124 636 L124 728 Z " />
<glyph glyph-name="uni0261" unicode="&#x261;" horiz-adv-x="583" d="M511 546 L511 22 Q511 -94 445.5 -157 Q380 -220 260 -220 Q211 -220 163.5 -209.5 Q116 -199 78 -179 L116 -72 Q183 -101 245 -101 Q375 -101 375 22 L375 87 Q326 17 238 17 Q143 17 91 87.5 Q39 158 39 287 Q39 417 91.5 488 Q144 559 239 559 Q287 559 326 539.5 Q365 520 388 483 L388 546 L511 546 Z M282 143 Q308 143 330 154 Q352 165 375 189 L375 392 Q356 414 331 425.5 Q306 437 278 437 Q178 437 178 292 Q178 143 282 143 Z " />
<glyph glyph-name="h" unicode="h" horiz-adv-x="590" d="M360 559 Q438 559 480.5 512.5 Q523 466 523 380 L523 0 L387 0 L387 360 Q387 433 307 433 Q279 433 256 424 Q233 415 208 396 L208 0 L72 0 L72 770 L208 770 L208 492 Q269 559 360 559 Z " />
<glyph glyph-name="hbar" unicode="&#x127;" horiz-adv-x="592" d="M361 541 Q440 541 482.5 494.5 Q525 448 525 362 L525 0 L389 0 L389 342 Q389 415 308 415 Q279 415 256 406 Q233 397 208 378 L208 0 L72 0 L72 603 L10 603 L10 696 L72 696 L72 770 L208 770 L208 696 L406 696 L406 603 L208 603 L208 474 Q269 541 361 541 Z " />
<glyph glyph-name="uni1E2B" unicode="&#x1e2b;" horiz-adv-x="590" d="M360 559 Q438 559 480.5 512.5 Q523 466 523 380 L523 0 L387 0 L387 360 Q387 433 307 433 Q279 433 256 424 Q233 415 208 396 L208 0 L72 0 L72 770 L208 770 L208 492 Q269 559 360 559 Z M299 -227 Q224 -227 182 -183.5 Q140 -140 137 -57 L215 -57 Q225 -130 300 -130 Q376 -130 386 -57 L461 -57 Q458 -140 416 -183.5 Q374 -227 299 -227 Z " />
<glyph glyph-name="hcircumflex" unicode="&#x125;" horiz-adv-x="590" d="M138 903 L56 827 L-42 827 L-42 839 L75 972 L205 972 L322 839 L322 827 L221 827 L138 903 Z M360 559 Q438 559 480.5 512.5 Q523 466 523 380 L523 0 L387 0 L387 360 Q387 433 307 433 Q279 433 256 424 Q233 415 208 396 L208 0 L72 0 L72 770 L208 770 L208 492 Q269 559 360 559 Z " />
<glyph glyph-name="uni1E25" unicode="&#x1e25;" horiz-adv-x="590" d="M360 559 Q438 559 480.5 512.5 Q523 466 523 380 L523 0 L387 0 L387 360 Q387 433 307 433 Q279 433 256 424 Q233 415 208 396 L208 0 L72 0 L72 770 L208 770 L208 492 Q269 559 360 559 Z M299 -228 Q261 -228 239.5 -207.5 Q218 -187 218 -151 Q218 -114 239.5 -93.5 Q261 -73 299 -73 Q337 -73 358.5 -93.5 Q380 -114 380 -150 Q380 -187 358.5 -207.5 Q337 -228 299 -228 Z " />
<glyph glyph-name="i" unicode="i" horiz-adv-x="284" d="M74 546 L210 546 L210 0 L74 0 L74 546 Z M142 617 Q104 617 82.5 637.5 Q61 658 61 694 Q61 731 82.5 751.5 Q104 772 142 772 Q180 772 201.5 751.5 Q223 731 223 695 Q223 658 201.5 637.5 Q180 617 142 617 Z " />
<glyph glyph-name="dotlessi" unicode="&#x131;" horiz-adv-x="284" d="M74 546 L210 546 L210 0 L74 0 L74 546 Z " />
<glyph glyph-name="iacute" unicode="&#xed;" horiz-adv-x="284" d="M74 546 L210 546 L210 0 L74 0 L74 546 Z M68 625 L163 784 L304 784 L304 774 L172 615 L68 615 L68 625 Z " />
<glyph glyph-name="uni01D0" unicode="&#x1d0;" horiz-adv-x="284" d="M74 546 L210 546 L210 0 L74 0 L74 546 Z M306 784 L306 774 L204 615 L80 615 L-22 774 L-22 784 L73 784 L143 696 L214 784 L306 784 Z " />
<glyph glyph-name="icircumflex" unicode="&#xee;" horiz-adv-x="284" d="M74 546 L210 546 L210 0 L74 0 L74 546 Z M306 625 L306 615 L211 615 L140 703 L70 615 L-22 615 L-22 625 L80 784 L204 784 L306 625 Z " />
<glyph glyph-name="idieresis" unicode="&#xef;" horiz-adv-x="284" d="M47 614 Q14 614 -5 633 Q-24 652 -24 684 Q-24 718 -5.5 737 Q13 756 47 756 Q80 756 98.5 737 Q117 718 117 685 Q117 651 98.5 632.5 Q80 614 47 614 Z M238 614 Q205 614 186 633 Q167 652 167 684 Q167 718 185.5 737 Q204 756 238 756 Q271 756 289.5 737 Q308 718 308 685 Q308 651 289.5 632.5 Q271 614 238 614 Z M74 546 L210 546 L210 0 L74 0 L74 546 Z " />
<glyph glyph-name="uni1ECB" unicode="&#x1ecb;" horiz-adv-x="284" d="M74 546 L210 546 L210 0 L74 0 L74 546 Z M142 617 Q104 617 82.5 637.5 Q61 658 61 694 Q61 731 82.5 751.5 Q104 772 142 772 Q180 772 201.5 751.5 Q223 731 223 695 Q223 658 201.5 637.5 Q180 617 142 617 Z M142 -228 Q104 -228 82.5 -207.5 Q61 -187 61 -151 Q61 -114 82.5 -93.5 Q104 -73 142 -73 Q180 -73 201.5 -93.5 Q223 -114 223 -150 Q223 -187 201.5 -207.5 Q180 -228 142 -228 Z " />
<glyph glyph-name="igrave" unicode="&#xec;" horiz-adv-x="284" d="M74 546 L210 546 L210 0 L74 0 L74 546 Z M-8 774 L-8 784 L133 784 L220 625 L220 615 L116 615 L-8 774 Z " />
<glyph glyph-name="uni1EC9" unicode="&#x1ec9;" horiz-adv-x="284" d="M74 546 L210 546 L210 0 L74 0 L74 546 Z M96 615 Q94 627 94 638 Q94 662 103 675 Q112 688 127 699 Q145 712 145 724 Q145 740 122 740 Q97 740 63 723 L34 786 Q84 817 150 817 Q200 817 227.5 796 Q255 775 255 737 Q255 711 245 698 Q235 685 215 673 Q201 664 193.5 656 Q186 648 186 635 Q186 627 188 615 L96 615 Z " />
<glyph glyph-name="ij" unicode="&#x133;" horiz-adv-x="568" d="M74 546 L210 546 L210 0 L74 0 L74 546 Z M142 617 Q104 617 82.5 637.5 Q61 658 61 694 Q61 731 82.5 751.5 Q104 772 142 772 Q180 772 201.5 751.5 Q223 731 223 695 Q223 658 201.5 637.5 Q180 617 142 617 Z M215 -112 Q274 -92 304.5 -71.5 Q335 -51 346.5 -23 Q358 5 358 53 L358 546 L494 546 L494 49 Q494 -28 473 -77 Q452 -126 402 -159.5 Q352 -193 260 -223 L215 -112 Z M426 617 Q388 617 366.5 637.5 Q345 658 345 694 Q345 731 366.5 751.5 Q388 772 426 772 Q464 772 485.5 751.5 Q507 731 507 695 Q507 658 485.5 637.5 Q464 617 426 617 Z " />
<glyph glyph-name="imacron" unicode="&#x12b;" horiz-adv-x="284" d="M12 728 L272 728 L272 636 L12 636 L12 728 Z M74 546 L210 546 L210 0 L74 0 L74 546 Z " />
<glyph glyph-name="iogonek" unicode="&#x12f;" horiz-adv-x="284" d="M142 617 Q104 617 82.5 637.5 Q61 658 61 694 Q61 731 82.5 751.5 Q104 772 142 772 Q180 772 201.5 751.5 Q223 731 223 695 Q223 658 201.5 637.5 Q180 617 142 617 Z M274 -199 Q250 -214 219 -222 Q188 -230 156 -230 Q97 -230 64 -203 Q31 -176 31 -127 Q31 -89 51 -56 Q71 -23 108 0 L74 0 L74 546 L210 546 L210 0 Q142 -50 142 -102 Q142 -142 188 -142 Q215 -142 244 -129 L274 -199 Z " />
<glyph glyph-name="itilde" unicode="&#x129;" horiz-adv-x="284" d="M200 615 Q172 615 155.5 624.5 Q139 634 123 651 Q113 662 104.5 667.5 Q96 673 85 673 Q50 673 44 617 L-30 617 Q-30 688 0 727.5 Q30 767 84 767 Q112 767 128.5 757.5 Q145 748 161 731 Q171 720 179.5 714.5 Q188 709 199 709 Q234 709 240 765 L314 765 Q314 694 284 654.5 Q254 615 200 615 Z M74 546 L210 546 L210 0 L74 0 L74 546 Z " />
<glyph glyph-name="j" unicode="j" horiz-adv-x="284" d="M-69 -112 Q-10 -92 20.5 -71.5 Q51 -51 62.5 -23 Q74 5 74 53 L74 546 L210 546 L210 49 Q210 -28 189 -77 Q168 -126 118 -159.5 Q68 -193 -24 -223 L-69 -112 Z M142 617 Q104 617 82.5 637.5 Q61 658 61 694 Q61 731 82.5 751.5 Q104 772 142 772 Q180 772 201.5 751.5 Q223 731 223 695 Q223 658 201.5 637.5 Q180 617 142 617 Z " />
<glyph glyph-name="uni0237" unicode="&#x237;" horiz-adv-x="284" d="M-69 -112 Q-10 -92 20.5 -71.5 Q51 -51 62.5 -23 Q74 5 74 53 L74 546 L210 546 L210 49 Q210 -28 189 -77 Q168 -126 118 -159.5 Q68 -193 -24 -223 L-69 -112 Z " />
<glyph glyph-name="jcircumflex" unicode="&#x135;" horiz-adv-x="284" d="M-69 -112 Q-10 -92 20.5 -71.5 Q51 -51 62.5 -23 Q74 5 74 53 L74 546 L210 546 L210 49 Q210 -28 189 -77 Q168 -126 118 -159.5 Q68 -193 -24 -223 L-69 -112 Z M306 625 L306 615 L211 615 L140 703 L70 615 L-22 615 L-22 625 L80 784 L204 784 L306 625 Z " />
<glyph glyph-name="k" unicode="k" horiz-adv-x="565" d="M265 215 L208 147 L208 0 L72 0 L72 770 L208 770 L208 320 L389 546 L544 546 L351 317 L559 0 L404 0 L265 215 Z " />
<glyph glyph-name="kcommaaccent" unicode="&#x137;" horiz-adv-x="565" d="M265 215 L208 147 L208 0 L72 0 L72 770 L208 770 L208 320 L389 546 L544 546 L351 317 L559 0 L404 0 L265 215 Z M190 -238 Q215 -211 225 -183.5 Q235 -156 235 -116 Q235 -92 231 -66 L355 -66 Q359 -92 359 -115 Q359 -163 330.5 -205 Q302 -247 239 -291 L190 -238 Z " />
<glyph glyph-name="kgreenlandic" unicode="&#x138;" horiz-adv-x="565" d="M265 215 L208 147 L208 0 L72 0 L72 546 L208 546 L208 320 L389 546 L544 546 L351 317 L559 0 L404 0 L265 215 Z " />
<glyph glyph-name="l" unicode="l" horiz-adv-x="326" d="M217 -7 Q143 -7 106.5 29 Q70 65 70 139 L70 770 L206 770 L206 169 Q206 140 217 127 Q228 114 254 114 Q270 114 289 117 L298 2 Q259 -7 217 -7 Z " />
<glyph glyph-name="lacute" unicode="&#x13a;" horiz-adv-x="326" d="M52 839 L197 972 L348 972 L348 960 L166 827 L52 827 L52 839 Z M217 -7 Q143 -7 106.5 29 Q70 65 70 139 L70 770 L206 770 L206 169 Q206 140 217 127 Q228 114 254 114 Q270 114 289 117 L298 2 Q259 -7 217 -7 Z " />
<glyph glyph-name="lcaron" unicode="&#x13e;" horiz-adv-x="328" d="M217 -7 Q143 -7 106.5 29 Q70 65 70 139 L70 770 L206 770 L206 169 Q206 140 217 127 Q228 114 254 114 Q270 114 289 117 L298 2 Q259 -7 217 -7 Z M265 770 L377 770 L377 760 L343 540 L265 540 L265 770 Z " />
<glyph glyph-name="lcommaaccent" unicode="&#x13c;" horiz-adv-x="326" d="M217 -7 Q143 -7 106.5 29 Q70 65 70 139 L70 770 L206 770 L206 169 Q206 140 217 127 Q228 114 254 114 Q270 114 289 117 L298 2 Q259 -7 217 -7 Z M73 -238 Q98 -211 108 -183.5 Q118 -156 118 -116 Q118 -92 114 -66 L238 -66 Q242 -92 242 -115 Q242 -163 213.5 -205 Q185 -247 122 -291 L73 -238 Z " />
<glyph glyph-name="ldot" unicode="&#x140;" horiz-adv-x="397" d="M217 -7 Q143 -7 106.5 29 Q70 65 70 139 L70 770 L206 770 L206 169 Q206 140 217 127 Q228 114 254 114 Q270 114 289 117 L298 2 Q259 -7 217 -7 Z M336 323 Q298 323 276.5 343.5 Q255 364 255 400 Q255 437 276.5 457.5 Q298 478 336 478 Q374 478 395.5 457.5 Q417 437 417 401 Q417 364 395.5 343.5 Q374 323 336 323 Z " />
<glyph glyph-name="uni1E37" unicode="&#x1e37;" horiz-adv-x="326" d="M217 -7 Q143 -7 106.5 29 Q70 65 70 139 L70 770 L206 770 L206 169 Q206 140 217 127 Q228 114 254 114 Q270 114 289 117 L298 2 Q259 -7 217 -7 Z M178 -228 Q140 -228 118.5 -207.5 Q97 -187 97 -151 Q97 -114 118.5 -93.5 Q140 -73 178 -73 Q216 -73 237.5 -93.5 Q259 -114 259 -150 Q259 -187 237.5 -207.5 Q216 -228 178 -228 Z " />
<glyph glyph-name="uni1E39" unicode="&#x1e39;" horiz-adv-x="326" d="M8 944 L268 944 L268 852 L8 852 L8 944 Z M217 -7 Q143 -7 106.5 29 Q70 65 70 139 L70 770 L206 770 L206 169 Q206 140 217 127 Q228 114 254 114 Q270 114 289 117 L298 2 Q259 -7 217 -7 Z M178 -228 Q140 -228 118.5 -207.5 Q97 -187 97 -151 Q97 -114 118.5 -93.5 Q140 -73 178 -73 Q216 -73 237.5 -93.5 Q259 -114 259 -150 Q259 -187 237.5 -207.5 Q216 -228 178 -228 Z " />
<glyph glyph-name="uni1E3B" unicode="&#x1e3b;" horiz-adv-x="326" d="M217 -7 Q143 -7 106.5 29 Q70 65 70 139 L70 770 L206 770 L206 169 Q206 140 217 127 Q228 114 254 114 Q270 114 289 117 L298 2 Q259 -7 217 -7 Z M48 -96 L308 -96 L308 -188 L48 -188 L48 -96 Z " />
<glyph glyph-name="lslash" unicode="&#x142;" horiz-adv-x="362" d="M230 383 L230 169 Q230 140 241 127 Q252 114 278 114 Q294 114 313 117 L322 2 Q283 -7 241 -7 Q167 -7 130.5 29 Q94 65 94 139 L94 302 L28 261 L18 261 L18 367 L94 412 L94 770 L230 770 L230 493 L317 546 L327 546 L327 440 L230 383 Z " />
<glyph glyph-name="m" unicode="m" horiz-adv-x="887" d="M662 559 Q737 559 778.5 512 Q820 465 820 380 L820 0 L684 0 L684 360 Q684 433 609 433 Q584 433 561.5 424 Q539 415 515 396 L515 380 L515 0 L379 0 L379 360 Q379 433 303 433 Q255 433 208 396 L208 0 L72 0 L72 546 L195 546 L195 477 Q259 559 356 559 Q407 559 443.5 537 Q480 515 498 473 Q566 559 662 559 Z " />
<glyph glyph-name="uni1E43" unicode="&#x1e43;" horiz-adv-x="887" d="M662 559 Q737 559 778.5 512 Q820 465 820 380 L820 0 L684 0 L684 360 Q684 433 609 433 Q584 433 561.5 424 Q539 415 515 396 L515 380 L515 0 L379 0 L379 360 Q379 433 303 433 Q255 433 208 396 L208 0 L72 0 L72 546 L195 546 L195 477 Q259 559 356 559 Q407 559 443.5 537 Q480 515 498 473 Q566 559 662 559 Z M446 -228 Q408 -228 386.5 -207.5 Q365 -187 365 -151 Q365 -114 386.5 -93.5 Q408 -73 446 -73 Q484 -73 505.5 -93.5 Q527 -114 527 -150 Q527 -187 505.5 -207.5 Q484 -228 446 -228 Z " />
<glyph glyph-name="n" unicode="n" horiz-adv-x="588" d="M359 559 Q436 559 478.5 512 Q521 465 521 380 L521 0 L385 0 L385 360 Q385 433 306 433 Q279 433 256 424 Q233 415 208 396 L208 0 L72 0 L72 546 L195 546 L195 477 Q259 559 359 559 Z " />
<glyph glyph-name="nacute" unicode="&#x144;" horiz-adv-x="588" d="M359 559 Q436 559 478.5 512 Q521 465 521 380 L521 0 L385 0 L385 360 Q385 433 306 433 Q279 433 256 424 Q233 415 208 396 L208 0 L72 0 L72 546 L195 546 L195 477 Q259 559 359 559 Z M223 625 L318 784 L459 784 L459 774 L327 615 L223 615 L223 625 Z " />
<glyph glyph-name="napostrophe" unicode="&#x149;" horiz-adv-x="588" d="M359 559 Q436 559 478.5 512 Q521 465 521 380 L521 0 L385 0 L385 360 Q385 433 306 433 Q279 433 256 424 Q233 415 208 396 L208 0 L72 0 L72 546 L195 546 L195 477 Q259 559 359 559 Z M-96 564 Q-64 598 -51 631 Q-38 664 -38 712 Q-38 748 -40 770 L82 770 Q84 748 84 713 Q84 657 53 609 Q22 561 -48 512 L-96 564 Z " />
<glyph glyph-name="ncaron" unicode="&#x148;" horiz-adv-x="588" d="M359 559 Q436 559 478.5 512 Q521 465 521 380 L521 0 L385 0 L385 360 Q385 433 306 433 Q279 433 256 424 Q233 415 208 396 L208 0 L72 0 L72 546 L195 546 L195 477 Q259 559 359 559 Z M461 784 L461 774 L359 615 L235 615 L133 774 L133 784 L228 784 L298 696 L369 784 L461 784 Z " />
<glyph glyph-name="ncommaaccent" unicode="&#x146;" horiz-adv-x="588" d="M359 559 Q436 559 478.5 512 Q521 465 521 380 L521 0 L385 0 L385 360 Q385 433 306 433 Q279 433 256 424 Q233 415 208 396 L208 0 L72 0 L72 546 L195 546 L195 477 Q259 559 359 559 Z M193 -238 Q218 -211 228 -183.5 Q238 -156 238 -116 Q238 -92 234 -66 L358 -66 Q362 -92 362 -115 Q362 -163 333.5 -205 Q305 -247 242 -291 L193 -238 Z " />
<glyph glyph-name="uni1E45" unicode="&#x1e45;" horiz-adv-x="588" d="M359 559 Q436 559 478.5 512 Q521 465 521 380 L521 0 L385 0 L385 360 Q385 433 306 433 Q279 433 256 424 Q233 415 208 396 L208 0 L72 0 L72 546 L195 546 L195 477 Q259 559 359 559 Z M297 617 Q259 617 237.5 637.5 Q216 658 216 694 Q216 731 237.5 751.5 Q259 772 297 772 Q335 772 356.5 751.5 Q378 731 378 695 Q378 658 356.5 637.5 Q335 617 297 617 Z " />
<glyph glyph-name="uni1E47" unicode="&#x1e47;" horiz-adv-x="588" d="M359 559 Q436 559 478.5 512 Q521 465 521 380 L521 0 L385 0 L385 360 Q385 433 306 433 Q279 433 256 424 Q233 415 208 396 L208 0 L72 0 L72 546 L195 546 L195 477 Q259 559 359 559 Z M298 -228 Q260 -228 238.5 -207.5 Q217 -187 217 -151 Q217 -114 238.5 -93.5 Q260 -73 298 -73 Q336 -73 357.5 -93.5 Q379 -114 379 -150 Q379 -187 357.5 -207.5 Q336 -228 298 -228 Z " />
<glyph glyph-name="uni1E49" unicode="&#x1e49;" horiz-adv-x="588" d="M359 559 Q436 559 478.5 512 Q521 465 521 380 L521 0 L385 0 L385 360 Q385 433 306 433 Q279 433 256 424 Q233 415 208 396 L208 0 L72 0 L72 546 L195 546 L195 477 Q259 559 359 559 Z M134 -96 L462 -96 L462 -188 L134 -188 L134 -96 Z " />
<glyph glyph-name="ntilde" unicode="&#xf1;" horiz-adv-x="588" d="M359 559 Q436 559 478.5 512 Q521 465 521 380 L521 0 L385 0 L385 360 Q385 433 306 433 Q279 433 256 424 Q233 415 208 396 L208 0 L72 0 L72 546 L195 546 L195 477 Q259 559 359 559 Z M368 615 Q341 615 321.5 624 Q302 633 276 650 Q261 661 249.5 666.5 Q238 672 226 672 Q193 672 187 617 L112 617 Q113 688 143 727.5 Q173 767 226 767 Q253 767 272.5 758 Q292 749 318 732 Q333 721 344.5 715.5 Q356 710 368 710 Q401 710 407 765 L482 765 Q481 694 451 654.5 Q421 615 368 615 Z " />
<glyph glyph-name="o" unicode="o" horiz-adv-x="563" d="M281 -13 Q164 -13 101.5 59 Q39 131 39 273 Q39 414 102 486.5 Q165 559 282 559 Q399 559 461.5 487 Q524 415 524 273 Q524 132 461 59.5 Q398 -13 281 -13 Z M281 108 Q385 108 385 273 Q385 438 282 438 Q178 438 178 273 Q178 108 281 108 Z " />
<glyph glyph-name="oacute" unicode="&#xf3;" horiz-adv-x="563" d="M281 -13 Q164 -13 101.5 59 Q39 131 39 273 Q39 414 102 486.5 Q165 559 282 559 Q399 559 461.5 487 Q524 415 524 273 Q524 132 461 59.5 Q398 -13 281 -13 Z M281 108 Q385 108 385 273 Q385 438 282 438 Q178 438 178 273 Q178 108 281 108 Z M208 625 L303 784 L444 784 L444 774 L312 615 L208 615 L208 625 Z " />
<glyph glyph-name="uni01D2" unicode="&#x1d2;" horiz-adv-x="563" d="M281 -13 Q164 -13 101.5 59 Q39 131 39 273 Q39 414 102 486.5 Q165 559 282 559 Q399 559 461.5 487 Q524 415 524 273 Q524 132 461 59.5 Q398 -13 281 -13 Z M281 108 Q385 108 385 273 Q385 438 282 438 Q178 438 178 273 Q178 108 281 108 Z M446 784 L446 774 L344 615 L220 615 L118 774 L118 784 L213 784 L283 696 L354 784 L446 784 Z " />
<glyph glyph-name="ocircumflex" unicode="&#xf4;" horiz-adv-x="563" d="M281 -13 Q164 -13 101.5 59 Q39 131 39 273 Q39 414 102 486.5 Q165 559 282 559 Q399 559 461.5 487 Q524 415 524 273 Q524 132 461 59.5 Q398 -13 281 -13 Z M281 108 Q385 108 385 273 Q385 438 282 438 Q178 438 178 273 Q178 108 281 108 Z M446 625 L446 615 L351 615 L280 703 L210 615 L118 615 L118 625 L220 784 L344 784 L446 625 Z " />
<glyph glyph-name="uni1ED1" unicode="&#x1ed1;" horiz-adv-x="563" d="M599 863 L599 853 L497 726 L407 726 L407 736 L480 863 L599 863 Z M208 615 L116 615 L116 625 L220 764 L344 764 L448 625 L448 615 L353 615 L280 692 L208 615 Z M282 559 Q399 559 461.5 487 Q524 415 524 273 Q524 132 461 59.5 Q398 -13 281 -13 Q164 -13 101.5 59 Q39 131 39 273 Q39 414 102 486.5 Q165 559 282 559 Z M281 108 Q385 108 385 273 Q385 438 282 438 Q178 438 178 273 Q178 108 281 108 Z " />
<glyph glyph-name="uni1ED9" unicode="&#x1ed9;" horiz-adv-x="563" d="M281 -13 Q164 -13 101.5 59 Q39 131 39 273 Q39 414 102 486.5 Q165 559 282 559 Q399 559 461.5 487 Q524 415 524 273 Q524 132 461 59.5 Q398 -13 281 -13 Z M281 108 Q385 108 385 273 Q385 438 282 438 Q178 438 178 273 Q178 108 281 108 Z M283 -228 Q245 -228 223.5 -207.5 Q202 -187 202 -151 Q202 -114 223.5 -93.5 Q245 -73 283 -73 Q321 -73 342.5 -93.5 Q364 -114 364 -150 Q364 -187 342.5 -207.5 Q321 -228 283 -228 Z M446 625 L446 615 L351 615 L280 703 L210 615 L118 615 L118 625 L220 784 L344 784 L446 625 Z " />
<glyph glyph-name="uni1ED3" unicode="&#x1ed3;" horiz-adv-x="563" d="M67 726 L-29 853 L-29 863 L90 863 L157 736 L157 726 L67 726 Z M116 625 L220 764 L344 764 L448 625 L448 615 L353 615 L280 692 L208 615 L116 615 L116 625 Z M282 559 Q399 559 461.5 487 Q524 415 524 273 Q524 132 461 59.5 Q398 -13 281 -13 Q164 -13 101.5 59 Q39 131 39 273 Q39 414 102 486.5 Q165 559 282 559 Z M281 108 Q385 108 385 273 Q385 438 282 438 Q178 438 178 273 Q178 108 281 108 Z " />
<glyph glyph-name="uni1ED5" unicode="&#x1ed5;" horiz-adv-x="563" d="M464 906 Q513 906 540.5 885.5 Q568 865 568 828 Q568 801 556 789 Q544 777 524 768 Q512 763 505.5 757.5 Q499 752 499 744 Q499 738 501 726 L411 726 Q409 738 409 747 Q409 767 417 777 Q425 787 441 797 Q450 802 455 806.5 Q460 811 460 818 Q460 832 437 832 Q413 832 380 816 L352 877 Q375 891 404.5 898.5 Q434 906 464 906 Z M208 615 L116 615 L116 625 L220 764 L344 764 L448 625 L448 615 L353 615 L280 692 L208 615 Z M282 559 Q399 559 461.5 487 Q524 415 524 273 Q524 132 461 59.5 Q398 -13 281 -13 Q164 -13 101.5 59 Q39 131 39 273 Q39 414 102 486.5 Q165 559 282 559 Z M281 108 Q385 108 385 273 Q385 438 282 438 Q178 438 178 273 Q178 108 281 108 Z " />
<glyph glyph-name="uni1ED7" unicode="&#x1ed7;" horiz-adv-x="563" d="M223 851 Q187 851 181 800 L113 800 Q113 865 142 901 Q171 937 224 937 Q251 937 267.5 928.5 Q284 920 299 905 Q313 893 320.5 888.5 Q328 884 341 884 Q377 884 383 935 L451 935 Q451 870 422 834 Q393 798 340 798 Q313 798 296.5 806.5 Q280 815 265 830 Q251 842 243.5 846.5 Q236 851 223 851 Z M344 764 L448 625 L448 615 L353 615 L280 692 L208 615 L116 615 L116 625 L220 764 L344 764 Z M282 559 Q399 559 461.5 487 Q524 415 524 273 Q524 132 461 59.5 Q398 -13 281 -13 Q164 -13 101.5 59 Q39 131 39 273 Q39 414 102 486.5 Q165 559 282 559 Z M281 108 Q385 108 385 273 Q385 438 282 438 Q178 438 178 273 Q178 108 281 108 Z " />
<glyph glyph-name="odieresis" unicode="&#xf6;" horiz-adv-x="563" d="M184 614 Q150 614 131 633 Q112 652 112 684 Q112 718 131 737 Q150 756 184 756 Q218 756 237.5 737 Q257 718 257 685 Q257 651 238 632.5 Q219 614 184 614 Z M379 614 Q345 614 326 633 Q307 652 307 684 Q307 718 326 737 Q345 756 379 756 Q413 756 432.5 737 Q452 718 452 685 Q452 651 433 632.5 Q414 614 379 614 Z M281 -13 Q164 -13 101.5 59 Q39 131 39 273 Q39 414 102 486.5 Q165 559 282 559 Q399 559 461.5 487 Q524 415 524 273 Q524 132 461 59.5 Q398 -13 281 -13 Z M281 108 Q385 108 385 273 Q385 438 282 438 Q178 438 178 273 Q178 108 281 108 Z " />
<glyph glyph-name="uni1ECD" unicode="&#x1ecd;" horiz-adv-x="563" d="M281 -13 Q164 -13 101.5 59 Q39 131 39 273 Q39 414 102 486.5 Q165 559 282 559 Q399 559 461.5 487 Q524 415 524 273 Q524 132 461 59.5 Q398 -13 281 -13 Z M281 108 Q385 108 385 273 Q385 438 282 438 Q178 438 178 273 Q178 108 281 108 Z M283 -228 Q245 -228 223.5 -207.5 Q202 -187 202 -151 Q202 -114 223.5 -93.5 Q245 -73 283 -73 Q321 -73 342.5 -93.5 Q364 -114 364 -150 Q364 -187 342.5 -207.5 Q321 -228 283 -228 Z " />
<glyph glyph-name="ograve" unicode="&#xf2;" horiz-adv-x="563" d="M281 -13 Q164 -13 101.5 59 Q39 131 39 273 Q39 414 102 486.5 Q165 559 282 559 Q399 559 461.5 487 Q524 415 524 273 Q524 132 461 59.5 Q398 -13 281 -13 Z M281 108 Q385 108 385 273 Q385 438 282 438 Q178 438 178 273 Q178 108 281 108 Z M132 774 L132 784 L273 784 L360 625 L360 615 L256 615 L132 774 Z " />
<glyph glyph-name="uni1ECF" unicode="&#x1ecf;" horiz-adv-x="563" d="M281 -13 Q164 -13 101.5 59 Q39 131 39 273 Q39 414 102 486.5 Q165 559 282 559 Q399 559 461.5 487 Q524 415 524 273 Q524 132 461 59.5 Q398 -13 281 -13 Z M281 108 Q385 108 385 273 Q385 438 282 438 Q178 438 178 273 Q178 108 281 108 Z M236 615 Q234 627 234 638 Q234 662 243 675 Q252 688 267 699 Q285 712 285 724 Q285 740 262 740 Q237 740 203 723 L174 786 Q224 817 290 817 Q340 817 367.5 796 Q395 775 395 737 Q395 711 385 698 Q375 685 355 673 Q341 664 333.5 656 Q326 648 326 635 Q326 627 328 615 L236 615 Z " />
<glyph glyph-name="ohorn" unicode="&#x1a1;" horiz-adv-x="573" d="M597 626 Q597 557 567 522.5 Q537 488 467 479 Q524 407 524 273 Q524 132 461 59.5 Q398 -13 281 -13 Q164 -13 101.5 59 Q39 131 39 273 Q39 414 102 486.5 Q165 559 282 559 Q319 559 349 552 Q383 546 407 546 Q451 546 467.5 562.5 Q484 579 484 624 Q484 649 479 685 L592 685 Q597 655 597 626 Z M281 108 Q385 108 385 273 Q385 438 282 438 Q178 438 178 273 Q178 108 281 108 Z " />
<glyph glyph-name="uni1EDB" unicode="&#x1edb;" horiz-adv-x="573" d="M597 626 Q597 557 567 522.5 Q537 488 467 479 Q524 407 524 273 Q524 132 461 59.5 Q398 -13 281 -13 Q164 -13 101.5 59 Q39 131 39 273 Q39 414 102 486.5 Q165 559 282 559 Q319 559 349 552 Q383 546 407 546 Q451 546 467.5 562.5 Q484 579 484 624 Q484 649 479 685 L592 685 Q597 655 597 626 Z M281 108 Q385 108 385 273 Q385 438 282 438 Q178 438 178 273 Q178 108 281 108 Z M208 625 L303 784 L444 784 L444 774 L312 615 L208 615 L208 625 Z " />
<glyph glyph-name="uni1EE3" unicode="&#x1ee3;" horiz-adv-x="573" d="M597 626 Q597 557 567 522.5 Q537 488 467 479 Q524 407 524 273 Q524 132 461 59.5 Q398 -13 281 -13 Q164 -13 101.5 59 Q39 131 39 273 Q39 414 102 486.5 Q165 559 282 559 Q319 559 349 552 Q383 546 407 546 Q451 546 467.5 562.5 Q484 579 484 624 Q484 649 479 685 L592 685 Q597 655 597 626 Z M281 108 Q385 108 385 273 Q385 438 282 438 Q178 438 178 273 Q178 108 281 108 Z M283 -228 Q245 -228 223.5 -207.5 Q202 -187 202 -151 Q202 -114 223.5 -93.5 Q245 -73 283 -73 Q321 -73 342.5 -93.5 Q364 -114 364 -150 Q364 -187 342.5 -207.5 Q321 -228 283 -228 Z " />
<glyph glyph-name="uni1EDD" unicode="&#x1edd;" horiz-adv-x="573" d="M597 626 Q597 557 567 522.5 Q537 488 467 479 Q524 407 524 273 Q524 132 461 59.5 Q398 -13 281 -13 Q164 -13 101.5 59 Q39 131 39 273 Q39 414 102 486.5 Q165 559 282 559 Q319 559 349 552 Q383 546 407 546 Q451 546 467.5 562.5 Q484 579 484 624 Q484 649 479 685 L592 685 Q597 655 597 626 Z M281 108 Q385 108 385 273 Q385 438 282 438 Q178 438 178 273 Q178 108 281 108 Z M132 774 L132 784 L273 784 L360 625 L360 615 L256 615 L132 774 Z " />
<glyph glyph-name="uni1EDF" unicode="&#x1edf;" horiz-adv-x="573" d="M597 626 Q597 557 567 522.5 Q537 488 467 479 Q524 407 524 273 Q524 132 461 59.5 Q398 -13 281 -13 Q164 -13 101.5 59 Q39 131 39 273 Q39 414 102 486.5 Q165 559 282 559 Q319 559 349 552 Q383 546 407 546 Q451 546 467.5 562.5 Q484 579 484 624 Q484 649 479 685 L592 685 Q597 655 597 626 Z M281 108 Q385 108 385 273 Q385 438 282 438 Q178 438 178 273 Q178 108 281 108 Z M236 615 Q234 627 234 638 Q234 662 243 675 Q252 688 267 699 Q285 712 285 724 Q285 740 262 740 Q237 740 203 723 L174 786 Q224 817 290 817 Q340 817 367.5 796 Q395 775 395 737 Q395 711 385 698 Q375 685 355 673 Q341 664 333.5 656 Q326 648 326 635 Q326 627 328 615 L236 615 Z " />
<glyph glyph-name="uni1EE1" unicode="&#x1ee1;" horiz-adv-x="573" d="M597 626 Q597 557 567 522.5 Q537 488 467 479 Q524 407 524 273 Q524 132 461 59.5 Q398 -13 281 -13 Q164 -13 101.5 59 Q39 131 39 273 Q39 414 102 486.5 Q165 559 282 559 Q319 559 349 552 Q383 546 407 546 Q451 546 467.5 562.5 Q484 579 484 624 Q484 649 479 685 L592 685 Q597 655 597 626 Z M281 108 Q385 108 385 273 Q385 438 282 438 Q178 438 178 273 Q178 108 281 108 Z M353 615 Q326 615 306.5 624 Q287 633 261 650 Q246 661 234.5 666.5 Q223 672 211 672 Q178 672 172 617 L97 617 Q98 688 128 727.5 Q158 767 211 767 Q238 767 257.5 758 Q277 749 303 732 Q318 721 329.5 715.5 Q341 710 353 710 Q386 710 392 765 L467 765 Q466 694 436 654.5 Q406 615 353 615 Z " />
<glyph glyph-name="ohungarumlaut" unicode="&#x151;" horiz-adv-x="563" d="M281 -13 Q164 -13 101.5 59 Q39 131 39 273 Q39 414 102 486.5 Q165 559 282 559 Q399 559 461.5 487 Q524 415 524 273 Q524 132 461 59.5 Q398 -13 281 -13 Z M281 108 Q385 108 385 273 Q385 438 282 438 Q178 438 178 273 Q178 108 281 108 Z M149 625 L203 784 L324 784 L324 774 L235 615 L149 615 L149 625 Z M304 625 L360 784 L481 784 L481 774 L390 615 L304 615 L304 625 Z " />
<glyph glyph-name="omacron" unicode="&#x14d;" horiz-adv-x="563" d="M281 -13 Q164 -13 101.5 59 Q39 131 39 273 Q39 414 102 486.5 Q165 559 282 559 Q399 559 461.5 487 Q524 415 524 273 Q524 132 461 59.5 Q398 -13 281 -13 Z M281 108 Q385 108 385 273 Q385 438 282 438 Q178 438 178 273 Q178 108 281 108 Z M118 728 L446 728 L446 636 L118 636 L118 728 Z " />
<glyph glyph-name="oslash" unicode="&#xf8;" horiz-adv-x="563" d="M554 546 L480 458 Q524 387 524 273 Q524 132 461 59.5 Q398 -13 281 -13 Q197 -13 139 28 L112 -10 L9 -10 L9 0 L83 88 Q39 159 39 273 Q39 414 102 486.5 Q165 559 282 559 Q366 559 424 518 L451 556 L554 556 L554 546 Z M282 444 Q172 444 172 273 Q172 237 177 204 L350 421 Q326 444 282 444 Z M281 102 Q391 102 391 273 Q391 309 386 342 L213 125 Q237 102 281 102 Z " />
<glyph glyph-name="otilde" unicode="&#xf5;" horiz-adv-x="563" d="M281 -13 Q164 -13 101.5 59 Q39 131 39 273 Q39 414 102 486.5 Q165 559 282 559 Q399 559 461.5 487 Q524 415 524 273 Q524 132 461 59.5 Q398 -13 281 -13 Z M281 108 Q385 108 385 273 Q385 438 282 438 Q178 438 178 273 Q178 108 281 108 Z M353 615 Q326 615 306.5 624 Q287 633 261 650 Q246 661 234.5 666.5 Q223 672 211 672 Q178 672 172 617 L97 617 Q98 688 128 727.5 Q158 767 211 767 Q238 767 257.5 758 Q277 749 303 732 Q318 721 329.5 715.5 Q341 710 353 710 Q386 710 392 765 L467 765 Q466 694 436 654.5 Q406 615 353 615 Z " />
<glyph glyph-name="oe" unicode="&#x153;" horiz-adv-x="881" d="M848 296 Q848 259 842 230 L516 230 Q533 110 649 110 Q711 110 778 142 L826 41 Q786 16 736 2 Q686 -12 634 -12 Q514 -12 448 62 Q388 -13 278 -13 Q165 -13 102 59.5 Q39 132 39 273 Q39 414 102.5 486.5 Q166 559 279 559 Q391 559 451 481 Q477 519 520 539 Q563 559 617 559 Q727 559 787.5 490 Q848 421 848 296 Z M614 440 Q528 440 515 321 L713 321 Q712 378 686 409 Q660 440 614 440 Z M278 108 Q379 108 379 273 Q379 438 279 438 Q178 438 178 273 Q178 108 278 108 Z " />
<glyph glyph-name="p" unicode="p" horiz-adv-x="581" d="M345 559 Q439 559 490.5 484.5 Q542 410 542 274 Q542 137 490 62 Q438 -13 344 -13 Q302 -13 267 2 Q232 17 208 45 L208 -207 L72 -207 L72 513 L72 546 L195 546 L195 468 Q246 559 345 559 Z M305 109 Q403 109 403 269 Q403 433 301 433 Q275 433 253 422 Q231 411 208 387 L208 154 Q227 132 252 120.5 Q277 109 305 109 Z " />
<glyph glyph-name="thorn" unicode="&#xfe;" horiz-adv-x="581" d="M345 559 Q439 559 490.5 484.5 Q542 410 542 274 Q542 137 490 62 Q438 -13 344 -13 Q302 -13 267 2 Q232 17 208 45 L208 -207 L72 -207 L72 513 L72 770 L208 770 L208 489 Q257 559 345 559 Z M305 109 Q403 109 403 269 Q403 433 301 433 Q275 433 253 422 Q231 411 208 387 L208 154 Q227 132 252 120.5 Q277 109 305 109 Z " />
<glyph glyph-name="q" unicode="q" horiz-adv-x="581" d="M509 546 L509 33 L509 -207 L373 -207 L373 57 Q324 -13 236 -13 Q142 -13 90.5 61.5 Q39 136 39 272 Q39 409 91 484 Q143 559 237 559 Q285 559 324 539.5 Q363 520 386 483 L386 546 L509 546 Z M280 113 Q306 113 328 124 Q350 135 373 159 L373 392 Q354 414 329 425.5 Q304 437 276 437 Q178 437 178 277 Q178 113 280 113 Z " />
<glyph glyph-name="r" unicode="r" horiz-adv-x="406" d="M336 557 Q370 557 396 544 L370 417 Q340 426 306 426 Q272 426 248.5 414.5 Q225 403 208 377 L208 0 L72 0 L72 546 L195 546 L195 460 Q241 557 336 557 Z " />
<glyph glyph-name="racute" unicode="&#x155;" horiz-adv-x="406" d="M336 557 Q370 557 396 544 L370 417 Q340 426 306 426 Q272 426 248.5 414.5 Q225 403 208 377 L208 0 L72 0 L72 546 L195 546 L195 460 Q241 557 336 557 Z M161 625 L256 784 L397 784 L397 774 L265 615 L161 615 L161 625 Z " />
<glyph glyph-name="rcaron" unicode="&#x159;" horiz-adv-x="406" d="M336 557 Q370 557 396 544 L370 417 Q340 426 306 426 Q272 426 248.5 414.5 Q225 403 208 377 L208 0 L72 0 L72 546 L195 546 L195 460 Q241 557 336 557 Z M399 784 L399 774 L297 615 L173 615 L71 774 L71 784 L166 784 L236 696 L307 784 L399 784 Z " />
<glyph glyph-name="rcommaaccent" unicode="&#x157;" horiz-adv-x="406" d="M336 557 Q370 557 396 544 L370 417 Q340 426 306 426 Q272 426 248.5 414.5 Q225 403 208 377 L208 0 L72 0 L72 546 L195 546 L195 460 Q241 557 336 557 Z M35 -238 Q60 -211 70 -183.5 Q80 -156 80 -116 Q80 -92 76 -66 L200 -66 Q204 -92 204 -115 Q204 -163 175.5 -205 Q147 -247 84 -291 L35 -238 Z " />
<glyph glyph-name="uni1E5B" unicode="&#x1e5b;" horiz-adv-x="406" d="M336 557 Q370 557 396 544 L370 417 Q340 426 306 426 Q272 426 248.5 414.5 Q225 403 208 377 L208 0 L72 0 L72 546 L195 546 L195 460 Q241 557 336 557 Z M140 -228 Q102 -228 80.5 -207.5 Q59 -187 59 -151 Q59 -114 80.5 -93.5 Q102 -73 140 -73 Q178 -73 199.5 -93.5 Q221 -114 221 -150 Q221 -187 199.5 -207.5 Q178 -228 140 -228 Z " />
<glyph glyph-name="uni1E5D" unicode="&#x1e5d;" horiz-adv-x="406" d="M365 636 L105 636 L105 728 L365 728 L365 636 Z M336 557 Q370 557 396 544 L370 417 Q340 426 306 426 Q272 426 248.5 414.5 Q225 403 208 377 L208 0 L72 0 L72 546 L195 546 L195 460 Q241 557 336 557 Z M140 -73 Q178 -73 199.5 -93.5 Q221 -114 221 -150 Q221 -187 199.5 -207.5 Q178 -228 140 -228 Q102 -228 80.5 -207.5 Q59 -187 59 -151 Q59 -114 80.5 -93.5 Q102 -73 140 -73 Z " />
<glyph glyph-name="uni1E5F" unicode="&#x1e5f;" horiz-adv-x="406" d="M336 557 Q370 557 396 544 L370 417 Q340 426 306 426 Q272 426 248.5 414.5 Q225 403 208 377 L208 0 L72 0 L72 546 L195 546 L195 460 Q241 557 336 557 Z M10 -96 L270 -96 L270 -188 L10 -188 L10 -96 Z " />
<glyph glyph-name="s" unicode="s" horiz-adv-x="471" d="M224 -12 Q167 -12 113.5 2.5 Q60 17 20 43 L67 153 Q141 107 224 107 Q311 107 311 156 Q311 176 295.5 189 Q280 202 245 210 L174 227 Q97 245 63 282 Q29 319 29 383 Q29 466 83.5 512 Q138 558 237 558 Q287 558 337 545.5 Q387 533 427 511 L377 403 Q303 439 235 439 Q159 439 159 396 Q159 377 175 364.5 Q191 352 225 344 L296 327 Q372 309 406.5 271.5 Q441 234 441 169 Q441 83 384 35.5 Q327 -12 224 -12 Z " />
<glyph glyph-name="sacute" unicode="&#x15b;" horiz-adv-x="471" d="M224 -12 Q167 -12 113.5 2.5 Q60 17 20 43 L67 153 Q141 107 224 107 Q311 107 311 156 Q311 176 295.5 189 Q280 202 245 210 L174 227 Q97 245 63 282 Q29 319 29 383 Q29 466 83.5 512 Q138 558 237 558 Q287 558 337 545.5 Q387 533 427 511 L377 403 Q303 439 235 439 Q159 439 159 396 Q159 377 175 364.5 Q191 352 225 344 L296 327 Q372 309 406.5 271.5 Q441 234 441 169 Q441 83 384 35.5 Q327 -12 224 -12 Z M154 625 L249 784 L390 784 L390 774 L258 615 L154 615 L154 625 Z " />
<glyph glyph-name="scaron" unicode="&#x161;" horiz-adv-x="471" d="M224 -12 Q167 -12 113.5 2.5 Q60 17 20 43 L67 153 Q141 107 224 107 Q311 107 311 156 Q311 176 295.5 189 Q280 202 245 210 L174 227 Q97 245 63 282 Q29 319 29 383 Q29 466 83.5 512 Q138 558 237 558 Q287 558 337 545.5 Q387 533 427 511 L377 403 Q303 439 235 439 Q159 439 159 396 Q159 377 175 364.5 Q191 352 225 344 L296 327 Q372 309 406.5 271.5 Q441 234 441 169 Q441 83 384 35.5 Q327 -12 224 -12 Z M392 784 L392 774 L290 615 L166 615 L64 774 L64 784 L159 784 L229 696 L300 784 L392 784 Z " />
<glyph glyph-name="scedilla" unicode="&#x15f;" horiz-adv-x="471" d="M441 169 Q441 90 394 44 Q347 -2 260 -10 L230 -51 Q244 -49 251 -49 Q305 -49 334.5 -71.5 Q364 -94 364 -135 Q364 -185 328 -212.5 Q292 -240 226 -240 Q158 -240 104 -214 L125 -152 Q178 -169 211 -169 Q260 -169 260 -138 Q260 -109 217 -109 Q196 -109 178 -116 L148 -82 L178 -10 Q83 1 20 43 L67 153 Q141 107 224 107 Q311 107 311 156 Q311 176 295.5 189 Q280 202 245 210 L174 227 Q97 245 63 282 Q29 319 29 383 Q29 466 83.5 512 Q138 558 237 558 Q287 558 337 545.5 Q387 533 427 511 L377 403 Q303 439 235 439 Q159 439 159 396 Q159 377 175 364.5 Q191 352 225 344 L296 327 Q372 309 406.5 271.5 Q441 234 441 169 Z " />
<glyph glyph-name="scircumflex" unicode="&#x15d;" horiz-adv-x="471" d="M224 -12 Q167 -12 113.5 2.5 Q60 17 20 43 L67 153 Q141 107 224 107 Q311 107 311 156 Q311 176 295.5 189 Q280 202 245 210 L174 227 Q97 245 63 282 Q29 319 29 383 Q29 466 83.5 512 Q138 558 237 558 Q287 558 337 545.5 Q387 533 427 511 L377 403 Q303 439 235 439 Q159 439 159 396 Q159 377 175 364.5 Q191 352 225 344 L296 327 Q372 309 406.5 271.5 Q441 234 441 169 Q441 83 384 35.5 Q327 -12 224 -12 Z M392 625 L392 615 L297 615 L226 703 L156 615 L64 615 L64 625 L166 784 L290 784 L392 625 Z " />
<glyph glyph-name="scommaaccent" unicode="&#x219;" horiz-adv-x="471" d="M224 -12 Q167 -12 113.5 2.5 Q60 17 20 43 L67 153 Q141 107 224 107 Q311 107 311 156 Q311 176 295.5 189 Q280 202 245 210 L174 227 Q97 245 63 282 Q29 319 29 383 Q29 466 83.5 512 Q138 558 237 558 Q287 558 337 545.5 Q387 533 427 511 L377 403 Q303 439 235 439 Q159 439 159 396 Q159 377 175 364.5 Q191 352 225 344 L296 327 Q372 309 406.5 271.5 Q441 234 441 169 Q441 83 384 35.5 Q327 -12 224 -12 Z M127 -238 Q152 -211 162 -183.5 Q172 -156 172 -116 Q172 -92 168 -66 L292 -66 Q296 -92 296 -115 Q296 -163 267.5 -205 Q239 -247 176 -291 L127 -238 Z " />
<glyph glyph-name="uni1E61" unicode="&#x1e61;" horiz-adv-x="471" d="M224 -12 Q167 -12 113.5 2.5 Q60 17 20 43 L67 153 Q141 107 224 107 Q311 107 311 156 Q311 176 295.5 189 Q280 202 245 210 L174 227 Q97 245 63 282 Q29 319 29 383 Q29 466 83.5 512 Q138 558 237 558 Q287 558 337 545.5 Q387 533 427 511 L377 403 Q303 439 235 439 Q159 439 159 396 Q159 377 175 364.5 Q191 352 225 344 L296 327 Q372 309 406.5 271.5 Q441 234 441 169 Q441 83 384 35.5 Q327 -12 224 -12 Z M228 617 Q190 617 168.5 637.5 Q147 658 147 694 Q147 731 168.5 751.5 Q190 772 228 772 Q266 772 287.5 751.5 Q309 731 309 695 Q309 658 287.5 637.5 Q266 617 228 617 Z " />
<glyph glyph-name="uni1E63" unicode="&#x1e63;" horiz-adv-x="471" d="M224 -12 Q167 -12 113.5 2.5 Q60 17 20 43 L67 153 Q141 107 224 107 Q311 107 311 156 Q311 176 295.5 189 Q280 202 245 210 L174 227 Q97 245 63 282 Q29 319 29 383 Q29 466 83.5 512 Q138 558 237 558 Q287 558 337 545.5 Q387 533 427 511 L377 403 Q303 439 235 439 Q159 439 159 396 Q159 377 175 364.5 Q191 352 225 344 L296 327 Q372 309 406.5 271.5 Q441 234 441 169 Q441 83 384 35.5 Q327 -12 224 -12 Z M232 -228 Q194 -228 172.5 -207.5 Q151 -187 151 -151 Q151 -114 172.5 -93.5 Q194 -73 232 -73 Q270 -73 291.5 -93.5 Q313 -114 313 -150 Q313 -187 291.5 -207.5 Q270 -228 232 -228 Z " />
<glyph glyph-name="germandbls" unicode="&#xdf;" horiz-adv-x="604" d="M410 428 Q575 388 575 216 Q575 110 515.5 51.5 Q456 -7 347 -7 Q301 -7 257 6 L279 115 Q314 106 347 106 Q447 106 447 204 Q447 336 274 346 L274 448 Q326 472 350 504.5 Q374 537 374 584 Q374 668 299 668 Q208 668 208 547 L208 0 L72 0 L72 547 Q72 662 130 724.5 Q188 787 295 787 Q393 787 446.5 738 Q500 689 500 599 Q500 488 410 428 Z " />
<glyph glyph-name="uni0259" unicode="&#x259;" horiz-adv-x="546" d="M250 558 Q374 558 441.5 483.5 Q509 409 509 273 Q509 137 446 62 Q383 -13 267 -13 Q155 -13 94 56 Q33 125 33 250 Q33 288 39 316 L371 316 Q355 436 235 436 Q169 436 103 404 L55 505 Q95 530 146 544 Q197 558 250 558 Z M270 106 Q359 106 372 225 L168 225 Q170 168 196.5 137 Q223 106 270 106 Z " />
<glyph glyph-name="t" unicode="t" horiz-adv-x="404" d="M285 -8 Q94 -8 94 168 L94 429 L11 429 L11 546 L95 546 L95 694 L230 694 L230 546 L379 546 L379 429 L230 429 L230 193 Q230 151 248.5 132 Q267 113 307 113 Q335 113 365 121 L386 6 Q336 -8 285 -8 Z " />
<glyph glyph-name="tcaron" unicode="&#x165;" horiz-adv-x="404" d="M271 770 L383 770 L383 760 L358 597 L271 597 L271 770 Z M285 -8 Q94 -8 94 168 L94 429 L11 429 L11 546 L95 546 L95 694 L230 694 L230 546 L379 546 L379 429 L230 429 L230 193 Q230 151 248.5 132 Q267 113 307 113 Q335 113 365 121 L386 6 Q336 -8 285 -8 Z " />
<glyph glyph-name="uni0163" unicode="&#x163;" horiz-adv-x="404" d="M254 -49 Q308 -49 337.5 -71.5 Q367 -94 367 -135 Q367 -185 331 -212.5 Q295 -240 229 -240 Q161 -240 107 -214 L128 -152 Q181 -169 214 -169 Q263 -169 263 -138 Q263 -109 220 -109 Q199 -109 181 -116 L151 -82 L188 8 Q94 44 94 168 L94 429 L11 429 L11 546 L95 546 L95 694 L230 694 L230 546 L379 546 L379 429 L230 429 L230 193 Q230 151 248.5 132 Q267 113 307 113 Q335 113 365 121 L386 6 Q336 -8 285 -8 L265 -8 L233 -51 Q247 -49 254 -49 Z " />
<glyph glyph-name="uni021B" unicode="&#x21b;" horiz-adv-x="404" d="M285 -8 Q94 -8 94 168 L94 429 L11 429 L11 546 L95 546 L95 694 L230 694 L230 546 L379 546 L379 429 L230 429 L230 193 Q230 151 248.5 132 Q267 113 307 113 Q335 113 365 121 L386 6 Q336 -8 285 -8 Z M130 -238 Q155 -211 165 -183.5 Q175 -156 175 -116 Q175 -92 171 -66 L295 -66 Q299 -92 299 -115 Q299 -163 270.5 -205 Q242 -247 179 -291 L130 -238 Z " />
<glyph glyph-name="uni1E97" unicode="&#x1e97;" horiz-adv-x="404" d="M87 734 Q53 734 34 753 Q15 772 15 804 Q15 838 34 857 Q53 876 87 876 Q121 876 140.5 857 Q160 838 160 805 Q160 771 141 752.5 Q122 734 87 734 Z M282 734 Q248 734 229 753 Q210 772 210 804 Q210 838 229 857 Q248 876 282 876 Q316 876 335.5 857 Q355 838 355 805 Q355 771 336 752.5 Q317 734 282 734 Z M285 -8 Q94 -8 94 168 L94 429 L11 429 L11 546 L95 546 L95 694 L230 694 L230 546 L379 546 L379 429 L230 429 L230 193 Q230 151 248.5 132 Q267 113 307 113 Q335 113 365 121 L386 6 Q336 -8 285 -8 Z " />
<glyph glyph-name="uni1E6D" unicode="&#x1e6d;" horiz-adv-x="404" d="M285 -8 Q94 -8 94 168 L94 429 L11 429 L11 546 L95 546 L95 694 L230 694 L230 546 L379 546 L379 429 L230 429 L230 193 Q230 151 248.5 132 Q267 113 307 113 Q335 113 365 121 L386 6 Q336 -8 285 -8 Z M235 -228 Q197 -228 175.5 -207.5 Q154 -187 154 -151 Q154 -114 175.5 -93.5 Q197 -73 235 -73 Q273 -73 294.5 -93.5 Q316 -114 316 -150 Q316 -187 294.5 -207.5 Q273 -228 235 -228 Z " />
<glyph glyph-name="uni1E6F" unicode="&#x1e6f;" horiz-adv-x="404" d="M285 -8 Q94 -8 94 168 L94 429 L11 429 L11 546 L95 546 L95 694 L230 694 L230 546 L379 546 L379 429 L230 429 L230 193 Q230 151 248.5 132 Q267 113 307 113 Q335 113 365 121 L386 6 Q336 -8 285 -8 Z M105 -96 L365 -96 L365 -188 L105 -188 L105 -96 Z " />
<glyph glyph-name="u" unicode="u" horiz-adv-x="580" d="M508 546 L508 0 L385 0 L385 77 Q325 -13 224 -13 Q148 -13 106.5 34 Q65 81 65 166 L65 546 L201 546 L201 186 Q201 113 277 113 Q305 113 327 123.5 Q349 134 372 157 L372 546 L508 546 Z " />
<glyph glyph-name="uacute" unicode="&#xfa;" horiz-adv-x="580" d="M508 546 L508 0 L385 0 L385 77 Q325 -13 224 -13 Q148 -13 106.5 34 Q65 81 65 166 L65 546 L201 546 L201 186 Q201 113 277 113 Q305 113 327 123.5 Q349 134 372 157 L372 546 L508 546 Z M213 625 L308 784 L449 784 L449 774 L317 615 L213 615 L213 625 Z " />
<glyph glyph-name="ubreve" unicode="&#x16d;" horiz-adv-x="580" d="M508 546 L508 0 L385 0 L385 77 Q325 -13 224 -13 Q148 -13 106.5 34 Q65 81 65 166 L65 546 L201 546 L201 186 Q201 113 277 113 Q305 113 327 123.5 Q349 134 372 157 L372 546 L508 546 Z M287 610 Q212 610 170 653.5 Q128 697 125 780 L203 780 Q213 707 288 707 Q364 707 374 780 L449 780 Q446 697 404 653.5 Q362 610 287 610 Z " />
<glyph glyph-name="uni01D4" unicode="&#x1d4;" horiz-adv-x="580" d="M508 546 L508 0 L385 0 L385 77 Q325 -13 224 -13 Q148 -13 106.5 34 Q65 81 65 166 L65 546 L201 546 L201 186 Q201 113 277 113 Q305 113 327 123.5 Q349 134 372 157 L372 546 L508 546 Z M451 784 L451 774 L349 615 L225 615 L123 774 L123 784 L218 784 L288 696 L359 784 L451 784 Z " />
<glyph glyph-name="ucircumflex" unicode="&#xfb;" horiz-adv-x="580" d="M508 546 L508 0 L385 0 L385 77 Q325 -13 224 -13 Q148 -13 106.5 34 Q65 81 65 166 L65 546 L201 546 L201 186 Q201 113 277 113 Q305 113 327 123.5 Q349 134 372 157 L372 546 L508 546 Z M451 625 L451 615 L356 615 L285 703 L215 615 L123 615 L123 625 L225 784 L349 784 L451 625 Z " />
<glyph glyph-name="udieresis" unicode="&#xfc;" horiz-adv-x="580" d="M189 614 Q155 614 136 633 Q117 652 117 684 Q117 718 136 737 Q155 756 189 756 Q223 756 242.5 737 Q262 718 262 685 Q262 651 243 632.5 Q224 614 189 614 Z M384 614 Q350 614 331 633 Q312 652 312 684 Q312 718 331 737 Q350 756 384 756 Q418 756 437.5 737 Q457 718 457 685 Q457 651 438 632.5 Q419 614 384 614 Z M508 546 L508 0 L385 0 L385 77 Q325 -13 224 -13 Q148 -13 106.5 34 Q65 81 65 166 L65 546 L201 546 L201 186 Q201 113 277 113 Q305 113 327 123.5 Q349 134 372 157 L372 546 L508 546 Z " />
<glyph glyph-name="uni01D8" unicode="&#x1d8;" horiz-adv-x="580" d="M329 739 L239 739 L239 749 L312 876 L431 876 L431 866 L329 739 Z M192 586 Q159 586 140.5 604.5 Q122 623 122 655 Q122 688 140.5 706 Q159 724 192 724 Q225 724 243.5 706 Q262 688 262 656 Q262 622 243.5 604 Q225 586 192 586 Z M312 655 Q312 688 330.5 706 Q349 724 382 724 Q415 724 433.5 706 Q452 688 452 656 Q452 622 433.5 604 Q415 586 382 586 Q349 586 330.5 604.5 Q312 623 312 655 Z M508 546 L508 0 L385 0 L385 77 Q325 -13 224 -13 Q148 -13 106.5 34 Q65 81 65 166 L65 546 L201 546 L201 186 Q201 113 277 113 Q305 113 327 123.5 Q349 134 372 157 L372 546 L508 546 Z " />
<glyph glyph-name="uni01DA" unicode="&#x1da;" horiz-adv-x="580" d="M226 732 L122 871 L122 881 L217 881 L290 804 L362 881 L454 881 L454 871 L350 732 L226 732 Z M192 586 Q159 586 140.5 604.5 Q122 623 122 655 Q122 688 140.5 706 Q159 724 192 724 Q225 724 243.5 706 Q262 688 262 656 Q262 622 243.5 604 Q225 586 192 586 Z M312 655 Q312 688 330.5 706 Q349 724 382 724 Q415 724 433.5 706 Q452 688 452 656 Q452 622 433.5 604 Q415 586 382 586 Q349 586 330.5 604.5 Q312 623 312 655 Z M508 546 L508 0 L385 0 L385 77 Q325 -13 224 -13 Q148 -13 106.5 34 Q65 81 65 166 L65 546 L201 546 L201 186 Q201 113 277 113 Q305 113 327 123.5 Q349 134 372 157 L372 546 L508 546 Z " />
<glyph glyph-name="uni01DC" unicode="&#x1dc;" horiz-adv-x="580" d="M247 739 L151 866 L151 876 L270 876 L337 749 L337 739 L247 739 Z M192 586 Q159 586 140.5 604.5 Q122 623 122 655 Q122 688 140.5 706 Q159 724 192 724 Q225 724 243.5 706 Q262 688 262 656 Q262 622 243.5 604 Q225 586 192 586 Z M312 655 Q312 688 330.5 706 Q349 724 382 724 Q415 724 433.5 706 Q452 688 452 656 Q452 622 433.5 604 Q415 586 382 586 Q349 586 330.5 604.5 Q312 623 312 655 Z M508 546 L508 0 L385 0 L385 77 Q325 -13 224 -13 Q148 -13 106.5 34 Q65 81 65 166 L65 546 L201 546 L201 186 Q201 113 277 113 Q305 113 327 123.5 Q349 134 372 157 L372 546 L508 546 Z " />
<glyph glyph-name="uni01D6" unicode="&#x1d6;" horiz-adv-x="580" d="M452 749 L124 749 L124 840 L452 840 L452 749 Z M192 586 Q159 586 140.5 604.5 Q122 623 122 655 Q122 688 140.5 706 Q159 724 192 724 Q225 724 243.5 706 Q262 688 262 656 Q262 622 243.5 604 Q225 586 192 586 Z M312 655 Q312 688 330.5 706 Q349 724 382 724 Q415 724 433.5 706 Q452 688 452 656 Q452 622 433.5 604 Q415 586 382 586 Q349 586 330.5 604.5 Q312 623 312 655 Z M508 546 L508 0 L385 0 L385 77 Q325 -13 224 -13 Q148 -13 106.5 34 Q65 81 65 166 L65 546 L201 546 L201 186 Q201 113 277 113 Q305 113 327 123.5 Q349 134 372 157 L372 546 L508 546 Z " />
<glyph glyph-name="uni1EE5" unicode="&#x1ee5;" horiz-adv-x="580" d="M508 546 L508 0 L385 0 L385 77 Q325 -13 224 -13 Q148 -13 106.5 34 Q65 81 65 166 L65 546 L201 546 L201 186 Q201 113 277 113 Q305 113 327 123.5 Q349 134 372 157 L372 546 L508 546 Z M289 -228 Q251 -228 229.5 -207.5 Q208 -187 208 -151 Q208 -114 229.5 -93.5 Q251 -73 289 -73 Q327 -73 348.5 -93.5 Q370 -114 370 -150 Q370 -187 348.5 -207.5 Q327 -228 289 -228 Z " />
<glyph glyph-name="ugrave" unicode="&#xf9;" horiz-adv-x="580" d="M508 546 L508 0 L385 0 L385 77 Q325 -13 224 -13 Q148 -13 106.5 34 Q65 81 65 166 L65 546 L201 546 L201 186 Q201 113 277 113 Q305 113 327 123.5 Q349 134 372 157 L372 546 L508 546 Z M137 774 L137 784 L278 784 L365 625 L365 615 L261 615 L137 774 Z " />
<glyph glyph-name="uni1EE7" unicode="&#x1ee7;" horiz-adv-x="580" d="M508 546 L508 0 L385 0 L385 77 Q325 -13 224 -13 Q148 -13 106.5 34 Q65 81 65 166 L65 546 L201 546 L201 186 Q201 113 277 113 Q305 113 327 123.5 Q349 134 372 157 L372 546 L508 546 Z M241 615 Q239 627 239 638 Q239 662 248 675 Q257 688 272 699 Q290 712 290 724 Q290 740 267 740 Q242 740 208 723 L179 786 Q229 817 295 817 Q345 817 372.5 796 Q400 775 400 737 Q400 711 390 698 Q380 685 360 673 Q346 664 338.5 656 Q331 648 331 635 Q331 627 333 615 L241 615 Z " />
<glyph glyph-name="uhorn" unicode="&#x1b0;" horiz-adv-x="580" d="M627 626 Q627 556 599.5 520.5 Q572 485 508 475 L508 0 L385 0 L385 77 Q325 -13 224 -13 Q148 -13 106.5 34 Q65 81 65 166 L65 546 L201 546 L201 186 Q201 113 277 113 Q305 113 327 123.5 Q349 134 372 157 L372 546 L437 546 Q481 546 497.5 562.5 Q514 579 514 624 Q514 649 509 685 L622 685 Q627 655 627 626 Z " />
<glyph glyph-name="uni1EE9" unicode="&#x1ee9;" horiz-adv-x="580" d="M627 626 Q627 556 599.5 520.5 Q572 485 508 475 L508 0 L385 0 L385 77 Q325 -13 224 -13 Q148 -13 106.5 34 Q65 81 65 166 L65 546 L201 546 L201 186 Q201 113 277 113 Q305 113 327 123.5 Q349 134 372 157 L372 546 L437 546 Q481 546 497.5 562.5 Q514 579 514 624 Q514 649 509 685 L622 685 Q627 655 627 626 Z M213 625 L308 784 L449 784 L449 774 L317 615 L213 615 L213 625 Z " />
<glyph glyph-name="uni1EF1" unicode="&#x1ef1;" horiz-adv-x="580" d="M627 626 Q627 556 599.5 520.5 Q572 485 508 475 L508 0 L385 0 L385 77 Q325 -13 224 -13 Q148 -13 106.5 34 Q65 81 65 166 L65 546 L201 546 L201 186 Q201 113 277 113 Q305 113 327 123.5 Q349 134 372 157 L372 546 L437 546 Q481 546 497.5 562.5 Q514 579 514 624 Q514 649 509 685 L622 685 Q627 655 627 626 Z M289 -228 Q251 -228 229.5 -207.5 Q208 -187 208 -151 Q208 -114 229.5 -93.5 Q251 -73 289 -73 Q327 -73 348.5 -93.5 Q370 -114 370 -150 Q370 -187 348.5 -207.5 Q327 -228 289 -228 Z " />
<glyph glyph-name="uni1EEB" unicode="&#x1eeb;" horiz-adv-x="580" d="M627 626 Q627 556 599.5 520.5 Q572 485 508 475 L508 0 L385 0 L385 77 Q325 -13 224 -13 Q148 -13 106.5 34 Q65 81 65 166 L65 546 L201 546 L201 186 Q201 113 277 113 Q305 113 327 123.5 Q349 134 372 157 L372 546 L437 546 Q481 546 497.5 562.5 Q514 579 514 624 Q514 649 509 685 L622 685 Q627 655 627 626 Z M137 774 L137 784 L278 784 L365 625 L365 615 L261 615 L137 774 Z " />
<glyph glyph-name="uni1EED" unicode="&#x1eed;" horiz-adv-x="580" d="M627 626 Q627 556 599.5 520.5 Q572 485 508 475 L508 0 L385 0 L385 77 Q325 -13 224 -13 Q148 -13 106.5 34 Q65 81 65 166 L65 546 L201 546 L201 186 Q201 113 277 113 Q305 113 327 123.5 Q349 134 372 157 L372 546 L437 546 Q481 546 497.5 562.5 Q514 579 514 624 Q514 649 509 685 L622 685 Q627 655 627 626 Z M241 615 Q239 627 239 638 Q239 662 248 675 Q257 688 272 699 Q290 712 290 724 Q290 740 267 740 Q242 740 208 723 L179 786 Q229 817 295 817 Q345 817 372.5 796 Q400 775 400 737 Q400 711 390 698 Q380 685 360 673 Q346 664 338.5 656 Q331 648 331 635 Q331 627 333 615 L241 615 Z " />
<glyph glyph-name="uni1EEF" unicode="&#x1eef;" horiz-adv-x="580" d="M627 626 Q627 556 599.5 520.5 Q572 485 508 475 L508 0 L385 0 L385 77 Q325 -13 224 -13 Q148 -13 106.5 34 Q65 81 65 166 L65 546 L201 546 L201 186 Q201 113 277 113 Q305 113 327 123.5 Q349 134 372 157 L372 546 L437 546 Q481 546 497.5 562.5 Q514 579 514 624 Q514 649 509 685 L622 685 Q627 655 627 626 Z M358 615 Q331 615 311.5 624 Q292 633 266 650 Q251 661 239.5 666.5 Q228 672 216 672 Q183 672 177 617 L102 617 Q103 688 133 727.5 Q163 767 216 767 Q243 767 262.5 758 Q282 749 308 732 Q323 721 334.5 715.5 Q346 710 358 710 Q391 710 397 765 L472 765 Q471 694 441 654.5 Q411 615 358 615 Z " />
<glyph glyph-name="uhungarumlaut" unicode="&#x171;" horiz-adv-x="580" d="M508 546 L508 0 L385 0 L385 77 Q325 -13 224 -13 Q148 -13 106.5 34 Q65 81 65 166 L65 546 L201 546 L201 186 Q201 113 277 113 Q305 113 327 123.5 Q349 134 372 157 L372 546 L508 546 Z M154 625 L208 784 L329 784 L329 774 L240 615 L154 615 L154 625 Z M309 625 L365 784 L486 784 L486 774 L395 615 L309 615 L309 625 Z " />
<glyph glyph-name="umacron" unicode="&#x16b;" horiz-adv-x="580" d="M508 546 L508 0 L385 0 L385 77 Q325 -13 224 -13 Q148 -13 106.5 34 Q65 81 65 166 L65 546 L201 546 L201 186 Q201 113 277 113 Q305 113 327 123.5 Q349 134 372 157 L372 546 L508 546 Z M123 728 L451 728 L451 636 L123 636 L123 728 Z " />
<glyph glyph-name="uogonek" unicode="&#x173;" horiz-adv-x="580" d="M559 -199 Q535 -214 504 -222 Q473 -230 441 -230 Q382 -230 349 -203 Q316 -176 316 -127 Q316 -88 337.5 -55.5 Q359 -23 399 -2 L387 -2 L387 81 Q353 32 314 9.5 Q275 -13 224 -13 Q148 -13 106.5 34 Q65 81 65 166 L65 546 L201 546 L201 186 Q201 113 277 113 Q305 113 327 123.5 Q349 134 372 157 L372 546 L508 546 L508 0 Q427 -48 427 -102 Q427 -142 473 -142 Q500 -142 529 -129 L559 -199 Z " />
<glyph glyph-name="uring" unicode="&#x16f;" horiz-adv-x="580" d="M508 546 L508 0 L385 0 L385 77 Q325 -13 224 -13 Q148 -13 106.5 34 Q65 81 65 166 L65 546 L201 546 L201 186 Q201 113 277 113 Q305 113 327 123.5 Q349 134 372 157 L372 546 L508 546 Z M287 600 Q222 600 186.5 631.5 Q151 663 151 720 Q151 777 186.5 808.5 Q222 840 287 840 Q352 840 387.5 808.5 Q423 777 423 720 Q423 663 387.5 631.5 Q352 600 287 600 Z M287 665 Q340 665 340 720 Q340 775 287 775 Q234 775 234 720 Q234 665 287 665 Z " />
<glyph glyph-name="utilde" unicode="&#x169;" horiz-adv-x="580" d="M508 546 L508 0 L385 0 L385 77 Q325 -13 224 -13 Q148 -13 106.5 34 Q65 81 65 166 L65 546 L201 546 L201 186 Q201 113 277 113 Q305 113 327 123.5 Q349 134 372 157 L372 546 L508 546 Z M358 615 Q331 615 311.5 624 Q292 633 266 650 Q251 661 239.5 666.5 Q228 672 216 672 Q183 672 177 617 L102 617 Q103 688 133 727.5 Q163 767 216 767 Q243 767 262.5 758 Q282 749 308 732 Q323 721 334.5 715.5 Q346 710 358 710 Q391 710 397 765 L472 765 Q471 694 441 654.5 Q411 615 358 615 Z " />
<glyph glyph-name="v" unicode="v" horiz-adv-x="527" d="M513 546 L337 0 L191 0 L14 546 L151 546 L265 137 L377 546 L513 546 Z " />
<glyph glyph-name="w" unicode="w" horiz-adv-x="791" d="M775 546 L627 0 L481 0 L395 383 L311 0 L165 0 L16 546 L152 546 L240 143 L327 546 L465 546 L555 143 L640 546 L775 546 Z " />
<glyph glyph-name="wacute" unicode="&#x1e83;" horiz-adv-x="791" d="M775 546 L627 0 L481 0 L395 383 L311 0 L165 0 L16 546 L152 546 L240 143 L327 546 L465 546 L555 143 L640 546 L775 546 Z M323 625 L418 784 L559 784 L559 774 L427 615 L323 615 L323 625 Z " />
<glyph glyph-name="wcircumflex" unicode="&#x175;" horiz-adv-x="791" d="M775 546 L627 0 L481 0 L395 383 L311 0 L165 0 L16 546 L152 546 L240 143 L327 546 L465 546 L555 143 L640 546 L775 546 Z M561 625 L561 615 L466 615 L395 703 L325 615 L233 615 L233 625 L335 784 L459 784 L561 625 Z " />
<glyph glyph-name="wdieresis" unicode="&#x1e85;" horiz-adv-x="791" d="M299 614 Q265 614 246 633 Q227 652 227 684 Q227 718 246 737 Q265 756 299 756 Q333 756 352.5 737 Q372 718 372 685 Q372 651 353 632.5 Q334 614 299 614 Z M494 614 Q460 614 441 633 Q422 652 422 684 Q422 718 441 737 Q460 756 494 756 Q528 756 547.5 737 Q567 718 567 685 Q567 651 548 632.5 Q529 614 494 614 Z M775 546 L627 0 L481 0 L395 383 L311 0 L165 0 L16 546 L152 546 L240 143 L327 546 L465 546 L555 143 L640 546 L775 546 Z " />
<glyph glyph-name="wgrave" unicode="&#x1e81;" horiz-adv-x="791" d="M775 546 L627 0 L481 0 L395 383 L311 0 L165 0 L16 546 L152 546 L240 143 L327 546 L465 546 L555 143 L640 546 L775 546 Z M247 774 L247 784 L388 784 L475 625 L475 615 L371 615 L247 774 Z " />
<glyph glyph-name="x" unicode="x" horiz-adv-x="514" d="M355 0 L255 173 L157 0 L12 0 L184 278 L20 546 L167 546 L260 383 L355 546 L500 546 L330 278 L502 0 L355 0 Z " />
<glyph glyph-name="y" unicode="y" horiz-adv-x="523" d="M509 546 L344 31 Q314 -64 247.5 -123.5 Q181 -183 63 -220 L17 -106 Q86 -82 126 -57 Q166 -32 191 1 L14 546 L151 546 L263 144 L373 546 L509 546 Z " />
<glyph glyph-name="yacute" unicode="&#xfd;" horiz-adv-x="523" d="M509 546 L344 31 Q314 -64 247.5 -123.5 Q181 -183 63 -220 L17 -106 Q86 -82 126 -57 Q166 -32 191 1 L14 546 L151 546 L263 144 L373 546 L509 546 Z M189 625 L284 784 L425 784 L425 774 L293 615 L189 615 L189 625 Z " />
<glyph glyph-name="ycircumflex" unicode="&#x177;" horiz-adv-x="523" d="M509 546 L344 31 Q314 -64 247.5 -123.5 Q181 -183 63 -220 L17 -106 Q86 -82 126 -57 Q166 -32 191 1 L14 546 L151 546 L263 144 L373 546 L509 546 Z M427 625 L427 615 L332 615 L261 703 L191 615 L99 615 L99 625 L201 784 L325 784 L427 625 Z " />
<glyph glyph-name="ydieresis" unicode="&#xff;" horiz-adv-x="523" d="M165 614 Q131 614 112 633 Q93 652 93 684 Q93 718 112 737 Q131 756 165 756 Q199 756 218.5 737 Q238 718 238 685 Q238 651 219 632.5 Q200 614 165 614 Z M360 614 Q326 614 307 633 Q288 652 288 684 Q288 718 307 737 Q326 756 360 756 Q394 756 413.5 737 Q433 718 433 685 Q433 651 414 632.5 Q395 614 360 614 Z M509 546 L344 31 Q314 -64 247.5 -123.5 Q181 -183 63 -220 L17 -106 Q86 -82 126 -57 Q166 -32 191 1 L14 546 L151 546 L263 144 L373 546 L509 546 Z " />
<glyph glyph-name="uni1E8F" unicode="&#x1e8f;" horiz-adv-x="523" d="M509 546 L344 31 Q314 -64 247.5 -123.5 Q181 -183 63 -220 L17 -106 Q86 -82 126 -57 Q166 -32 191 1 L14 546 L151 546 L263 144 L373 546 L509 546 Z M263 617 Q225 617 203.5 637.5 Q182 658 182 694 Q182 731 203.5 751.5 Q225 772 263 772 Q301 772 322.5 751.5 Q344 731 344 695 Q344 658 322.5 637.5 Q301 617 263 617 Z " />
<glyph glyph-name="uni1EF5" unicode="&#x1ef5;" horiz-adv-x="523" d="M509 546 L344 31 Q314 -64 247.5 -123.5 Q181 -183 63 -220 L17 -106 Q86 -82 126 -57 Q166 -32 191 1 L14 546 L151 546 L263 144 L373 546 L509 546 Z M401 -228 Q363 -228 341.5 -207.5 Q320 -187 320 -151 Q320 -114 341.5 -93.5 Q363 -73 401 -73 Q439 -73 460.5 -93.5 Q482 -114 482 -150 Q482 -187 460.5 -207.5 Q439 -228 401 -228 Z " />
<glyph glyph-name="ygrave" unicode="&#x1ef3;" horiz-adv-x="523" d="M509 546 L344 31 Q314 -64 247.5 -123.5 Q181 -183 63 -220 L17 -106 Q86 -82 126 -57 Q166 -32 191 1 L14 546 L151 546 L263 144 L373 546 L509 546 Z M113 774 L113 784 L254 784 L341 625 L341 615 L237 615 L113 774 Z " />
<glyph glyph-name="uni1EF7" unicode="&#x1ef7;" horiz-adv-x="523" d="M509 546 L344 31 Q314 -64 247.5 -123.5 Q181 -183 63 -220 L17 -106 Q86 -82 126 -57 Q166 -32 191 1 L14 546 L151 546 L263 144 L373 546 L509 546 Z M217 615 Q215 627 215 638 Q215 662 224 675 Q233 688 248 699 Q266 712 266 724 Q266 740 243 740 Q218 740 184 723 L155 786 Q205 817 271 817 Q321 817 348.5 796 Q376 775 376 737 Q376 711 366 698 Q356 685 336 673 Q322 664 314.5 656 Q307 648 307 635 Q307 627 309 615 L217 615 Z " />
<glyph glyph-name="uni1EF9" unicode="&#x1ef9;" horiz-adv-x="523" d="M509 546 L344 31 Q314 -64 247.5 -123.5 Q181 -183 63 -220 L17 -106 Q86 -82 126 -57 Q166 -32 191 1 L14 546 L151 546 L263 144 L373 546 L509 546 Z M334 615 Q307 615 287.5 624 Q268 633 242 650 Q227 661 215.5 666.5 Q204 672 192 672 Q159 672 153 617 L78 617 Q79 688 109 727.5 Q139 767 192 767 Q219 767 238.5 758 Q258 749 284 732 Q299 721 310.5 715.5 Q322 710 334 710 Q367 710 373 765 L448 765 Q447 694 417 654.5 Q387 615 334 615 Z " />
<glyph glyph-name="z" unicode="z" horiz-adv-x="472" d="M442 115 L442 0 L28 0 L28 115 L284 431 L38 431 L38 546 L436 546 L436 431 L180 115 L442 115 Z " />
<glyph glyph-name="zacute" unicode="&#x17a;" horiz-adv-x="472" d="M442 115 L442 0 L28 0 L28 115 L284 431 L38 431 L38 546 L436 546 L436 431 L180 115 L442 115 Z M159 625 L254 784 L395 784 L395 774 L263 615 L159 615 L159 625 Z " />
<glyph glyph-name="zcaron" unicode="&#x17e;" horiz-adv-x="472" d="M442 115 L442 0 L28 0 L28 115 L284 431 L38 431 L38 546 L436 546 L436 431 L180 115 L442 115 Z M397 784 L397 774 L295 615 L171 615 L69 774 L69 784 L164 784 L234 696 L305 784 L397 784 Z " />
<glyph glyph-name="zdotaccent" unicode="&#x17c;" horiz-adv-x="472" d="M442 115 L442 0 L28 0 L28 115 L284 431 L38 431 L38 546 L436 546 L436 431 L180 115 L442 115 Z M233 617 Q195 617 173.5 637.5 Q152 658 152 694 Q152 731 173.5 751.5 Q195 772 233 772 Q271 772 292.5 751.5 Q314 731 314 695 Q314 658 292.5 637.5 Q271 617 233 617 Z " />
<glyph glyph-name="uni1E93" unicode="&#x1e93;" horiz-adv-x="472" d="M442 115 L442 0 L28 0 L28 115 L284 431 L38 431 L38 546 L436 546 L436 431 L180 115 L442 115 Z M235 -228 Q197 -228 175.5 -207.5 Q154 -187 154 -151 Q154 -114 175.5 -93.5 Q197 -73 235 -73 Q273 -73 294.5 -93.5 Q316 -114 316 -150 Q316 -187 294.5 -207.5 Q273 -228 235 -228 Z " />
<glyph glyph-name="fi" unicode="&#xfb01;" horiz-adv-x="656" d="M88 429 L5 429 L5 546 L89 546 L89 587 Q89 682 146.5 734.5 Q204 787 310 787 Q344 787 371 782 L371 664 Q342 668 310 668 Q224 668 224 587 L224 546 L352 546 L352 429 L224 429 L224 0 L88 0 L88 429 Z M446 546 L582 546 L582 0 L446 0 L446 546 Z M514 617 Q476 617 454.5 637.5 Q433 658 433 694 Q433 731 454.5 751.5 Q476 772 514 772 Q552 772 573.5 751.5 Q595 731 595 695 Q595 658 573.5 637.5 Q552 617 514 617 Z " />
<glyph glyph-name="fl" unicode="&#xfb02;" horiz-adv-x="698" d="M88 429 L5 429 L5 546 L89 546 L89 587 Q89 682 146.5 734.5 Q204 787 310 787 Q344 787 371 782 L371 664 Q342 668 310 668 Q224 668 224 587 L224 546 L352 546 L352 429 L224 429 L224 0 L88 0 L88 429 Z M589 -7 Q515 -7 478.5 29 Q442 65 442 139 L442 770 L578 770 L578 169 Q578 140 589 127 Q600 114 626 114 Q642 114 661 117 L670 2 Q631 -7 589 -7 Z " />
<glyph glyph-name="ordfeminine" unicode="&#xaa;" horiz-adv-x="518" d="M261 730 Q343 730 388 696 Q433 662 433 600 L433 322 Q396 303 347.5 293 Q299 283 246 283 Q155 283 105.5 319 Q56 355 56 421 Q56 496 118.5 529.5 Q181 563 320 562 L320 577 Q320 604 301 616.5 Q282 629 242 629 Q184 629 122 606 L92 693 Q130 711 174.5 720.5 Q219 730 261 730 Z M169 426 Q169 378 246 378 Q293 378 320 387 L320 488 Q240 489 204.5 474.5 Q169 460 169 426 Z M86 198 L421 198 L421 104 L86 104 L86 198 Z " />
<glyph glyph-name="ordmasculine" unicode="&#xba;" horiz-adv-x="524" d="M262 282 Q165 282 112 339 Q59 396 59 507 Q59 618 112 674.5 Q165 731 263 731 Q360 731 412.5 674.5 Q465 618 465 507 Q465 396 412 339 Q359 282 262 282 Z M262 381 Q349 381 349 507 Q349 632 263 632 Q175 632 175 507 Q175 381 262 381 Z M95 198 L430 198 L430 104 L95 104 L95 198 Z " />
<glyph glyph-name="uni207F" unicode="&#x207f;" horiz-adv-x="528" d="M319 734 Q382 734 416.5 698 Q451 662 451 596 L451 307 L336 307 L336 578 Q336 628 274 628 Q233 628 196 603 L196 307 L82 307 L82 724 L185 724 L185 670 Q238 734 319 734 Z " />
<glyph glyph-name="pi" unicode="&#x3c0;" horiz-adv-x="658" d="M516 429 L516 170 Q516 141 528 128 Q540 115 568 115 Q582 115 597 118 L610 2 Q571 -7 531 -7 Q457 -7 418.5 29.5 Q380 66 380 139 L380 429 L291 429 Q288 286 271 184.5 Q254 83 219 0 L69 0 Q112 90 130 188 Q148 286 151 429 L30 429 L30 546 L636 546 L636 429 L516 429 Z " />
<glyph glyph-name="zero" unicode="0" horiz-adv-x="628" d="M314 -13 Q185 -13 121 77.5 Q57 168 57 362 Q57 557 120.5 647 Q184 737 313 737 Q443 737 507 647 Q571 557 571 362 Q571 168 507 77.5 Q443 -13 314 -13 Z M314 109 Q375 109 403 169 Q431 229 431 362 Q431 495 403 555 Q375 615 313 615 Q252 615 224.5 555 Q197 495 197 362 Q197 229 225 169 Q253 109 314 109 Z " />
<glyph glyph-name="one" unicode="1" horiz-adv-x="467" d="M352 724 L352 0 L215 0 L215 585 L61 532 L22 643 L233 724 L352 724 Z " />
<glyph glyph-name="two" unicode="2" horiz-adv-x="537" d="M490 119 L490 0 L28 0 L28 120 L266 388 Q313 441 330.5 470.5 Q348 500 348 527 Q348 567 321 589.5 Q294 612 245 612 Q205 612 162.5 598 Q120 584 81 559 L20 662 Q65 696 130 716.5 Q195 737 258 737 Q326 737 378 712 Q430 687 458 641.5 Q486 596 486 536 Q486 483 459 432 Q432 381 367 310 L192 119 L490 119 Z " />
<glyph glyph-name="three" unicode="3" horiz-adv-x="566" d="M331 452 Q414 437 462.5 377.5 Q511 318 511 230 Q511 158 478.5 102.5 Q446 47 386.5 17 Q327 -13 248 -13 Q184 -13 122 5.5 Q60 24 20 55 L70 165 Q116 140 162 126.5 Q208 113 248 113 Q306 113 338.5 143.5 Q371 174 371 230 Q371 283 340.5 313 Q310 343 256 343 Q228 343 193 335 L140 404 L338 605 L39 605 L39 724 L487 724 L487 605 L331 452 Z " />
<glyph glyph-name="four" unicode="4" horiz-adv-x="585" d="M548 253 L548 136 L463 136 L463 0 L330 0 L330 136 L17 136 L17 253 L271 724 L463 724 L463 253 L548 253 Z M330 253 L330 600 L157 253 L330 253 Z " />
<glyph glyph-name="five" unicode="5" horiz-adv-x="558" d="M271 472 Q342 472 395.5 443 Q449 414 478 360.5 Q507 307 507 237 Q507 162 474 105.5 Q441 49 381 18 Q321 -13 242 -13 Q181 -13 122.5 4.5 Q64 22 27 51 L77 160 Q119 137 162.5 124.5 Q206 112 242 112 Q301 112 334 144.5 Q367 177 367 234 Q367 289 337 319 Q307 349 254 349 Q201 349 144 323 L61 368 L79 724 L473 724 L473 605 L201 605 L189 461 Q228 472 271 472 Z " />
<glyph glyph-name="six" unicode="6" horiz-adv-x="571" d="M323 467 Q387 467 436 438 Q485 409 511.5 356.5 Q538 304 538 234 Q538 160 507.5 104 Q477 48 421.5 17.5 Q366 -13 292 -13 Q217 -13 160 18.5 Q103 50 72 107.5 Q41 165 41 241 Q41 330 72.5 405 Q104 480 184 572 L327 737 L434 654 L288 497 L254 459 Q289 467 323 467 Z M292 106 Q343 106 371.5 139 Q400 172 400 231 Q400 292 369.5 325.5 Q339 359 284 359 Q245 359 200 342 Q190 322 184 295 Q178 268 178 241 Q178 177 208 141.5 Q238 106 292 106 Z " />
<glyph glyph-name="seven" unicode="7" horiz-adv-x="499" d="M476 724 L476 605 L199 -10 L70 43 L332 605 L7 605 L7 724 L476 724 Z " />
<glyph glyph-name="eight" unicode="8" horiz-adv-x="591" d="M295 -13 Q219 -13 161.5 12.5 Q104 38 72.5 85 Q41 132 41 193 Q41 252 80.5 302.5 Q120 353 185 377 Q131 396 98.5 443 Q66 490 66 546 Q66 603 94.5 646.5 Q123 690 174.5 713.5 Q226 737 295 737 Q364 737 416 713.5 Q468 690 496.5 646.5 Q525 603 525 546 Q525 490 492 444.5 Q459 399 404 380 Q470 360 510 309 Q550 258 550 193 Q550 132 518.5 85 Q487 38 429 12.5 Q371 -13 295 -13 Z M300 429 Q343 443 366.5 470.5 Q390 498 390 533 Q390 575 365 599 Q340 623 295 623 Q251 623 226 599 Q201 575 201 533 Q201 499 227.5 471.5 Q254 444 300 429 Z M295 102 Q350 102 382 128.5 Q414 155 414 202 Q414 240 381.5 273.5 Q349 307 291 328 Q237 310 207 277 Q177 244 177 202 Q177 155 208.5 128.5 Q240 102 295 102 Z " />
<glyph glyph-name="nine" unicode="9" horiz-adv-x="571" d="M279 737 Q354 737 411 705.5 Q468 674 499 616.5 Q530 559 530 483 Q530 394 498.5 319 Q467 244 387 152 L244 -13 L137 70 L283 227 L317 265 Q282 257 248 257 Q184 257 135 286 Q86 315 59.5 367.5 Q33 420 33 490 Q33 564 63.5 620 Q94 676 149.5 706.5 Q205 737 279 737 Z M171 493 Q171 432 201.5 398.5 Q232 365 287 365 Q326 365 371 382 Q381 402 387 429 Q393 456 393 483 Q393 547 363 582.5 Q333 618 279 618 Q228 618 199.5 585 Q171 552 171 493 Z " />
<glyph glyph-name="fraction" unicode="&#x2044;" horiz-adv-x="293" d="M-98 23 L304 750 L391 701 L-11 -26 L-98 23 Z " />
<glyph glyph-name="onehalf" unicode="&#xbd;" horiz-adv-x="994" d="M711 701 L309 -26 L222 23 L624 750 L711 701 Z M143 275 L143 619 L45 585 L16 669 L158 724 L251 724 L251 275 L143 275 Z M955 91 L955 0 L636 0 L636 91 L792 241 Q821 268 830.5 282.5 Q840 297 840 314 Q840 359 787 359 Q736 359 674 319 L627 399 Q711 456 798 456 Q871 456 910.5 421 Q950 386 950 321 Q950 283 933 253 Q916 223 869 180 L773 91 L955 91 Z " />
<glyph glyph-name="uni2153" unicode="&#x2153;" horiz-adv-x="1018" d="M711 701 L309 -26 L222 23 L624 750 L711 701 Z M143 275 L143 619 L45 585 L16 669 L158 724 L251 724 L251 275 L143 275 Z M855 277 Q911 266 941 231 Q971 196 971 141 Q971 70 923 31.5 Q875 -7 786 -7 Q695 -7 627 39 L665 122 Q731 90 786 90 Q859 90 859 144 Q859 170 842.5 183 Q826 196 791 196 Q767 196 741 190 L700 246 L825 358 L644 358 L644 449 L954 449 L954 357 L855 277 Z " />
<glyph glyph-name="uni2154" unicode="&#x2154;" horiz-adv-x="1079" d="M772 701 L370 -26 L283 23 L685 750 L772 701 Z M179 516 Q208 543 217.5 557.5 Q227 572 227 589 Q227 634 174 634 Q123 634 61 594 L14 674 Q98 731 185 731 Q258 731 297.5 696 Q337 661 337 596 Q337 558 320 528 Q303 498 256 455 L160 366 L342 366 L342 275 L23 275 L23 366 L179 516 Z M916 277 Q972 266 1002 231 Q1032 196 1032 141 Q1032 70 984 31.5 Q936 -7 847 -7 Q756 -7 688 39 L726 122 Q792 90 847 90 Q920 90 920 144 Q920 170 903.5 183 Q887 196 852 196 Q827 196 802 190 L761 246 L886 358 L705 358 L705 449 L1015 449 L1015 357 L916 277 Z " />
<glyph glyph-name="onequarter" unicode="&#xbc;" horiz-adv-x="951" d="M711 701 L309 -26 L222 23 L624 750 L711 701 Z M143 275 L143 619 L45 585 L16 669 L158 724 L251 724 L251 275 L143 275 Z M932 162 L932 73 L881 73 L881 0 L776 0 L776 73 L570 73 L570 162 L731 449 L881 449 L881 162 L932 162 Z M776 162 L776 355 L680 162 L776 162 Z " />
<glyph glyph-name="threequarters" unicode="&#xbe;" horiz-adv-x="1016" d="M776 701 L374 -26 L287 23 L689 750 L776 701 Z M358 416 Q358 345 310 306.5 Q262 268 173 268 Q82 268 14 314 L52 397 Q118 365 173 365 Q246 365 246 419 Q246 445 229.5 458 Q213 471 178 471 Q154 471 128 465 L87 521 L212 633 L31 633 L31 724 L341 724 L341 632 L242 552 Q298 541 328 506 Q358 471 358 416 Z M997 162 L997 73 L946 73 L946 0 L841 0 L841 73 L635 73 L635 162 L796 449 L946 449 L946 162 L997 162 Z M841 162 L841 355 L745 162 L841 162 Z " />
<glyph glyph-name="oneeighth" unicode="&#x215b;" horiz-adv-x="1007" d="M711 701 L309 -26 L222 23 L624 750 L711 701 Z M143 275 L143 619 L45 585 L16 669 L158 724 L251 724 L251 275 L143 275 Z M881 235 Q925 222 949.5 193 Q974 164 974 123 Q974 61 929 27 Q884 -7 801 -7 Q718 -7 673 27.5 Q628 62 628 126 Q628 162 652.5 190 Q677 218 721 234 Q683 247 662.5 273 Q642 299 642 333 Q642 392 683.5 424 Q725 456 801 456 Q877 456 918.5 424 Q960 392 960 333 Q960 298 939.5 272.5 Q919 247 881 235 Z M801 370 Q749 370 749 322 Q749 286 804 271 Q853 284 853 323 Q853 370 801 370 Z M801 80 Q865 80 865 133 Q865 177 798 198 Q736 180 736 132 Q736 80 801 80 Z " />
<glyph glyph-name="threeeighths" unicode="&#x215c;" horiz-adv-x="1072" d="M776 701 L374 -26 L287 23 L689 750 L776 701 Z M358 416 Q358 345 310 306.5 Q262 268 173 268 Q82 268 14 314 L52 397 Q118 365 173 365 Q246 365 246 419 Q246 445 229.5 458 Q213 471 178 471 Q154 471 128 465 L87 521 L212 633 L31 633 L31 724 L341 724 L341 632 L242 552 Q298 541 328 506 Q358 471 358 416 Z M946 235 Q990 222 1014.5 193 Q1039 164 1039 123 Q1039 61 994 27 Q949 -7 866 -7 Q783 -7 738 27.5 Q693 62 693 126 Q693 162 717.5 190 Q742 218 786 234 Q748 247 727.5 273 Q707 299 707 333 Q707 392 748.5 424 Q790 456 866 456 Q942 456 983.5 424 Q1025 392 1025 333 Q1025 298 1004.5 272.5 Q984 247 946 235 Z M866 370 Q814 370 814 322 Q814 286 869 271 Q918 284 918 323 Q918 370 866 370 Z M866 80 Q930 80 930 133 Q930 177 863 198 Q801 180 801 132 Q801 80 866 80 Z " />
<glyph glyph-name="fiveeighths" unicode="&#x215d;" horiz-adv-x="1071" d="M775 701 L373 -26 L286 23 L688 750 L775 701 Z M361 424 Q361 349 313 308.5 Q265 268 175 268 Q132 268 91.5 279.5 Q51 291 21 312 L59 395 Q127 365 175 365 Q213 365 231 379 Q249 393 249 422 Q249 472 183 472 Q150 472 109 461 L43 496 L56 724 L328 724 L328 633 L155 633 L145 560 Q173 567 194 567 Q274 567 317.5 529.5 Q361 492 361 424 Z M945 235 Q989 222 1013.5 193 Q1038 164 1038 123 Q1038 61 993 27 Q948 -7 865 -7 Q782 -7 737 27.5 Q692 62 692 126 Q692 162 716.5 190 Q741 218 785 234 Q747 247 726.5 273 Q706 299 706 333 Q706 392 747.5 424 Q789 456 865 456 Q941 456 982.5 424 Q1024 392 1024 333 Q1024 298 1003.5 272.5 Q983 247 945 235 Z M865 370 Q813 370 813 322 Q813 286 868 271 Q917 284 917 323 Q917 370 865 370 Z M865 80 Q929 80 929 133 Q929 177 862 198 Q800 180 800 132 Q800 80 865 80 Z " />
<glyph glyph-name="seveneighths" unicode="&#x215e;" horiz-adv-x="955" d="M659 701 L257 -26 L170 23 L572 750 L659 701 Z M323 633 L147 268 L47 316 L210 633 L1 633 L1 724 L323 724 L323 633 Z M829 235 Q873 222 897.5 193 Q922 164 922 123 Q922 61 877 27 Q832 -7 749 -7 Q666 -7 621 27.5 Q576 62 576 126 Q576 162 600.5 190 Q625 218 669 234 Q631 247 610.5 273 Q590 299 590 333 Q590 392 631.5 424 Q673 456 749 456 Q825 456 866.5 424 Q908 392 908 333 Q908 298 887.5 272.5 Q867 247 829 235 Z M749 370 Q697 370 697 322 Q697 286 752 271 Q801 284 801 323 Q801 370 749 370 Z M749 80 Q813 80 813 133 Q813 177 746 198 Q684 180 684 132 Q684 80 749 80 Z " />
<glyph glyph-name="uni2080" unicode="&#x2080;" horiz-adv-x="452" d="M226 -80 Q140 -80 95.5 -24 Q51 32 51 151 Q51 271 95.5 327 Q140 383 226 383 Q312 383 356.5 327 Q401 271 401 151 Q401 32 356.5 -24 Q312 -80 226 -80 Z M226 13 Q260 13 274.5 45.5 Q289 78 289 151 Q289 225 274.5 257.5 Q260 290 226 290 Q192 290 177.5 257.5 Q163 225 163 151 Q163 78 177.5 45.5 Q192 13 226 13 Z " />
<glyph glyph-name="uni2081" unicode="&#x2081;" horiz-adv-x="360" d="M251 376 L251 -73 L143 -73 L143 271 L45 237 L16 321 L158 376 L251 376 Z " />
<glyph glyph-name="uni2082" unicode="&#x2082;" horiz-adv-x="383" d="M342 18 L342 -73 L23 -73 L23 18 L179 168 Q208 195 217.5 209.5 Q227 224 227 241 Q227 286 174 286 Q123 286 61 246 L14 326 Q98 383 185 383 Q258 383 297.5 348 Q337 313 337 248 Q337 210 320 180 Q303 150 256 107 L160 18 L342 18 Z " />
<glyph glyph-name="uni2083" unicode="&#x2083;" horiz-adv-x="407" d="M242 204 Q298 193 328 158 Q358 123 358 68 Q358 -3 310 -41.5 Q262 -80 173 -80 Q82 -80 14 -34 L52 49 Q118 17 173 17 Q246 17 246 71 Q246 97 229.5 110 Q213 123 178 123 Q154 123 128 117 L87 173 L212 285 L31 285 L31 376 L341 376 L341 284 L242 204 Z " />
<glyph glyph-name="uni2084" unicode="&#x2084;" horiz-adv-x="396" d="M369 89 L369 0 L318 0 L318 -73 L213 -73 L213 0 L7 0 L7 89 L168 376 L318 376 L318 89 L369 89 Z M213 89 L213 282 L117 89 L213 89 Z " />
<glyph glyph-name="uni2085" unicode="&#x2085;" horiz-adv-x="406" d="M194 219 Q274 219 317.5 181.5 Q361 144 361 76 Q361 1 313 -39.5 Q265 -80 175 -80 Q132 -80 91.5 -68.5 Q51 -57 21 -36 L59 47 Q127 17 175 17 Q213 17 231 31 Q249 45 249 74 Q249 124 183 124 Q150 124 109 113 L43 148 L56 376 L328 376 L328 285 L155 285 L145 212 Q173 219 194 219 Z " />
<glyph glyph-name="uni2086" unicode="&#x2086;" horiz-adv-x="399" d="M234 215 Q300 215 336 178 Q372 141 372 74 Q372 1 328.5 -39.5 Q285 -80 205 -80 Q124 -80 79.5 -38.5 Q35 3 35 78 Q35 143 58.5 195.5 Q82 248 135 299 L221 383 L296 315 L217 242 Q197 224 184 208 Q212 215 234 215 Z M205 11 Q262 11 262 73 Q262 135 200 135 Q182 135 152 127 Q144 103 144 78 Q144 11 205 11 Z " />
<glyph glyph-name="uni2087" unicode="&#x2087;" horiz-adv-x="340" d="M323 376 L323 285 L147 -80 L47 -32 L210 285 L1 285 L1 376 L323 376 Z " />
<glyph glyph-name="uni2088" unicode="&#x2088;" horiz-adv-x="416" d="M208 -80 Q125 -80 80 -45.5 Q35 -11 35 53 Q35 89 59.5 117 Q84 145 128 161 Q90 174 69.5 200 Q49 226 49 260 Q49 319 90.5 351 Q132 383 208 383 Q284 383 325.5 351 Q367 319 367 260 Q367 225 346.5 199.5 Q326 174 288 162 Q332 149 356.5 120 Q381 91 381 50 Q381 -12 336 -46 Q291 -80 208 -80 Z M211 198 Q260 211 260 250 Q260 297 208 297 Q156 297 156 249 Q156 213 211 198 Z M208 7 Q272 7 272 60 Q272 104 205 125 Q143 107 143 59 Q143 7 208 7 Z " />
<glyph glyph-name="uni2089" unicode="&#x2089;" horiz-adv-x="399" d="M194 383 Q275 383 319.5 341.5 Q364 300 364 225 Q364 160 340.5 107.5 Q317 55 264 4 L178 -80 L103 -12 L182 61 Q202 79 215 95 Q187 88 165 88 Q99 88 63 125 Q27 162 27 229 Q27 302 70.5 342.5 Q114 383 194 383 Z M137 230 Q137 168 199 168 Q217 168 247 176 Q255 200 255 225 Q255 292 194 292 Q137 292 137 230 Z " />
<glyph glyph-name="uni2070" unicode="&#x2070;" horiz-adv-x="452" d="M226 314 Q140 314 95.5 370 Q51 426 51 545 Q51 665 95.5 721 Q140 777 226 777 Q312 777 356.5 721 Q401 665 401 545 Q401 426 356.5 370 Q312 314 226 314 Z M226 407 Q260 407 274.5 439.5 Q289 472 289 545 Q289 619 274.5 651.5 Q260 684 226 684 Q192 684 177.5 651.5 Q163 619 163 545 Q163 472 177.5 439.5 Q192 407 226 407 Z " />
<glyph glyph-name="uni00B9" unicode="&#xb9;" horiz-adv-x="360" d="M251 770 L251 321 L143 321 L143 665 L45 631 L16 715 L158 770 L251 770 Z " />
<glyph glyph-name="uni00B2" unicode="&#xb2;" horiz-adv-x="383" d="M342 412 L342 321 L23 321 L23 412 L179 562 Q208 589 217.5 603.5 Q227 618 227 635 Q227 680 174 680 Q123 680 61 640 L14 720 Q98 777 185 777 Q258 777 297.5 742 Q337 707 337 642 Q337 604 320 574 Q303 544 256 501 L160 412 L342 412 Z " />
<glyph glyph-name="uni00B3" unicode="&#xb3;" horiz-adv-x="407" d="M242 598 Q298 587 328 552 Q358 517 358 462 Q358 391 310 352.5 Q262 314 173 314 Q82 314 14 360 L52 443 Q118 411 173 411 Q246 411 246 465 Q246 491 229.5 504 Q213 517 178 517 Q154 517 128 511 L87 567 L212 679 L31 679 L31 770 L341 770 L341 678 L242 598 Z " />
<glyph glyph-name="uni2074" unicode="&#x2074;" horiz-adv-x="390" d="M369 483 L369 394 L318 394 L318 321 L213 321 L213 394 L7 394 L7 483 L168 770 L318 770 L318 483 L369 483 Z M213 483 L213 676 L117 483 L213 483 Z " />
<glyph glyph-name="uni2075" unicode="&#x2075;" horiz-adv-x="406" d="M194 613 Q274 613 317.5 575.5 Q361 538 361 470 Q361 395 313 354.5 Q265 314 175 314 Q132 314 91.5 325.5 Q51 337 21 358 L59 441 Q127 411 175 411 Q213 411 231 425 Q249 439 249 468 Q249 518 183 518 Q150 518 109 507 L43 542 L56 770 L328 770 L328 679 L155 679 L145 606 Q173 613 194 613 Z " />
<glyph glyph-name="uni2076" unicode="&#x2076;" horiz-adv-x="399" d="M234 609 Q300 609 336 572 Q372 535 372 468 Q372 395 328.5 354.5 Q285 314 205 314 Q124 314 79.5 355.5 Q35 397 35 472 Q35 537 58.5 589.5 Q82 642 135 693 L221 777 L296 709 L217 636 Q197 618 184 602 Q212 609 234 609 Z M205 405 Q262 405 262 467 Q262 529 200 529 Q182 529 152 521 Q144 497 144 472 Q144 405 205 405 Z " />
<glyph glyph-name="uni2077" unicode="&#x2077;" horiz-adv-x="340" d="M323 770 L323 679 L147 314 L47 362 L210 679 L1 679 L1 770 L323 770 Z " />
<glyph glyph-name="uni2078" unicode="&#x2078;" horiz-adv-x="416" d="M208 314 Q125 314 80 348.5 Q35 383 35 447 Q35 483 59.5 511 Q84 539 128 555 Q90 568 69.5 594 Q49 620 49 654 Q49 713 90.5 745 Q132 777 208 777 Q284 777 325.5 745 Q367 713 367 654 Q367 619 346.5 593.5 Q326 568 288 556 Q332 543 356.5 514 Q381 485 381 444 Q381 382 336 348 Q291 314 208 314 Z M211 592 Q260 605 260 644 Q260 691 208 691 Q156 691 156 643 Q156 607 211 592 Z M208 401 Q272 401 272 454 Q272 498 205 519 Q143 501 143 453 Q143 401 208 401 Z " />
<glyph glyph-name="uni2079" unicode="&#x2079;" horiz-adv-x="399" d="M194 777 Q275 777 319.5 735.5 Q364 694 364 619 Q364 554 340.5 501.5 Q317 449 264 398 L178 314 L103 382 L182 455 Q202 473 215 489 Q187 482 165 482 Q99 482 63 519 Q27 556 27 623 Q27 696 70.5 736.5 Q114 777 194 777 Z M137 624 Q137 562 199 562 Q217 562 247 570 Q255 594 255 619 Q255 686 194 686 Q137 686 137 624 Z " />
<glyph glyph-name="asterisk" unicode="&#x2a;" horiz-adv-x="540" d="M344 480 L442 360 L353 289 L270 420 L187 289 L98 360 L196 480 L48 518 L84 626 L224 570 L213 724 L327 724 L316 570 L456 626 L492 518 L344 480 Z " />
<glyph glyph-name="backslash" unicode="&#x5c;" horiz-adv-x="457" d="M332 -86 L7 749 L119 749 L444 -86 L332 -86 Z " />
<glyph glyph-name="middot" unicode="&#xb7;" horiz-adv-x="266" d="M133 259 Q94 259 71.5 280.5 Q49 302 49 339 Q49 377 71 398 Q93 419 133 419 Q172 419 194.5 397.5 Q217 376 217 340 Q217 302 195 280.5 Q173 259 133 259 Z " />
<glyph glyph-name="bullet" unicode="&#x2022;" horiz-adv-x="467" d="M233 181 Q155 181 111.5 225 Q68 269 68 347 Q68 426 111.5 469.5 Q155 513 233 513 Q312 513 355.5 469.5 Q399 426 399 347 Q399 269 355.5 225 Q312 181 233 181 Z " />
<glyph glyph-name="colon" unicode="&#x3a;" horiz-adv-x="306" d="M153 317 Q114 317 91.5 338.5 Q69 360 69 397 Q69 435 91 456 Q113 477 153 477 Q192 477 214.5 455.5 Q237 434 237 398 Q237 360 215 338.5 Q193 317 153 317 Z M153 -13 Q114 -13 91.5 8.5 Q69 30 69 67 Q69 105 91 126 Q113 147 153 147 Q192 147 214.5 125.5 Q237 104 237 68 Q237 30 215 8.5 Q193 -13 153 -13 Z " />
<glyph glyph-name="comma" unicode="&#x2c;" horiz-adv-x="250" d="M-2 -128 Q37 -86 53 -45.5 Q69 -5 69 53 Q69 90 63 132 L195 132 Q201 93 201 55 Q201 -17 166 -75 Q131 -133 54 -188 L-2 -128 Z " />
<glyph glyph-name="ellipsis" unicode="&#x2026;" horiz-adv-x="770" d="M637 -13 Q598 -13 575.5 8.5 Q553 30 553 67 Q553 105 575 126 Q597 147 637 147 Q676 147 698.5 125.5 Q721 104 721 68 Q721 30 699 8.5 Q677 -13 637 -13 Z M133 -13 Q94 -13 71.5 8.5 Q49 30 49 67 Q49 105 71 126 Q93 147 133 147 Q172 147 194.5 125.5 Q217 104 217 68 Q217 30 195 8.5 Q173 -13 133 -13 Z M385 -13 Q346 -13 323.5 8.5 Q301 30 301 67 Q301 105 323 126 Q345 147 385 147 Q424 147 446.5 125.5 Q469 104 469 68 Q469 30 447 8.5 Q425 -13 385 -13 Z " />
<glyph glyph-name="exclam" unicode="&#x21;" horiz-adv-x="364" d="M107 724 L257 724 L236 219 L128 219 L107 724 Z M182 -13 Q143 -13 120.5 8.5 Q98 30 98 67 Q98 105 120 126 Q142 147 182 147 Q221 147 243.5 125.5 Q266 104 266 68 Q266 30 244 8.5 Q222 -13 182 -13 Z " />
<glyph glyph-name="exclamdown" unicode="&#xa1;" horiz-adv-x="364" d="M182 547 Q221 547 243.5 525.5 Q266 504 266 467 Q266 429 244 408 Q222 387 182 387 Q143 387 120.5 408.5 Q98 430 98 466 Q98 504 120 525.5 Q142 547 182 547 Z M257 -190 L107 -190 L128 315 L236 315 L257 -190 Z " />
<glyph glyph-name="numbersign" unicode="&#x23;" horiz-adv-x="705" d="M538 448 L509 276 L639 276 L639 179 L493 179 L463 0 L354 0 L384 179 L261 179 L231 0 L123 0 L153 179 L21 179 L21 276 L169 276 L198 448 L64 448 L64 545 L214 545 L244 724 L353 724 L323 545 L446 545 L476 724 L584 724 L554 545 L684 545 L684 448 L538 448 Z M429 448 L306 448 L278 276 L401 276 L429 448 Z " />
<glyph glyph-name="period" unicode="&#x2e;" horiz-adv-x="266" d="M133 -13 Q94 -13 71.5 8.5 Q49 30 49 67 Q49 105 71 126 Q93 147 133 147 Q172 147 194.5 125.5 Q217 104 217 68 Q217 30 195 8.5 Q173 -13 133 -13 Z " />
<glyph glyph-name="question" unicode="&#x3f;" horiz-adv-x="522" d="M170 219 Q167 257 167 268 Q167 328 188 367 Q209 406 265 450 Q306 483 320 502 Q334 521 334 544 Q334 610 247 610 Q175 610 90 561 L36 672 Q82 703 140.5 720 Q199 737 260 737 Q363 737 419.5 687.5 Q476 638 476 547 Q476 497 454 462 Q432 427 374 382 Q324 343 307 319.5 Q290 296 290 265 Q290 254 293 219 L170 219 Z M232 -13 Q193 -13 170.5 8.5 Q148 30 148 67 Q148 105 170 126 Q192 147 232 147 Q271 147 293.5 125.5 Q316 104 316 68 Q316 30 294 8.5 Q272 -13 232 -13 Z " />
<glyph glyph-name="questiondown" unicode="&#xbf;" horiz-adv-x="472" d="M290 547 Q329 547 351.5 525.5 Q374 504 374 467 Q374 429 352 408 Q330 387 290 387 Q251 387 228.5 408.5 Q206 430 206 466 Q206 504 228 525.5 Q250 547 290 547 Z M352 315 Q355 278 355 266 Q355 206 334 167 Q313 128 257 84 Q216 51 202 32 Q188 13 188 -10 Q188 -76 275 -76 Q347 -76 432 -27 L486 -138 Q440 -169 381.5 -186 Q323 -203 262 -203 Q159 -203 102.5 -153.5 Q46 -104 46 -13 Q46 37 68 72 Q90 107 148 152 Q198 191 215 214.5 Q232 238 232 269 Q232 281 229 315 L352 315 Z " />
<glyph glyph-name="quotedbl" unicode="&#x22;" horiz-adv-x="410" d="M227 724 L354 724 L333 453 L248 453 L227 724 Z M56 724 L183 724 L162 453 L77 453 L56 724 Z " />
<glyph glyph-name="quotesingle" unicode="&#x27;" horiz-adv-x="239" d="M56 724 L183 724 L162 453 L77 453 L56 724 Z " />
<glyph glyph-name="semicolon" unicode="&#x3b;" horiz-adv-x="306" d="M153 317 Q114 317 91.5 338.5 Q69 360 69 397 Q69 435 91 456 Q113 477 153 477 Q192 477 214.5 455.5 Q237 434 237 398 Q237 360 215 338.5 Q193 317 153 317 Z M23 -128 Q62 -86 78 -45.5 Q94 -5 94 53 Q94 90 88 132 L220 132 Q226 93 226 55 Q226 -17 191 -75 Q156 -133 79 -188 L23 -128 Z " />
<glyph glyph-name="slash" unicode="&#x2f;" horiz-adv-x="457" d="M338 749 L450 749 L125 -86 L13 -86 L338 749 Z " />
<glyph glyph-name="underscore" unicode="&#x5f;" horiz-adv-x="601" d="M78 -56 L523 -56 L523 -166 L78 -166 L78 -56 Z " />
<glyph glyph-name="uni208D" unicode="&#x208d;" horiz-adv-x="260" d="M158 -166 Q34 -18 34 145 Q34 311 158 459 L240 398 Q154 294 154 146 Q154 -1 240 -105 L158 -166 Z " />
<glyph glyph-name="uni208E" unicode="&#x208e;" horiz-adv-x="260" d="M102 459 Q226 311 226 148 Q226 -18 102 -166 L20 -105 Q106 -1 106 147 Q106 294 20 398 L102 459 Z " />
<glyph glyph-name="braceleft" unicode="&#x7b;" horiz-adv-x="381" d="M337 -131 Q252 -112 206 -84 Q160 -56 140 -11 Q120 34 120 108 L120 211 Q120 251 92.5 270 Q65 289 8 290 L8 394 Q65 395 92.5 414 Q120 433 120 473 L120 577 Q120 651 140 695.5 Q160 740 206 768 Q252 796 337 815 L365 717 Q315 705 289 689.5 Q263 674 253 648.5 Q243 623 243 577 L243 473 Q243 367 156 343 Q243 319 243 211 L243 108 Q243 62 253 36 Q263 10 289 -5.5 Q315 -21 365 -33 L337 -131 Z " />
<glyph glyph-name="braceright" unicode="&#x7d;" horiz-adv-x="381" d="M16 -33 Q66 -21 92 -5.5 Q118 10 128 36 Q138 62 138 108 L138 211 Q138 319 225 343 Q138 367 138 473 L138 577 Q138 623 128 648.5 Q118 674 92 689.5 Q66 705 16 717 L44 815 Q129 796 175 768 Q221 740 241 695.5 Q261 651 261 577 L261 473 Q261 433 288.5 414 Q316 395 373 394 L373 290 Q316 289 288.5 270 Q261 251 261 211 L261 108 Q261 34 241 -11 Q221 -56 175 -84 Q129 -112 44 -131 L16 -33 Z " />
<glyph glyph-name="bracketleft" unicode="&#x5b;" horiz-adv-x="358" d="M202 701 L202 -17 L341 -17 L341 -121 L78 -121 L78 805 L341 805 L341 701 L202 701 Z " />
<glyph glyph-name="bracketright" unicode="&#x5d;" horiz-adv-x="358" d="M280 805 L280 -121 L17 -121 L17 -17 L156 -17 L156 701 L17 701 L17 805 L280 805 Z " />
<glyph glyph-name="parenleft" unicode="&#x28;" horiz-adv-x="336" d="M214 -135 Q44 86 44 341 Q44 598 214 819 L306 750 Q174 575 174 342 Q174 110 306 -66 L214 -135 Z " />
<glyph glyph-name="parenright" unicode="&#x29;" horiz-adv-x="336" d="M30 -66 Q162 110 162 342 Q162 575 30 750 L122 819 Q292 598 292 341 Q292 86 122 -135 L30 -66 Z " />
<glyph glyph-name="uni207D" unicode="&#x207d;" horiz-adv-x="260" d="M158 238 Q34 386 34 549 Q34 715 158 863 L240 802 Q154 698 154 550 Q154 403 240 299 L158 238 Z " />
<glyph glyph-name="uni207E" unicode="&#x207e;" horiz-adv-x="260" d="M102 863 Q226 715 226 552 Q226 386 102 238 L20 299 Q106 403 106 551 Q106 698 20 802 L102 863 Z " />
<glyph glyph-name="emdash" unicode="&#x2014;" horiz-adv-x="921" d="M39 354 L882 354 L882 254 L39 254 L39 354 Z " />
<glyph glyph-name="endash" unicode="&#x2013;" horiz-adv-x="614" d="M39 354 L575 354 L575 254 L39 254 L39 354 Z " />
<glyph glyph-name="figuredash" unicode="&#x2012;" horiz-adv-x="614" d="M39 354 L575 354 L575 254 L39 254 L39 354 Z " />
<glyph glyph-name="uni2015" unicode="&#x2015;" horiz-adv-x="921" d="M39 354 L882 354 L882 254 L39 254 L39 354 Z " />
<glyph glyph-name="hyphen" unicode="&#x2d;" horiz-adv-x="413" d="M39 354 L374 354 L374 249 L39 249 L39 354 Z " />
<glyph glyph-name="uni2010" unicode="&#x2010;" horiz-adv-x="413" d="M39 354 L374 354 L374 249 L39 249 L39 354 Z " />
<glyph glyph-name="uni00AD" unicode="&#xad;" horiz-adv-x="413" d="M39 354 L374 354 L374 249 L39 249 L39 354 Z " />
<glyph glyph-name="guillemotleft" unicode="&#xab;" horiz-adv-x="609" d="M416 292 L590 93 L508 15 L269 291 L509 567 L590 489 L416 292 Z M164 292 L338 93 L256 15 L17 291 L257 567 L338 489 L164 292 Z " />
<glyph glyph-name="guillemotright" unicode="&#xbb;" horiz-adv-x="609" d="M340 291 L100 15 L19 93 L193 290 L19 489 L101 567 L340 291 Z M592 291 L352 15 L271 93 L445 290 L271 489 L353 567 L592 291 Z " />
<glyph glyph-name="guilsinglleft" unicode="&#x2039;" horiz-adv-x="357" d="M164 292 L338 93 L256 15 L17 291 L257 567 L338 489 L164 292 Z " />
<glyph glyph-name="guilsinglright" unicode="&#x203a;" horiz-adv-x="357" d="M340 291 L100 15 L19 93 L193 290 L19 489 L101 567 L340 291 Z " />
<glyph glyph-name="quotedblbase" unicode="&#x201e;" horiz-adv-x="419" d="M6 -116 Q40 -80 53.5 -44.5 Q67 -9 67 44 Q67 80 61 122 L187 122 Q193 80 193 45 Q193 -16 161 -67 Q129 -118 58 -170 L6 -116 Z M194 -116 Q228 -80 241.5 -44.5 Q255 -9 255 44 Q255 80 249 122 L375 122 Q381 80 381 45 Q381 -16 349 -67 Q317 -118 246 -170 L194 -116 Z " />
<glyph glyph-name="quotedblleft" unicode="&#x201c;" horiz-adv-x="419" d="M225 729 Q191 693 177.5 657.5 Q164 622 164 569 Q164 533 170 491 L44 491 Q38 533 38 568 Q38 629 70 680 Q102 731 173 783 L225 729 Z M413 729 Q379 693 365.5 657.5 Q352 622 352 569 Q352 533 358 491 L232 491 Q226 533 226 568 Q226 629 258 680 Q290 731 361 783 L413 729 Z " />
<glyph glyph-name="quotedblright" unicode="&#x201d;" horiz-adv-x="399" d="M6 512 Q40 548 53.5 583.5 Q67 619 67 672 Q67 708 61 750 L187 750 Q193 708 193 673 Q193 612 161 561 Q129 510 58 458 L6 512 Z M194 512 Q228 548 241.5 583.5 Q255 619 255 672 Q255 708 249 750 L375 750 Q381 708 381 673 Q381 612 349 561 Q317 510 246 458 L194 512 Z " />
<glyph glyph-name="quoteleft" unicode="&#x2018;" horiz-adv-x="231" d="M225 729 Q191 693 177.5 657.5 Q164 622 164 569 Q164 533 170 491 L44 491 Q38 533 38 568 Q38 629 70 680 Q102 731 173 783 L225 729 Z " />
<glyph glyph-name="quoteright" unicode="&#x2019;" horiz-adv-x="211" d="M6 512 Q40 548 53.5 583.5 Q67 619 67 672 Q67 708 61 750 L187 750 Q193 708 193 673 Q193 612 161 561 Q129 510 58 458 L6 512 Z " />
<glyph glyph-name="quotesinglbase" unicode="&#x201a;" horiz-adv-x="231" d="M6 -116 Q40 -80 53.5 -44.5 Q67 -9 67 44 Q67 80 61 122 L187 122 Q193 80 193 45 Q193 -16 161 -67 Q129 -118 58 -170 L6 -116 Z " />
<glyph glyph-name="uni2007" unicode="&#x2007;" horiz-adv-x="628" d="" />
<glyph glyph-name="uni00A0" unicode="&#xa0;" horiz-adv-x="204" d="" />
<glyph glyph-name="uni20B5" unicode="&#x20b5;" horiz-adv-x="597" d="M551 60 Q485 16 399 9 L399 -85 L309 -85 L309 11 Q189 28 123.5 118.5 Q58 209 58 361 Q58 514 123.5 605.5 Q189 697 309 714 L309 809 L399 809 L399 717 Q484 710 551 664 L505 561 Q451 586 399 594 L399 133 Q453 140 505 162 L551 60 Z M198 361 Q198 266 225.5 210.5 Q253 155 309 139 L309 588 Q253 571 225.5 515 Q198 459 198 361 Z " />
<glyph glyph-name="cent" unicode="&#xa2;" horiz-adv-x="488" d="M461 73 Q410 35 334 28 L334 -85 L244 -85 L244 29 Q143 43 89 108.5 Q35 174 35 283 Q35 388 91.5 457 Q148 526 244 540 L244 655 L334 655 L334 541 Q403 533 455 498 L408 397 Q369 415 334 421 L334 147 Q381 152 417 172 L461 73 Z M170 284 Q170 229 188 197 Q206 165 244 153 L244 419 Q170 396 170 284 Z " />
<glyph glyph-name="colonmonetary" unicode="&#x20a1;" horiz-adv-x="597" d="M551 60 Q495 23 422 11 L416 -85 L349 -85 L355 7 Q337 7 305 11 L299 -85 L232 -85 L240 28 Q152 62 105 147.5 Q58 233 58 361 Q58 506 117 596 Q176 686 285 710 L292 809 L359 809 L353 718 L365 718 Q379 718 403 716 L409 809 L476 809 L469 703 Q514 689 551 664 L505 561 Q484 571 461 579 L431 138 Q465 145 505 162 L551 60 Z M314 137 Q337 131 363 131 L395 594 Q375 596 366 596 Q352 596 345 595 L314 137 Z M198 361 Q198 231 249 175 L276 573 Q198 524 198 361 Z " />
<glyph glyph-name="currency" unicode="&#xa4;" horiz-adv-x="598" d="M539 313 Q539 209 491 144 L559 59 L489 4 L421 87 Q368 62 299 62 Q230 62 177 87 L109 4 L39 59 L107 144 Q59 209 59 313 Q59 416 107 481 L39 566 L109 621 L177 538 Q230 563 299 563 Q368 563 421 538 L489 621 L559 566 L491 481 Q539 416 539 313 Z M299 181 Q407 181 407 313 Q407 444 299 444 Q191 444 191 313 Q191 181 299 181 Z " />
<glyph glyph-name="dollar" unicode="&#x24;" horiz-adv-x="558" d="M514 222 Q514 133 464.5 78 Q415 23 323 10 L323 -85 L233 -85 L233 7 Q178 11 126.5 26.5 Q75 42 34 68 L76 172 Q156 128 235 122 L236 308 L211 315 Q122 340 82.5 385.5 Q43 431 43 508 Q43 597 92.5 650.5 Q142 704 233 715 L233 809 L323 809 L323 716 Q413 707 496 672 L453 568 Q376 594 321 600 L320 424 L346 417 Q435 392 474.5 346.5 Q514 301 514 222 Z M171 529 Q171 500 186 481 Q201 462 236 449 L235 600 Q202 595 186.5 577.5 Q171 560 171 529 Z M321 126 Q355 133 370.5 151 Q386 169 386 201 Q386 232 371 251 Q356 270 320 283 L321 126 Z " />
<glyph glyph-name="dong" unicode="&#x20ab;" horiz-adv-x="579" d="M573 692 L573 607 L511 607 L511 0 L388 0 L388 78 Q337 -13 238 -13 Q143 -13 91 59.5 Q39 132 39 264 Q39 397 91.5 470 Q144 543 239 543 Q281 543 316 528 Q351 513 375 485 L375 607 L182 607 L182 692 L375 692 L375 770 L511 770 L511 692 L573 692 Z M282 113 Q308 113 330 124 Q352 135 375 159 L375 376 Q356 398 331 409.5 Q306 421 278 421 Q178 421 178 269 Q178 113 282 113 Z M57 -90 L536 -90 L536 -188 L57 -188 L57 -90 Z " />
<glyph glyph-name="Euro" unicode="&#x20ac;" horiz-adv-x="619" d="M408 111 Q461 111 527 139 L573 37 Q496 -13 405 -13 Q294 -13 223.5 53 Q153 119 130 242 L48 242 L48 329 L121 329 Q120 339 120 361 Q120 383 121 393 L48 393 L48 480 L130 480 Q153 604 224 670.5 Q295 737 407 737 Q450 737 493.5 723.5 Q537 710 573 686 L527 583 Q458 615 408 615 Q300 615 271 480 L457 480 L457 393 L261 393 Q260 383 260 361 Q260 339 261 329 L457 329 L457 242 L271 242 Q301 111 408 111 Z " />
<glyph glyph-name="florin" unicode="&#x192;" horiz-adv-x="579" d="M438 599 Q359 599 350 510 L340 416 L494 416 L494 299 L328 299 L295 -18 Q286 -110 230 -161 Q174 -212 81 -212 Q43 -212 5 -201 L25 -67 Q51 -74 82 -74 Q151 -74 160 5 L191 299 L89 299 L89 416 L203 416 L215 533 Q225 630 282 683.5 Q339 737 434 737 Q477 737 515 725.5 Q553 714 578 694 L509 579 Q474 599 438 599 Z " />
<glyph glyph-name="uni20B2" unicode="&#x20b2;" horiz-adv-x="668" d="M598 58 Q561 33 510.5 19.5 Q460 6 402 5 L402 -85 L314 -85 L314 12 Q195 35 131.5 125 Q68 215 68 362 Q68 509 131.5 599 Q195 689 314 712 L314 809 L402 809 L402 719 Q458 718 507.5 704.5 Q557 691 591 666 L551 558 Q474 595 402 598 L402 413 L598 413 L598 58 Z M208 362 Q208 182 314 140 L314 585 Q208 542 208 362 Z M402 126 Q435 126 462 132 L462 297 L402 297 L402 126 Z " />
<glyph glyph-name="lira" unicode="&#x20a4;" horiz-adv-x="534" d="M264 231 Q243 176 179 121 L490 121 L490 0 L51 0 L51 120 L80 148 Q126 193 138 231 L42 231 L42 328 L146 328 Q142 358 130 389 L42 389 L42 486 L91 486 Q84 518 84 547 Q84 638 140 687.5 Q196 737 298 737 Q357 737 407.5 720.5 Q458 704 492 674 L426 564 Q359 610 298 610 Q220 610 220 538 Q220 517 229 486 L426 486 L426 389 L265 389 Q276 355 277 328 L426 328 L426 231 L264 231 Z " />
<glyph glyph-name="uni20BA" unicode="&#x20ba;" horiz-adv-x="565" d="M541 314 Q541 161 458 77 Q375 -7 223 -7 Q173 -7 88 3 L88 266 L30 236 L18 236 L18 323 L88 360 L88 424 L30 394 L18 394 L18 481 L88 518 L88 724 L224 724 L224 589 L382 672 L393 672 L393 584 L224 496 L224 431 L382 514 L393 514 L393 426 L224 338 L224 116 L225 116 Q314 116 359.5 166.5 Q405 217 405 314 L541 314 Z " />
<glyph glyph-name="uni20A6" unicode="&#x20a6;" horiz-adv-x="788" d="M659 387 L659 337 L730 337 L730 282 L659 282 L659 0 L532 0 L384 282 L259 282 L259 0 L129 0 L129 282 L58 282 L58 337 L129 337 L129 387 L58 387 L58 442 L129 442 L129 724 L256 724 L404 442 L529 442 L529 724 L659 724 L659 442 L730 442 L730 387 L659 387 Z M259 521 L259 440 L301 440 L259 521 Z M356 336 L329 388 L259 388 L259 336 L356 336 Z M432 388 L459 336 L529 336 L529 388 L432 388 Z M487 284 L529 203 L529 284 L487 284 Z " />
<glyph glyph-name="peseta" unicode="&#x20a7;" horiz-adv-x="1293" d="M773 110 Q804 110 828 118 L848 7 Q806 -7 752 -7 Q586 -7 586 160 L586 431 L506 431 Q495 333 434 279.5 Q373 226 270 226 L234 226 L234 0 L98 0 L98 724 L234 724 L277 724 Q370 724 428 678 Q486 632 503 546 L586 546 L586 694 L720 694 L720 546 L841 546 L841 431 L720 431 L720 172 Q720 141 732.5 125.5 Q745 110 773 110 Z M277 346 Q370 346 370 473 Q370 604 270 604 L234 604 L234 346 L277 346 Z M1104 332 Q1243 295 1243 169 Q1243 83 1193 35.5 Q1143 -12 1052 -12 Q1008 -12 961.5 -0.5 Q915 11 874 31 L917 133 Q1000 99 1052 99 Q1117 99 1117 152 Q1117 174 1104 188 Q1091 202 1063 211 L1022 222 Q883 259 883 383 Q883 466 930.5 512 Q978 558 1065 558 Q1106 558 1149 548 Q1192 538 1229 519 L1183 419 Q1106 447 1063 447 Q1009 447 1009 400 Q1009 379 1022 365.5 Q1035 352 1063 343 L1104 332 Z " />
</font>
</svg>
