<svg xmlns="http://www.w3.org/2000/svg" xmlns:xlink="http://www.w3.org/1999/xlink" width="16" height="16" viewBox="0 0 16 16">
  <defs>
    <path id="delete16px-a" d="M10,0.45 C10.3624713,0.45 10.662611,0.71993368 10.7101171,1.06949924 L10.7166667,1.16666667 L10.716,2.616 L14.5,2.61666667 L14.5,3.71666667 L13.367,3.716 L12.459569,14.8778523 C12.4320372,15.2207481 12.1651967,15.495691 11.8327088,15.5428467 L11.7311667,15.55 L4.26883333,15.55 C3.92495252,15.55 3.62935305,15.3062295 3.55573112,14.9789553 L3.54047756,14.8784282 L2.632,3.716 L1.5,3.71666667 L1.5,2.61666667 L5.283,2.616 L5.28333333,1.16666667 C5.28333333,0.804195328 5.55326701,0.504055703 5.90283257,0.456549594 L6,0.45 L10,0.45 Z M12.264,3.716 L3.735,3.716 L4.608,14.45 L11.391,14.45 L12.264,3.716 Z M10.05,6 L10.05,12.3333333 L8.95,12.3333333 L8.95,6 L10.05,6 Z M7.05,6 L7.05,12.3333333 L5.95,12.3333333 L5.95,6 L7.05,6 Z M9.616,1.55 L6.383,1.55 L6.383,2.616 L9.616,2.616 L9.616,1.55 Z"/>
  </defs>
  <g fill="none" fill-rule="evenodd">
    <mask id="delete16px-b" fill="#fff">
      <use xlink:href="#delete16px-a"/>
    </mask>
    <use fill="#000" fill-rule="nonzero" xlink:href="#delete16px-a"/>
    <g fill="#000" mask="url(#delete16px-b)">
      <rect width="16" height="16"/>
    </g>
  </g>
</svg>
