<svg xmlns="http://www.w3.org/2000/svg" xmlns:xlink="http://www.w3.org/1999/xlink" width="16" height="16" viewBox="0 0 16 16">
  <defs>
    <path id="edit16px-a" d="M10.5604921,0.895057733 C10.8399987,0.616269644 11.2936346,0.616269644 11.5731412,0.895057733 L11.5731412,0.895057733 L15.1039745,4.4257244 C15.3841806,4.70521009 15.3841806,5.16000356 15.1045057,5.43967842 L15.1045057,5.43967842 L6.55130873,13.9942087 C6.41320178,14.1323157 6.19453837,14.2530781 6.00411439,14.2964209 L6.00411439,14.2964209 L1.45208192,15.3323665 C0.967170009,15.4436429 0.556390448,15.0328633 0.667458344,14.5488637 L0.667458344,14.5488637 L1.70361627,9.99806875 C1.7469552,9.80766163 1.86771766,9.58899822 2.00579809,9.45091779 L2.00579809,9.45091779 Z M2.59414862,11.0379667 L1.896,14.103 L4.95714862,13.4049667 L2.59414862,11.0379667 Z M11.066,1.944 L3.06214862,9.94896667 L6.04814862,12.9409667 L14.055,4.933 L11.066,1.944 Z"/>
  </defs>
  <g fill="none" fill-rule="evenodd">
    <mask id="edit16px-b" fill="#fff">
      <use xlink:href="#edit16px-a"/>
    </mask>
    <use fill="#000" fill-rule="nonzero" xlink:href="#edit16px-a"/>
    <g fill="#000" mask="url(#edit16px-b)">
      <rect width="16" height="16"/>
    </g>
  </g>
</svg>
