<svg xmlns="http://www.w3.org/2000/svg" xmlns:xlink="http://www.w3.org/1999/xlink" width="16" height="16" viewBox="0 0 16 16">
  <defs>
    <path id="filter16px-a" d="M1.49416342,2.10629053 L1.39493021,2.11280857 C0.883846029,2.18137994 0.6696549,2.77561763 1.05661137,3.1625741 L6.256,8.362 L6.25674449,11.4552529 C6.25674449,11.6924319 6.36748449,11.9598285 6.5352106,12.1275546 L8.62471514,14.2170592 L8.69951961,14.2826431 C9.10952316,14.5956446 9.6809987,14.3265144 9.6809987,13.7795071 L9.68,8.363 L14.8811318,3.1625741 C15.2922731,2.75143285 15.024775,2.10629053 14.4435798,2.10629053 L1.49416342,2.10629053 Z M13.281,3.206 L8.85946481,7.62860619 L8.78059946,7.72017378 C8.65790149,7.88462511 8.5809987,8.10325873 8.5809987,8.30090791 L8.58,12.617 L7.356,11.392 L7.35674449,8.30090791 L7.34776501,8.1804016 C7.3182482,7.97736531 7.21805013,7.76837794 7.07827838,7.62860619 L2.656,3.206 L13.281,3.206 Z"/>
  </defs>
  <g fill="none" fill-rule="evenodd">
    <mask id="filter16px-b" fill="#fff">
      <use xlink:href="#filter16px-a"/>
    </mask>
    <use fill="#000" fill-rule="nonzero" xlink:href="#filter16px-a"/>
    <g fill="#000" mask="url(#filter16px-b)">
      <rect width="16" height="16"/>
    </g>
  </g>
</svg>
