<?xml version="1.0" encoding="UTF-8"?>
<svg width="16px" height="16px" viewBox="0 0 16 16" version="1.1" xmlns="http://www.w3.org/2000/svg" xmlns:xlink="http://www.w3.org/1999/xlink">
    <g id="Page-1" stroke="none" stroke-width="1" fill="none" fill-rule="evenodd">
        <g id="Icons---Samsung.com" transform="translate(-1197.000000, -592.000000)" fill="#000000" fill-rule="nonzero">
            <g id="Kebab16px" transform="translate(1197.000000, 592.000000)">
                <g id="Icon-kebab16px" transform="translate(6.666667, 2.666667)">
                    <path id="kebab16px-a" d="M1.33333333,2.66666667 C2.06666667,2.66666667 2.66666667,2.06666667 2.66666667,1.33333333 C2.66666667,0.6 2.06666667,3.8191672e-14 1.33333333,3.8191672e-14 C0.6,3.8191672e-14 1.5187851e-13,0.6 1.5187851e-13,1.33333333 C1.5187851e-13,2.06666667 0.6,2.66666667 1.33333333,2.66666667 Z M1.33333333,4 C0.6,4 1.5187851e-13,4.6 1.5187851e-13,5.33333333 C1.5187851e-13,6.06666667 0.6,6.66666667 1.33333333,6.66666667 C2.06666667,6.66666667 2.66666667,6.06666667 2.66666667,5.33333333 C2.66666667,4.6 2.06666667,4 1.33333333,4 Z M1.33333333,8 C0.6,8 1.5187851e-13,8.6 1.5187851e-13,9.33333333 C1.5187851e-13,10.0666667 0.6,10.6666667 1.33333333,10.6666667 C2.06666667,10.6666667 2.66666667,10.0666667 2.66666667,9.33333333 C2.66666667,8.6 2.06666667,8 1.33333333,8 Z"></path>
                </g>
            </g>
        </g>
    </g>
</svg>