<?xml version="1.0" encoding="UTF-8"?>
<svg width="16px" height="16px" viewBox="0 0 16 16" version="1.1" xmlns="http://www.w3.org/2000/svg" xmlns:xlink="http://www.w3.org/1999/xlink">
    <title>Notification/Notification16px</title>
    <defs>
        <path d="M14.5,0.783333333 C14.8957566,0.783333333 15.2166667,1.10424339 15.2166667,1.5 L15.2166667,1.5 L15.2166667,11.1666667 C15.2166667,11.5624233 14.8957566,11.8833333 14.5,11.8833333 L14.5,11.8833333 L6.70633333,11.8833333 L3.89030481,14.720841 C3.56601912,15.0474675 3.02332932,14.8525871 2.95675984,14.4224193 L2.95675984,14.4224193 L2.95,14.3333333 L2.94933333,11.8833333 L1.5,11.8833333 C1.13722311,11.8833333 0.83733811,11.6136797 0.789876562,11.2639041 L0.789876562,11.2639041 L0.783333333,11.1666667 L0.783333333,1.5 C0.783333333,1.10424339 1.10424339,0.783333333 1.5,0.783333333 L1.5,0.783333333 Z M14.1163333,1.88333333 L1.88333333,1.88333333 L1.88333333,10.7833333 L3.5,10.7833333 C3.77338095,10.7833333 4.00017619,10.9827905 4.04280143,11.2441205 L4.04280143,11.2441205 L4.05,11.3333333 L4.04933333,12.9983333 L6.08819519,10.9458257 C6.17080031,10.8626243 6.27723738,10.80855 6.39154395,10.7902484 L6.39154395,10.7902484 L6.4785,10.7833333 L14.1163333,10.7833333 L14.1163333,1.88333333 Z M8,7.79166667 C8.36833333,7.79166667 8.66666667,8.09033333 8.66666667,8.45833333 C8.66666667,8.82683333 8.36833333,9.125 8,9.125 C7.63183333,9.125 7.33333333,8.82683333 7.33333333,8.45833333 C7.33333333,8.09033333 7.63183333,7.79166667 8,7.79166667 Z M8.55,3.54166667 L8.55,7.04166667 L7.45,7.04166667 L7.45,3.54166667 L8.55,3.54166667 Z" id="path-1"></path>
    </defs>
    <g id="Notification/Notification16px" stroke="none" stroke-width="1" fill="none" fill-rule="evenodd">
        <mask id="mask-2" fill="white">
            <use xlink:href="#path-1"></use>
        </mask>
        <use id="Combined-Shape" fill="#000000" fill-rule="nonzero" xlink:href="#path-1"></use>
        <g id="Group" mask="url(#mask-2)" fill="#000000">
            <g id="color">
                <rect id="colors/main/black" x="0" y="0" width="16" height="16"></rect>
            </g>
        </g>
    </g>
</svg>