<?xml version="1.0" encoding="UTF-8"?>
<svg width="16px" height="16px" viewBox="0 0 16 16" version="1.1" xmlns="http://www.w3.org/2000/svg" xmlns:xlink="http://www.w3.org/1999/xlink">
    <title>Settings/Settings16px</title>
    <defs>
        <path d="M9.47073333,0.28325 C9.81351474,0.28325 10.1262832,0.525938971 10.2117085,0.857663624 L10.2117085,0.857663624 L10.7100395,2.79325 L11.1370395,3.04125 L13.0539743,2.50784945 C13.3477856,2.42580402 13.6703952,2.53527215 13.8584644,2.76952607 L13.8584644,2.76952607 L13.9223648,2.8630903 L15.3938172,5.42213087 C15.5638077,5.71806318 15.5107786,6.10865909 15.267619,6.34933003 L15.267619,6.34933003 L13.8420395,7.75525 L13.8420395,8.24425 L15.2677981,9.65101341 C15.4837805,9.86423387 15.5497324,10.1968089 15.4422005,10.4761541 L15.4422005,10.4761541 L15.3936981,10.5780764 L13.9224839,13.1367025 C13.751565,13.4342511 13.3846424,13.5846547 13.0542952,13.4924067 L13.0542952,13.4924067 L11.1380395,12.95825 L10.7100395,13.20525 L10.2116895,15.1424104 C10.1348174,15.440921 9.87377003,15.6671926 9.57258428,15.7094618 L9.57258428,15.7094618 L9.4709,15.7165833 L6.52906667,15.7165833 C6.18648092,15.7165833 5.87369065,15.4740888 5.78826091,15.1423471 L5.78826091,15.1423471 L5.28903947,13.20725 L4.86203947,12.95725 L2.94625171,13.4922447 C2.65232279,13.5744781 2.32967486,13.4646909 2.14165828,13.2304677 L2.14165828,13.2304677 L2.07778196,13.136933 L0.60614943,10.5778691 C0.435962695,10.2815951 0.489274827,9.89035288 0.732514379,9.65083664 L0.732514379,9.65083664 L2.15703947,8.24425 L2.15703947,7.75425 L0.732328768,6.34914687 C0.516280336,6.13585416 0.450206374,5.80329016 0.557763059,5.52385946 L0.557763059,5.52385946 L0.606281956,5.42190029 L2.07764943,2.86329754 C2.24863149,2.56563899 2.61571239,2.41544591 2.9456829,2.50776313 L2.9456829,2.50776313 L4.86103947,3.04125 L5.28903947,2.79325 L5.78844388,0.857589621 C5.86529017,0.559179232 6.12626458,0.33269245 6.42752021,0.290379198 L6.42752021,0.290379198 L6.52923333,0.28325 Z M9.21103947,1.38325 L6.78803947,1.38325 L6.33702278,3.13874371 C6.28415904,3.34402484 6.13997088,3.54586947 5.97517663,3.66411147 L5.97517663,3.66411147 L5.89138973,3.71589445 L5.38556906,4.00890248 C5.17627522,4.14360996 4.87877332,4.18840009 4.63945043,4.1215702 L4.63945043,4.1215702 L2.90103947,3.63625 L1.68703947,5.74625 L2.97813143,7.01918008 C3.12171298,7.16092555 3.22292385,7.37395251 3.25017626,7.57541963 L3.25017626,7.57541963 L3.2574,7.69425 L3.25730944,8.29576979 C3.26170496,8.5379629 3.15058685,8.81029607 2.97795229,8.98116336 L2.97795229,8.98116336 L1.68803947,10.25325 L2.90103947,12.36225 L4.63930764,11.8786828 C4.83900126,11.8229193 5.07888208,11.8447296 5.26200275,11.9239114 L5.26200275,11.9239114 L5.36428836,11.9781435 L5.86995182,12.2724554 C6.08944412,12.3871491 6.27545629,12.6218976 6.33703909,12.8614863 L6.33703909,12.8614863 L6.78803947,14.61625 L9.21103947,14.61625 L9.66288178,12.8616643 C9.71567879,12.656257 9.85989852,12.4545303 10.0247561,12.3361487 L10.0247561,12.3361487 L10.1085769,12.2842722 L10.6139425,11.9915574 C10.8232102,11.8565752 11.1209197,11.8117367 11.3603381,11.8785933 L11.3603381,11.8785933 L13.0980395,12.36225 L14.3110395,10.25225 L13.0219954,8.98098021 C12.8784486,8.83926434 12.7774049,8.6266377 12.7499559,8.42486039 L12.7499559,8.42486039 L12.7425667,8.30575 L12.7426403,7.7032488 C12.7386799,7.46122481 12.8498963,7.1886508 13.022181,7.0190033 L13.022181,7.0190033 L14.3120395,5.74625 L13.0980395,3.63725 L11.3608257,4.12148389 C11.1610429,4.17727229 10.9210031,4.15543251 10.7381859,4.07629476 L10.7381859,4.07629476 L10.6361422,4.022099 L10.1296043,3.7274965 C9.91058451,3.61281471 9.72458598,3.37811304 9.66292483,3.13866971 L9.66292483,3.13866971 L9.21103947,1.38325 Z M7.99988333,4.45 C9.96057896,4.45 11.5498833,6.03918239 11.5498833,8 C11.5498833,9.96081761 9.96057896,11.55 7.99988333,11.55 C6.0391877,11.55 4.44988333,9.96081761 4.44988333,8 C4.44988333,6.03918239 6.0391877,4.45 7.99988333,4.45 Z M7.99988333,5.55 C6.64668203,5.55 5.54988333,6.64671452 5.54988333,8 C5.54988333,9.35328548 6.64668203,10.45 7.99988333,10.45 C9.35308464,10.45 10.4498833,9.35328548 10.4498833,8 C10.4498833,6.64671452 9.35308464,5.55 7.99988333,5.55 Z" id="path-1"></path>
    </defs>
    <g id="Settings/Settings16px" stroke="none" stroke-width="1" fill="none" fill-rule="evenodd">
        <mask id="mask-2" fill="white">
            <use xlink:href="#path-1"></use>
        </mask>
        <use id="Combined-Shape" fill="#000000" fill-rule="nonzero" xlink:href="#path-1"></use>
        <g id="Group" mask="url(#mask-2)" fill="#000000">
            <g id="color">
                <rect id="colors/main/black" x="0" y="0" width="16" height="16"></rect>
            </g>
        </g>
    </g>
</svg>