<svg xmlns="http://www.w3.org/2000/svg" xmlns:xlink="http://www.w3.org/1999/xlink" width="24" height="24" viewBox="0 0 24 24">
  <defs>
    <path id="bookmark24px-a" d="M8.462,8.279 L0.95212412,8.82541241 L0.842446464,8.83963326 C0.20781522,8.96083955 0.000607989423,9.71052377 0.523200774,10.1499486 L6.272,14.973 L4.47631814,22.226016 L4.45674039,22.3291749 C4.37197566,22.972044 5.01857359,23.4057524 5.60068833,23.0475279 L12,19.104 L18.399361,23.0473736 L18.4917295,23.0974612 C19.0786424,23.3740714 19.6879392,22.889298 19.5240325,22.2262206 L17.728,14.973 L23.4763122,10.1503997 L23.5567857,10.0743828 C23.9996768,9.60299836 23.7290623,8.87388667 23.0469174,8.82533986 L15.538,8.279 L12.6961393,1.35889118 C12.4229904,0.694969606 11.5770596,0.694969606 11.3039107,1.35889118 L8.462,8.279 Z M12,3.086 L14.393503,8.91412514 L14.4502545,9.0291757 C14.6221479,9.32620749 14.9523396,9.54060081 15.2932162,9.56481609 L21.604,10.023 L16.7737378,14.0770003 L16.6811055,14.1661349 C16.4498182,14.4205467 16.3467672,14.8014395 16.4290175,15.1341794 L17.94,21.238 L12.553689,17.9195264 L12.4406849,17.8599446 C12.1284003,17.7209207 11.7361775,17.7407861 11.4460326,17.9195748 L6.06,21.237 L7.57098186,15.134384 L7.59328129,15.0075659 C7.63017067,14.6651933 7.48880364,14.2965716 7.2255738,14.0763817 L2.395,10.024 L8.70817588,9.56473759 C9.09063764,9.5375691 9.46030831,9.26957638 9.60638926,8.91450882 L12,3.086 Z"/>
  </defs>
  <g fill="none" fill-rule="evenodd">
    <mask id="24px-b" fill="#fff">
      <use xlink:href="#24px-a"/>
    </mask>
    <use fill="#000" fill-rule="nonzero" xlink:href="#bookmark24px-a"/>
    <g fill="#000" mask="url(#24px-b)">
      <rect width="24" height="24"/>
    </g>
  </g>
</svg>
