<svg xmlns="http://www.w3.org/2000/svg" xmlns:xlink="http://www.w3.org/1999/xlink" width="24" height="24" viewBox="0 0 24 24">
  <defs>
    <path id="bookmarkfilled24px-a" d="M11.905025,1.6062 C11.957275,1.4792 12.042775,1.4792 12.095025,1.6062 L14.994775,8.6672 C15.047025,8.7942 15.202025,8.9067 15.339275,8.91645 L23.000775,9.4737 C23.137775,9.48345 23.163775,9.56395 23.058525,9.65245 L17.191525,14.57495 C17.086275,14.6632 17.027025,14.8447 17.060025,14.9782 L18.893025,22.3822 C18.926025,22.5157 18.857275,22.56595 18.740275,22.49395 L12.212775,18.47295 C12.095775,18.4007 11.904275,18.4007 11.787025,18.47295 L5.260025,22.49395 C5.143025,22.56595 5.074275,22.5157 5.107275,22.3822 L6.940025,14.9782 C6.973025,14.8447 6.914025,14.6632 6.808525,14.57495 L0.941525,9.65245 C0.836275,9.56395 0.862275,9.48345 0.999275,9.4737 L8.661025,8.91645 C8.798275,8.9067 8.953025,8.7942 9.005275,8.6672 L11.905025,1.6062 Z"/>
  </defs>
  <g fill="none" fill-rule="evenodd">
    <mask id="bookmarkfilled24px-b" fill="#fff">
      <use xlink:href="#bookmarkfilled24px-a"/>
    </mask>
    <use stroke="#000" stroke-width="1.3" xlink:href="#bookmarkfilled24px-a"/>
    <g fill="#000" mask="url(#bookmarkfilled24px-b)">
      <rect width="24" height="24"/>
    </g>
  </g>
</svg>
