<svg xmlns="http://www.w3.org/2000/svg" xmlns:xlink="http://www.w3.org/1999/xlink" width="24" height="24" viewBox="0 0 24 24">
  <defs>
    <path id="cart24px-a" d="M18.2881,17.185475 C19.6589803,17.185475 20.7706,18.2968852 20.7706,19.667475 C20.7706,21.0386375 19.6591577,22.149975 18.2881,22.149975 C16.9170423,22.149975 15.8056,21.0386375 15.8056,19.667475 C15.8056,18.2968852 16.9172197,17.185475 18.2881,17.185475 Z M9.899925,17.185475 C11.2708053,17.185475 12.382425,18.2968852 12.382425,19.667475 C12.382425,21.0386375 11.2709827,22.149975 9.899925,22.149975 C8.52922199,22.149975 7.417425,21.0384923 7.417425,19.667475 C7.417425,18.2970304 8.52939941,17.185475 9.899925,17.185475 Z M18.2881,18.485475 C17.635135,18.485475 17.1056,19.0149102 17.1056,19.667475 C17.1056,20.3206399 17.634985,20.849975 18.2881,20.849975 C18.941215,20.849975 19.4706,20.3206399 19.4706,19.667475 C19.4706,19.0149102 18.941065,18.485475 18.2881,18.485475 Z M9.899925,18.485475 C9.24725992,18.485475 8.717425,19.0151102 8.717425,19.667475 C8.717425,20.3204398 9.24710991,20.849975 9.899925,20.849975 C10.55304,20.849975 11.082425,20.3206399 11.082425,19.667475 C11.082425,19.0149102 10.55289,18.485475 9.899925,18.485475 Z M3.90479307,1.85022414 C4.2970165,1.84951244 4.66282132,2.10215835 4.81094037,2.46098672 L4.84865425,2.57167353 L5.676,5.631 L22.749975,5.631975 C23.2776443,5.631975 23.6560165,6.08027449 23.584502,6.58422591 L23.5621819,6.69292422 L21.1757837,15.5165474 C21.0736849,15.8949555 20.7343641,16.1819833 20.3495818,16.2310428 L20.232975,16.238475 L7.948225,16.238475 C7.55654035,16.238475 7.19118581,15.9862097 7.04303426,15.6276404 L7.00529575,15.5170265 L3.658,3.15 L1.00036653,3.15197488 L0.999583472,1.85197512 L3.90479307,1.85022414 Z M22.151,6.931 L6.028,6.931 L8.195,14.938 L19.985,14.938 L22.151,6.931 Z"/>
  </defs>
  <g fill="none" fill-rule="evenodd">
    <mask id="cart24px-b" fill="#fff">
      <use xlink:href="#cart24px-a"/>
    </mask>
    <use fill="#000" fill-rule="nonzero" xlink:href="#cart24px-a"/>
    <g fill="#000" mask="url(#cart24px-b)">
      <rect width="24" height="24"/>
    </g>
  </g>
</svg>
