<svg xmlns="http://www.w3.org/2000/svg" xmlns:xlink="http://www.w3.org/1999/xlink" width="24" height="24" viewBox="0 0 24 24">
  <defs>
    <path id="delete24px-a" d="M15,0.85 C15.4582939,0.85 15.8373707,1.19382336 15.8929784,1.63721823 L15.9,1.75 L15.9,4.1 L21.75,4.1 L21.75,5.4 L19.889,5.4 L18.5149149,22.3027724 C18.4797231,22.7410697 18.1329279,23.0921008 17.7052272,23.1435121 L17.59675,23.15 L6.40325,23.15 C5.96366707,23.15 5.5857649,22.8326841 5.50028457,22.4109411 L5.48514014,22.303453 L4.11,5.4 L2.25,5.4 L2.25,4.1 L8.1,4.1 L8.1,1.75 C8.1,1.29170607 8.44382336,0.912629337 8.88721823,0.857021637 L9,0.85 L15,0.85 Z M18.585,5.4 L5.414,5.4 L6.752,21.85 L17.247,21.85 L18.585,5.4 Z M14.9,9 L14.9,18.5 L13.6,18.5 L13.6,9 L14.9,9 Z M10.4,9 L10.4,18.5 L9.1,18.5 L9.1,9 L10.4,9 Z M14.6,2.15 L9.4,2.15 L9.4,4.1 L14.6,4.1 L14.6,2.15 Z"/>
  </defs>
  <g fill="none" fill-rule="evenodd">
    <mask id="delete24px-b" fill="#fff">
      <use xlink:href="#delete24px-a"/>
    </mask>
    <use fill="#000" fill-rule="nonzero" xlink:href="#delete24px-a"/>
    <g fill="#000" mask="url(#delete24px-b)">
      <rect width="24" height="24"/>
    </g>
  </g>
</svg>
