<svg xmlns="http://www.w3.org/2000/svg" xmlns:xlink="http://www.w3.org/1999/xlink" width="24" height="24" viewBox="0 0 24 24">
  <defs>
    <path id="searchbold24px-a" d="M10.4239302,1.12223953 C15.5618222,1.12223953 19.7267442,5.28699227 19.7267442,10.4238326 C19.7267442,12.6326658 18.9571937,14.6615706 17.6715458,16.2570731 L23.5850138,22.1709223 L22.1708002,23.5851359 L16.2570428,17.6716195 C14.6615864,18.9573089 12.6327312,19.7268907 10.4239302,19.7268907 C5.28692555,19.7268907 1.12209302,15.5618043 1.12209302,10.4238326 C1.12209302,5.28740085 5.28733896,1.12223953 10.4239302,1.12223953 Z M10.4239302,3.12223953 C6.39189936,3.12223953 3.12209302,6.39197944 3.12209302,10.4238326 C3.12209302,14.4572621 6.39152234,17.7268907 10.4239302,17.7268907 C14.4576479,17.7268907 17.7267442,14.4576616 17.7267442,10.4238326 C17.7267442,6.39157997 14.4572709,3.12223953 10.4239302,3.12223953 Z"/>
  </defs>
  <g fill="none" fill-rule="evenodd">
    <mask id="searchbold24px-b" fill="#fff">
      <use xlink:href="#searchbold24px-a"/>
    </mask>
    <use fill="#000" fill-rule="nonzero" xlink:href="#searchbold24px-a"/>
    <g fill="#000" mask="url(#searchbold24px-b)">
      <rect width="24" height="24"/>
    </g>
  </g>
</svg>
